<svg width="121" xmlns="http://www.w3.org/2000/svg" height="31" fill="none"><g data-testid="nabucasa_logo" style="fill: rgb(0, 0, 0);"><g data-testid="Layer_1-2" style="fill: rgb(0, 0, 0);" xmlns:xlink="http://www.w3.org/1999/xlink" xml:space="preserve"><path d="M50.21 14.904c0-.149.014-.296.014-.447C50.218 6.525 42.661.002 33.48.002c-5.771 0-11.15 2.577-14.205 6.806a16.395 16.395 0 0 0-4.92-.751C6.482 6.057.003 11.654.003 18.455c0 6.799 6.476 12.395 14.347 12.398h23.128v-8.058h3.86v8.058h7.603c5.088 0 9.275-3.617 9.275-8.012 0-3.983-3.438-7.392-8.006-7.937Z" style="fill-rule: nonzero; clip-rule: evenodd; stroke-linejoin: round; stroke-miterlimit: 2; fill: rgb(177, 226, 248);" class="fills" data-testid="svg-path"/><path d="M48.791 18.212h-3.959v-6.331h1.003c.476-.021.854-.364.854-.776 0-.411-.378-.755-.854-.776H15.873c-.476.021-.854.365-.854.776 0 .412.378.755.854.776h1.003v6.331h-3.957c-.493 0-.9.351-.9.777 0 .427.407.777.9.777h1.001v11.087h23.558v-8.058h3.86v8.058h6.441V19.766h1.003c.493 0 .899-.35.899-.777 0-.426-.406-.777-.89-.777Zc-.009 0 0 0 0 0Z" style="fill-rule: nonzero; clip-rule: evenodd; stroke-linejoin: round; stroke-miterlimit: 2; fill: rgb(23, 75, 98);" class="fills" data-testid="svg-path"/><rect rx="0" ry="0" x="16.878" y="22.795" width="9.705" height="3.334" style="fill-rule: evenodd; clip-rule: evenodd; stroke-linejoin: round; stroke-miterlimit: 2; fill: rgb(255, 255, 255);" class="fills" data-testid="svg-rect"/><rect rx="0" ry="0" x="31.994" y="13.384" width="3.86" height="3.338" style="fill-rule: evenodd; clip-rule: evenodd; stroke-linejoin: round; stroke-miterlimit: 2; fill: rgb(255, 255, 255);" class="fills" data-testid="svg-rect"/><rect rx="0" ry="0" x="16.878" y="13.384" width="13.512" height="3.338" style="fill-rule: evenodd; clip-rule: evenodd; stroke-linejoin: round; stroke-miterlimit: 2; fill: rgb(255, 255, 255);" class="fills" data-testid="svg-rect"/><rect rx="0" ry="0" x="37.478" y="13.384" width="3.86" height="3.338" style="fill-rule: evenodd; clip-rule: evenodd; stroke-linejoin: round; stroke-miterlimit: 2; fill: rgb(255, 255, 255);" class="fills" data-testid="svg-rect"/><rect rx="0" ry="0" x="37.478" y="22.793" width="3.86" height="8.06" style="fill-rule: evenodd; clip-rule: evenodd; stroke-linejoin: round; stroke-miterlimit: 2; fill: rgb(255, 255, 255);" class="fills" data-testid="svg-rect"/><path d="M77.866 12.462H75.89l-3.847-5.451v5.451h-1.976V4.173h1.976l3.853 5.463V4.173h1.97v8.289Zm12.654-1.707h-3.464l-.658 1.707h-2.103l3.58-8.289h1.84l3.588 8.285h-2.116l-.667-1.703Zm-2.931-1.391h2.397l-1.205-3.102-1.192 3.102Zm11.99 3.098V4.173h3.361a7.407 7.407 0 0 1 1.495.135c.4.077.779.219 1.116.419.295.182.533.426.69.708.164.316.242.661.23 1.007 0 .185-.027.368-.081.547-.111.354-.347.67-.676.902a2.265 2.265 0 0 1-.587.308c.258.053.502.146.72.276.384.231.659.572.778.962.061.194.091.395.09.596 0 .804-.3 1.412-.9 1.823-.6.41-1.452.615-2.558.614l-3.678-.008Zm1.976-4.815h1.463c.4.019.797-.077 1.127-.275a.87.87 0 0 0 .368-.755.892.892 0 0 0-.377-.81c-.259-.162-.658-.243-1.196-.243h-1.381l-.004 2.083Zm0 1.206v2.237h1.695c.223.004.446-.024.658-.083.17-.047.327-.125.46-.227a.905.905 0 0 0 .274-.341c.061-.137.092-.283.09-.43a1.36 1.36 0 0 0-.081-.48.877.877 0 0 0-.246-.364 1.103 1.103 0 0 0-.428-.223 2.299 2.299 0 0 0-.646-.081l-1.776-.008Zm19.289-4.68v5.471c.009.434-.085.866-.276 1.268a2.627 2.627 0 0 1-.764.918 3.465 3.465 0 0 1-1.15.558 5.926 5.926 0 0 1-2.952 0 3.486 3.486 0 0 1-1.164-.558 2.616 2.616 0 0 1-.761-.918 2.826 2.826 0 0 1-.272-1.268V4.173h1.974v5.471c0 .544.15.938.46 1.192a2.28 2.28 0 0 0 2.496 0c.297-.248.444-.642.444-1.192V4.173h1.965ZM77.847 23.804c-.03.401-.142.794-.331 1.161a2.737 2.737 0 0 1-.764.906 3.569 3.569 0 0 1-1.182.596c-.51.15-1.046.223-1.585.215a4.676 4.676 0 0 1-1.656-.276 3.423 3.423 0 0 1-1.245-.795 3.488 3.488 0 0 1-.784-1.254 4.734 4.734 0 0 1-.274-1.653v-.547a4.592 4.592 0 0 1 .285-1.655c.168-.461.44-.889.801-1.258a3.486 3.486 0 0 1 1.253-.795 4.651 4.651 0 0 1 1.647-.278 5.278 5.278 0 0 1 1.585.218c.433.134.83.34 1.169.608.321.262.576.578.75.928.185.373.3.768.343 1.171h-1.976a2.27 2.27 0 0 0-.148-.656 1.295 1.295 0 0 0-.333-.477 1.442 1.442 0 0 0-.559-.29 3.046 3.046 0 0 0-.831-.099c-.59-.032-1.158.208-1.493.63-.326.418-.489 1.068-.489 1.949v.556c-.005.378.031.755.108 1.127.056.285.173.559.342.809.147.207.357.375.608.485.279.115.587.171.897.163.273.005.545-.026.807-.092.212-.052.407-.147.568-.276.156-.13.276-.288.352-.463.089-.208.142-.426.157-.648l1.978-.01Zm12.098 1.052h-3.451l-.658 1.707h-2.102l3.565-8.281h1.841l3.591 8.285h-2.103l-.683-1.711Zm-2.931-1.391h2.397l-1.205-3.102-1.192 3.102Zm16.963.926a1.03 1.03 0 0 0-.071-.398.775.775 0 0 0-.281-.32 2.579 2.579 0 0 0-.568-.284 9.804 9.804 0 0 0-.945-.302 13.093 13.093 0 0 1-1.243-.409 4.825 4.825 0 0 1-1.021-.539 2.513 2.513 0 0 1-.69-.713 1.735 1.735 0 0 1-.255-.946 1.801 1.801 0 0 1 .259-.946c.177-.289.427-.54.732-.733.34-.211.719-.37 1.12-.469a5.737 5.737 0 0 1 1.427-.167c.492-.003.982.064 1.449.199.407.113.785.294 1.113.532.303.222.546.499.711.811.17.322.256.672.251 1.025h-1.976a1.195 1.195 0 0 0-.097-.483 1.003 1.003 0 0 0-.292-.381 1.443 1.443 0 0 0-.495-.249 2.497 2.497 0 0 0-.69-.087 2.786 2.786 0 0 0-.676.074 1.475 1.475 0 0 0-.474.198.92.92 0 0 0-.278.306.761.761 0 0 0-.097.376c.009.286.194.548.485.685.443.23.921.403 1.42.515.473.124.935.28 1.38.467.363.15.698.345.994.58.257.205.462.453.602.73.141.289.211.601.205.916.007.336-.077.669-.246.971a2.13 2.13 0 0 1-.69.722 3.619 3.619 0 0 1-1.097.449c-.468.108-.95.161-1.433.157-.318 0-.635-.024-.948-.072a5.236 5.236 0 0 1-.907-.218 4.283 4.283 0 0 1-.8-.37 2.857 2.857 0 0 1-.642-.524 2.247 2.247 0 0 1-.584-1.537h1.983c-.006.219.041.436.138.638.086.167.219.313.386.424.178.112.381.193.596.236.255.052.516.076.778.074.224.003.448-.021.664-.072a1.46 1.46 0 0 0 .46-.199.79.79 0 0 0 .272-.298.788.788 0 0 0 .071-.369Zm14.141.465h-3.465l-.66 1.707h-2.1l3.57-8.281h1.84l3.591 8.285h-2.102l-.674-1.711Zm-2.931-1.391h2.397l-1.205-3.102-1.192 3.102Z" style="fill-rule: evenodd; clip-rule: evenodd; stroke-linejoin: round; stroke-miterlimit: 2;" class="fills" data-testid="svg-path"/></g></g></svg>