<svg width="314" xmlns="http://www.w3.org/2000/svg" height="132" fill="none"><g data-testid="Group"><g data-testid="ArtBoard11" style="fill: rgb(0, 0, 0);"><g data-testid="svg-g" style="fill: rgb(0, 0, 0);"><path d="M259.5 0C229.407 0 205 24.643 205 54.5s24.407 54.5 54.5 54.5S314 84.357 314 54.5 289.593 0 259.5 0Zm-8.53 108.289V97.626c0-3.791-2.37-7.346-5.924-8.767-13.27-5.687-22.748-18.957-22.748-34.359 0-20.378 16.587-37.202 37.202-37.202s37.202 16.824 37.202 37.202c0 24.17-18.719 46.917-45.732 53.789Z" style="fill-rule: nonzero; clip-rule: evenodd; stroke-linejoin: round; stroke-miterlimit: 2; fill: rgb(0, 202, 255);" class="fills" data-testid="svg-path"/></g></g><g data-testid="Google_Assistant_logo" style="fill: rgb(0, 0, 0);"><circle cx="40.288" cy="43.236" style="fill: rgb(66, 133, 244);" r="40.288" class="fills" data-testid="svg-circle"/><path d="M132 47.167a8.188 8.188 0 0 1-8.189 8.188A8.189 8.189 0 1 1 132 47.167Z" style="fill: rgb(52, 168, 83);" class="fills" data-testid="svg-path"/><path d="M117.261 67.147c0 9.044-7.332 16.377-16.377 16.377-9.047 0-16.378-7.333-16.378-16.377 0-9.045 7.332-16.377 16.378-16.377 9.045 0 16.377 7.332 16.377 16.377Z" style="fill: rgb(234, 67, 53);" class="fills" data-testid="svg-path"/><path d="M120.536 109.4c0 10.854-8.798 19.652-19.653 19.652-10.855 0-19.652-8.798-19.652-19.652 0-10.853 8.797-19.652 19.652-19.652s19.653 8.799 19.653 19.652Z" style="fill: rgb(251, 188, 5);" class="fills" data-testid="svg-path"/></g></g></svg>