<svg width="1917" xmlns="http://www.w3.org/2000/svg" height="317" fill="none"><g data-testid="svg-g" style="fill: rgb(0, 0, 0);"><g data-testid="path179" style="fill: rgb(0, 0, 0);"><g data-testid="svg-path"><defs><linearGradient id="a" x1=".5" y1="0" x2=".5" y2="1"><stop offset="0" stop-color="#b1e0f6"/><stop offset="1" stop-color="#cde6ee"/></linearGradient><pattern patternUnits="userSpaceOnUse" x="0" y="0" width="1917" height="317" id="b"><rect width="1917" height="317" style="fill: url(&quot;#a&quot;);"/></pattern></defs><path d="M60.988 316.607c-.168-.233-.305-2.019-.305-3.969 0-2.995-.123-3.532-.777-3.459-.599.063-.83-.543-1.019-2.698-.249-2.79-.249-2.79-.781-1.035-1.089 3.604-1.622 1.575-1.853-7.069-.311-11.638-.858-8.713-.994 5.314-.154 15.851-1.303 17.565-1.664 2.477-.185-7.706-.336-9.287-.886-9.287-.57 0-.682-2.24-.784-15.772-.067-9.265-.298-16.024-.553-16.381-.256-.36-.435-6.072-.435-14.04 0-12.414-.059-13.427-.773-13.348-.715.082-.785-1.026-.89-14.157-.122-15.469-.221-16.658-1.198-14.803-1.512 2.862-1.698.442-1.477-19.035.122-10.515.052-18.12-.158-17.328-.77 2.91-1.481 1.023-1.614-4.282-.07-2.85-.329-5.519-.575-5.936-.283-.473-.332-3.099-.133-7.151.291-5.954.263-6.339-.43-5.538-.82.947-1.054.773-1.8-1.316-.501-1.404-.501-1.404-21.197-1.565C.368 146.071 0 146.046 0 144.834c0-1.079.298-1.231 2.409-1.231 1.327 0 2.532-.28 2.683-.621.178-.395 6.716-.619 18.16-.619 11.448 0 17.985-.221 18.164-.618.151-.341.672-.619 1.159-.619.799 0 .858-.274.588-2.78-.238-2.231-.157-2.853.41-3.159.525-.281.679-1.095.602-3.19-.115-3.153.732-4.292 1.426-1.916.283.966.332-.896.15-5.614-.227-5.97-.164-7.166.42-7.763.585-.596.68-2.37.624-11.521-.056-9.24.031-10.815.599-10.815.493 0 .721-.962.886-3.714.182-3.055.36-3.701.998-3.632.71.082.773-.846.773-11.487 0-6.63.183-11.83.428-12.174.238-.329.486-4.077.556-8.328.113-6.924.204-7.722.9-7.646.711.082.774-.815.774-10.869 0-6.068.186-11.218.421-11.543.231-.325.479-2.398.553-4.614.178-5.358 1.338-5.781 1.705-.618.371 5.251.841 2.414.97-5.886.095-6.118.235-7.431.781-7.431.473 0 .729-.893.886-3.096.35-4.885 1.513-4.244 1.684.931.074 2.212.323 4.289.554 4.614.231.322.42 2.171.42 4.112 0 2.972.119 3.509.774 3.436.714-.082.784 1.013.896 13.8.077 9.167.288 14.169.617 14.727.364.609.413 5.548.182 17.884l-.315 17.044 1.187 1.306 1.187 1.306-.326 18.171c-.241 13.522-.196 18.17.182 18.17.28 0 .697.695.928 1.543.301 1.105.708 1.503 1.429 1.395.945-.142 1.019.101 1.145 3.875.074 2.213.322 4.289.553 4.614.231.322.421 1.638.421 2.922 0 1.815.147 2.253.658 1.979.382-.205.781.082.942.666.319 1.161 1.94-.344 1.94-1.802 0-3.913 3.414-4.374 4.685-.628.963 2.84 2.119 2.537 2.403-.628.245-2.714 1.334-3.44 1.754-1.161.322 1.76 2.07.911 2.672-1.301.235-.861.714-1.565 1.071-1.565.368 0 .704-.707.785-1.657.175-2.051 1.222-2.65 1.551-.886.343 1.836.942 1.622 1.107-.398.164-1.988 1.313-2.307 1.67-.464.133.682.532 1.237.886 1.237s.753.559.886 1.24c.483 2.481 1.558 1.392 1.793-1.811.27-3.714 1.019-4.241 1.985-1.398.435 1.278 1.023 2.099 1.471 2.051.466-.053.806.452.893 1.322.214 2.102.967 1.004.967-1.41 0-1.78.227-2.256 1.492-3.093 1.421-.943 1.484-1.123 1.278-3.663-.13-1.616-.021-2.844.28-3.102.29-.25.494-2.304.494-4.999 0-2.515.199-4.743.441-4.955.245-.208.445-2.761.445-5.667 0-4.724.091-5.321.864-5.601.708-.259.89-.953.995-3.813.109-2.887.266-3.483.907-3.411.686.073.777-.555.777-5.383 0-3.008.196-5.64.442-5.851.245-.208.441-1.048.441-1.859 0-.811.199-1.647.445-1.855.248-.218.441-3.197.441-6.813 0-3.62.196-6.599.445-6.814.241-.208.441-1.006.441-1.77s.185-1.653.413-1.975c.224-.325.476-1.566.553-2.758.105-1.616.34-2.143.918-2.08.462.054.774-.347.774-.988 0-1.357 1.561-3.379 2.188-2.84.259.224.477 1.297.484 2.386.017 2.499.784 3.834 2.202 3.834.984 0 1.121.287 1.243 2.597.095 1.868.301 2.512.725 2.282.893-.477 2.017 3.225 2.017 6.636 0 1.632.2 3.137.445 3.348.242.209.441 1.326.441 2.478 0 1.151.2 2.265.445 2.477.249.214.441 3.193.441 6.81 0 3.619.193 6.598.445 6.813.249.214.441 3.174.441 6.753 0 5.69.098 6.498.932 7.548.78.988.9 1.708.738 4.406-.136 2.31-.021 3.316.4 3.544.36.195.588-.139.588-.868 0-.65.2-1.354.441-1.566.245-.208.445-1.044.445-1.858 0-.811.2-1.647.441-1.856.245-.211.445-1.565.445-3.01 0-1.446.182-2.891.406-3.216.221-.322.469-1.262.553-2.086.207-2.092 1.163-2.326 1.685-.41.497 1.827.991 2.007 1.796.65.312-.524.781-.849 1.047-.726.266.123.858-.438 1.317-1.256.459-.814 1.089-1.341 1.408-1.171.315.171.69-.119.833-.646.147-.524.543-.802.886-.619.343.183.735-.063.869-.555 1.586-5.769 4.485 1.398 4.083 10.085-.267 5.788-.224 6.469.36 5.791.365-.423.872-.59 1.124-.369.316.271.463-3.352.463-11.367 0-7.179.175-11.919.444-12.153.242-.208.442-2.12.442-4.247 0-2.124.185-4.128.413-4.453.224-.322.476-1.562.553-2.755.252-3.847 1.436-2.764 1.691 1.547.165 2.754.396 3.717.886 3.717.55 0 .687 1.36.788 7.829.116 7.192.196 7.855.998 8.148.753.275.872.858.872 4.305 0 3.203.175 4.209.886 5.109.487.618.886 1.606.886 2.196 0 .641.312 1.038.774.988.515-.054.827.435.925 1.461.08.852.332 1.814.553 2.136.224.325.406 1.196.406 1.941 0 .83.343 1.477.886 1.676.725.265.886.845.886 3.168 0 1.972.182 2.846.595 2.846.837 0 2.063 2.039 2.063 3.424 0 .751.15.947.431.556.238-.332.486-4.914.553-10.187.105-8.031.231-9.587.788-9.587.574 0 .693-3.096.886-22.913.192-19.818.311-22.914.886-22.914.364 0 .882-.391 1.152-.868 1.029-1.843 1.506-.006 1.506 5.823 0 3.206.199 5.983.441 6.191.266.23.445 4.434.445 10.531 0 5.92.178 10.3.43 10.518.273.236.477-3.364.554-9.717.119-9.877 1.134-14.923 1.593-7.924.08 1.193.329 2.433.553 2.755.228.325.413 4.279.413 8.789 0 4.8.183 8.359.442 8.583.273.237.444-.786.444-2.654 0-2.218.232-3.329.858-4.124 1.261-1.597 1.8-.685 1.8 3.064 0 1.83.2 3.503.442 3.714.245.212.444.941.444 1.622 0 .682.196 1.067.441.855.246-.211.445-1.284.445-2.388 0-1.105.193-2.282.431-2.617.249-.343.487-6.289.557-13.9.189-21.169 1.404-19.461 1.555 2.183.059 8.518.294 16.041.521 16.722.228.682.494 1.657.592 2.168.196.998 1.481-2.433 1.744-4.645.497-4.184 1.471-.921 1.59 5.324.119 6.365.164 6.611 1.439 8.321.721.969 1.313 2.389 1.313 3.156 0 .767.2 1.568.445 1.78.252.218.441 3.399.441 7.431 0 4.03.189 7.211.445 7.432.242.208.441 1.341.441 2.512 0 1.502.2 2.133.68 2.133.374 0 .854.625 1.068 1.392.234.833.29-3.026.14-9.612-.175-7.561-.098-11.44.241-12.386.273-.761.554-2.216.624-3.238.091-1.332.346-1.833.903-1.774.707.083.774-.754.774-9.628 0-5.345.186-9.981.413-10.306.224-.322.473-1.562.553-2.755.333-5.084 1.464-2.461 1.601 3.711.07 3.232.318 6.144.553 6.469.231.329.424 1.345.424 2.26 0 1.205.213 1.644.77 1.581.553-.063.844.524 1.033 2.079.256 2.143.634 1.771.946-.927.22-1.932 1.428-1.49 1.681.618.129 1.101.49 1.859.886 1.859.528 0 .689 1.085.791 5.342.105 4.384.284 5.545.994 6.444.564.71.872 1.903.872 3.361 0 1.243.547 3.777 1.219 5.633l1.215 3.373.137-3.717c.073-2.042.322-3.979.553-4.304.231-.322.42-2.844.42-5.605 0-2.758.189-5.279.421-5.604.227-.322.479-2.399.553-4.614.112-3.389.255-4.011.907-3.938.458.053.777-.344.777-.96 0-.577.193-1.319.431-1.653.249-.344.487-6.084.557-13.286.101-10.779.217-12.676.784-12.676.364 0 .883-.391 1.149-.868 1.176-2.101 1.509.044 1.509 9.814 0 8.959.066 9.799.774 9.72.686-.082.798.754.994 7.346.182 6.053.347 7.432.886 7.432.547 0 .69 1.281.792 7.113.07 3.91.318 7.381.553 7.709.235.328.427 1.903.427 3.5 0 2.386.14 2.891.778 2.818.676-.069.788.615.889 5.488.119 5.756.69 8.485 1.667 7.961.711-.381 1.982 3.112 1.982 5.45 0 1.487.193 1.777 1.219 1.856.668.054 1.547.12 1.954.155.402.034.886.271 1.071.527.515.716 2.543.514 3.302-.329.564-.628.68-2.508.666-10.975-.014-9.36.049-10.212.76-10.133.693.082.774-.609.774-6.532 0-3.642.192-6.892.43-7.224.238-.331.487-5.194.554-10.805.164-13.5 1.369-15.39 1.575-2.474.07 4.251.319 8 .557 8.328.235.331.427 3.456.427 6.943 0 3.559.193 6.51.442 6.724.245.212.444 2.31.444 4.664 0 3.598.109 4.22.683 3.91.589-.315.641-1.436.378-8.053-.213-5.355-.15-8.107.204-9.06.304-.82.553-5.333.619-11.278.116-10.42 1.832-15.425 2.546-7.432.147 1.65.441 2.477.886 2.477.375 0 .729.679.813 1.55.231 2.423.959 3.013.959.779 0-2.222.784-3.244 1.506-1.96.266.48.784.871 1.152.871.473 0 .728.893.886 3.096.157 2.203.413 3.096.886 3.096.543 0 .704 1.445.886 8.05.178 6.608.339 8.053.882 8.053.459 0 .743.878.914 2.787.256 2.884.718 2.436.953-.928.15-2.187 1.383-2.572 1.597-.502.091.915.353 1.244.801 1.004.417-.224.746.091.883.833.123.653.662 1.458 1.194 1.783.532.328 1.166 1.224 1.404 1.988.242.767.711 1.395 1.04 1.395.33 0 .701.53.823 1.18.119.65.62 1.328 1.107 1.505.735.272.837.65.585 2.25-.252 1.61-.112 2.13.854 3.197.967 1.06 1.114 1.609.89 3.282-.347 2.587 2.139 4.86 3.211 2.938.525-.944.627-.95 1.131-.054.304.54.802.865 1.106.723.302-.142.739.429.967 1.275.816 2.998 2.504 3.521 11.377 3.521h8.107l.13-4.752c.147-5.459.784-6.403 1.94-2.872 1.593 4.876 3.281 6.428 3.281 3.014 0-2.843.798-3.399 2.02-1.414.547.887 1.107 1.449 1.247 1.25.14-.196.567.006.949.448.525.609.819.631 1.208.088.732-1.022 2.087-.886 2.395.24.235.846.361.833 1.1-.104.791-1 .889-.988 1.828.215 2.027 2.594 3.596 2.149 4.468-1.272.368-1.445 1.355-1.026 1.53.65.099.928.375 1.193 1.002.962.473-.173 1.128-.009 1.45.366.476.556.55.073.392-2.616-.175-2.928-.077-3.427.886-4.487 1.078-1.183 1.082-1.246.875-9.798-.168-6.864-.084-8.745.407-9.281.472-.518.612-2.736.612-9.653 0-8.171.07-8.972.774-8.893.694.079.778-.609.778-6.536 0-3.638.192-6.888.427-7.217.235-.328.487-4.077.553-8.331.105-6.38.242-7.728.792-7.728.472 0 .728-.896.886-3.099.241-3.405 1.281-4.301 1.799-1.546.515 2.726.837.11.963-7.741.095-6.122.232-7.432.781-7.432.393 0 .753-.757.886-1.858.259-2.2 1.482-2.528 1.692-.458.084.817.343 1.231.62.991.262-.227.696-.028.966.454.266.48.784.868 1.149.868.5 0 .7.893.798 3.563.133 3.585.385 4.14 1.292 2.872.638-.893 1.453-.174 1.453 1.275 0 .684.298 1.101.746 1.047.41-.044.858.474.998 1.152.449 2.215 1.562 1.452 1.8-1.237.484-5.384 1.534-3.004 1.779 4.027.2 5.797.554 7.034.97 3.405.336-2.91 1.461-1.253 1.681 2.477.228 3.812 1.254 5.232 1.793 2.477.133-.682.532-1.24.886-1.24.371 0 .739-.786.865-1.856.13-1.101.494-1.858.886-1.858.364 0 .774-.559.907-1.241.133-.681.529-1.237.886-1.237.354 0 .861-.391 1.131-.867.931-1.667 1.506-.054 1.506 4.241 0 5.062 1.351 6.267 1.772 1.581.311-3.512 1.502-3.392 1.688.17.087 1.72.304 2.5.619 2.228.266-.23.704-.028.97.448 1.163 2.077 1.811.975 2.038-3.465.4-7.816 1.503-5.888 1.772 3.096.179 6.056.344 7.432.886 7.432.473 0 .729.893.886 3.095.158 2.203.413 3.096.886 3.096.469 0 .729.896.883 3.099.157 2.203.416 3.096.886 3.096.458 0 .703.767.791 2.477.189 3.686.644 4.73.946 2.168.406-3.418 1.537-2.834 1.806.928.235 3.247 1.307 4.358 1.793 1.858.484-2.477 1.52-1.379 1.751 1.859.158 2.203.414 3.096.886 3.096.445 0 .739.827.886 2.477.147 1.65.445 2.477.886 2.477.536 0 .69 1.146.795 5.879.144 6.624.977 9.404.977 3.263 0-3.884.609-5.424 1.506-3.818.27.48.788.868 1.152.868.445 0 .739.826.886 2.477.231 2.594 1.1 3.282 2.038 1.609.998-1.783 1.506-.015 1.506 5.242 0 6.93.816 6.769.98-.193.126-5.364.998-7.564 1.657-4.181.133.682.539 1.24.907 1.24.364 0 .728.631.805 1.401.081.774.305 1.266.501 1.095.483-.419 3.123 1.468 3.123 2.232 0 .334.211.426.47.201.956-.823 2.188 1.664 2.188 4.422 0 1.458.2 2.824.442 3.035.245.212.444.868.444 1.461 0 3.109 1.625 5.491 1.853 2.721.161-1.985 1.379-2.339 1.604-.464.413 3.48 2.409 7.378 2.885 5.636.165-.597.763-.84 1.807-.723l1.562.174.126-5.021c.147-5.835 1.334-7.495 1.597-2.234.073 1.533.325 3.051.553 3.373.228.325.413 1.199.413 1.941 0 .833.343 1.477.886 1.676.501.186.886.845.886 1.521 0 .968.28 1.17 1.439 1.06.928-.088 1.786.3 2.41 1.098.532.682 1.526 1.281 2.213 1.335.686.054 1.506.322 1.821.6.329.293.854.179 1.236-.262.504-.584.788-.597 1.176-.054.75 1.048 43.349 1.019 44.099-.028.291-.407.532-1.644.532-2.749 0-2.357.641-3.137 1.628-1.988.641.742.676.275.389-5.071-.34-6.365.69-9.963 2.119-7.4 1.057 1.896 2.066 1.271 2.066-1.278 0-1.307.196-2.544.441-2.755.245-.212.441-1.648.441-3.191 0-2.269.168-2.871.869-3.127.732-.265.886-.953.998-4.431.098-3.165.28-4.115.791-4.115.546 0 .704-1.445.886-8.05.2-7.182.308-8.044.998-7.965.704.079.774-.7.774-8.394 0-4.661.193-8.744.427-9.069.231-.328.484-3.241.554-6.472.112-5.157.224-5.867.903-5.791.693.079.774-.612.774-6.564 0-5.788.112-6.788.858-7.731 1.408-1.783 1.8-.65 1.8 5.194 0 6.561 1.341 8.227 1.772 2.199.273-3.831 2.241-4.749 2.658-1.237.133 1.102.493 1.859.886 1.859.444 0 .738.824.886 2.477.147 1.651.441 2.477.886 2.477.556 0 .682 1.553.787 9.584.067 5.273.316 9.859.554 10.19.238.328.43 3.717.43 7.526 0 6.406.067 6.952.886 7.252.722.262.886.843.886 3.13 0 1.547.2 2.983.442 3.191.245.211.444 1.048.444 1.859 0 .811.2 1.647.442 1.858.245.209.444 1.73.444 3.374 0 2.467.133 2.975.774 2.906.62-.073.802.492.907 2.768.105 2.212.427 3.25 1.439 4.607.935 1.246 1.31 2.338 1.31 3.802 0 1.304.214 2.052.595 2.052.813 0 2.063 2.022 2.063 3.335 0 .65.2.9.508.631.28-.243.728-.053.998.426.728 1.304 2.034 1.244 2.034-.091 0-1.597.921-2.203 1.545-1.016.472.905.584.909 1.218.016 1.023-1.427 1.667-.49 1.667 2.42v2.556l1.219-1.559c1.856-2.376 5.585-2.218 5.788.243.172 2.073.967 2.282.967.253 0-1.865 1.481-3.756 2.616-3.339.528.192.97-.044 1.124-.606.14-.514.549-.767.914-.571.469.252.661-.063.661-1.079 0-2.187 1.321-5.479 2.042-5.091.462.25.616-.274.616-2.089 0-1.331.2-2.594.442-2.805.245-.211.444-1.3.444-2.417 0-1.25.343-2.468.886-3.156.529-.669.886-1.909.886-3.07 0-1.07.186-2.213.41-2.534.228-.325.476-1.566.553-2.759.116-1.719.333-2.167 1.068-2.167 1.275 0 2.399-1.43 2.399-3.049 0-.741.193-1.616.427-1.944.235-.328.484-3.799.554-7.712.112-6.331.21-7.104.9-7.025.668.07.777-.495.777-4.086 0-4.024 1.127-7.322 2.062-6.018.158.221.533-.073.834-.654.487-.927.641-.943 1.331-.142.43.496 1.4.906 2.153.906 1.306 0 1.376.123 1.51 2.787.077 1.53.325 3.051.553 3.373.227.325.413 2.174.413 4.112 0 2.976.123 3.509.777 3.436.501-.053.827.433.925 1.386.08.808.529 2.417.994 3.578.466 1.162.848 2.768.848 3.573 0 1.009.238 1.432.777 1.372.484-.053.827.423.911 1.275.084.811.371 1.234.711 1.051.315-.167 1.18.663 1.926 1.849.742 1.184 1.467 1.988 1.61 1.79.424-.594 2.038 1.789 2.038 3.007 0 .707.232 1 .617.792.669-.36 2.041 2.843 2.041 4.762 0 .609.2 1.281.445 1.493.242.208.441 1.192.441 2.183 0 1.338.168 1.711.659 1.449.434-.234.837.246 1.187 1.413.529 1.764.529 1.764.697.218.29-2.685 1.474-5.689 2.108-5.352.325.177.711-.113.854-.644.175-.637.634-.861 1.366-.665.826.22 1.103.028 1.103-.761 0-1.291 1.555-3.37 2.14-2.862.234.202.539-.054.679-.559.382-1.391 1.138-1.114 1.6.584.357 1.319.638 1.48 2.196 1.281 1.418-.18 1.943.044 2.567 1.124.43.741 1.082 1.35 1.446 1.35.368 0 .732.631.809 1.405.077.77.34 1.23.581 1.022 1.492-1.291 2.185 1.717 2 8.678-.105 4.052-.067 5.21.098 2.831.231-3.323.413-4.011 1.054-3.942.56.064.774-.372.774-1.577 0-.916.182-1.932.406-2.254.224-.325.473-1.284.553-2.136.084-.871.438-1.549.813-1.549.493 0 .721-.963.886-3.715.164-2.755.395-3.717.886-3.717.518 0 .714-1.101.886-4.955.171-3.853.371-4.954.885-4.954.508 0 .718-1.032.886-4.336.169-3.301.382-4.336.886-4.336.393 0 .757-.754.886-1.855.284-2.383 3.964-2.9 4.409-.619.133.682.543 1.237.907 1.237.473 0 .729.896.886 3.096.158 2.203.413 3.099.886 3.099.504 0 .718 1.032.886 4.333.168 3.304.378 4.335.886 4.335.434 0 .714.742.809 2.134.168 2.461.896 4.061 1.849 4.061.529 0 .69 1.076.795 5.261.07 2.893.318 5.525.553 5.85.231.325.424 1.496.424 2.601 0 1.104.199 2.177.441 2.388.249.215.445 3.08.445 6.473 0 6.289.56 7.681 2.034 5.046.603-1.073 1.51-.385 1.51 1.145 0 .701.294 1.101.773 1.048.669-.073.757.397.638 3.474-.077 2.077.049 3.563.308 3.563.242 0 .403-.767.357-1.704-.091-1.824 3.267-2.774 4.031-1.142.171.372.613.678.977.678.518 0 .634.647.518 2.941-.091 1.853.032 2.941.34 2.941.294 0 .381-.59.224-1.48-.308-1.704.452-2.666 1.313-1.666.322.372 1.359.751 2.304.843.949.091 1.94.356 2.203.587.336.296.466-4.964.441-17.975-.038-20.66 1.138-28.985 1.418-10.048.07 4.592.319 8.618.554 8.95.238.331.43 2.998.43 5.926 0 5.437.634 8.656 1.702 8.665.487.004.536-1.956.273-10.82-.28-9.461-.234-10.872.365-11.194.595-.318.651-1.902.434-12.304-.179-8.646-.105-12.061.262-12.376.281-.243.508-1.903.508-3.686 0-1.786.189-3.512.424-3.837.231-.325.48-2.96.553-5.854.105-4.181.266-5.261.795-5.261.392 0 .753-.757.886-1.858.13-1.102.49-1.856.886-1.856.546 0 .704-1.445.886-8.053.182-6.605.34-8.05.886-8.05.515 0 .714-1.102.886-4.955.241-5.393 1.397-7.296 1.691-2.786.081 1.193.329 2.433.554 2.755.227.325.413 1.06.413 1.634 0 .616.318 1.01.774.96.637-.07.816.577.998 3.632.227 3.812 1.253 5.232 1.789 2.477.62-3.168 1.53-1.231 1.755 3.714.168 3.781.371 4.955.864 4.955.354 0 .753.558.886 1.24.133.678.54 1.237.904 1.237.508 0 .718 1.032.886 4.336.171 3.304.382 4.336.886 4.336.567 0 .683 1.893.784 12.676.07 7.198.308 12.942.557 13.286.238.331.431 1.23.431 1.994 0 .76.231 1.584.511 1.827.368.319.427 3.197.214 10.493-.256 8.672-.204 10.104.374 10.417.371.198.673.896.673 1.549 0 .751.287 1.158.777 1.101.665-.069.774.493.774 4.043 0 3.152.126 3.982.536 3.509.62-.723 1.456-.17 1.456.962 0 .433.466 1.398 1.037 2.146l1.033 1.357-.203-6.431c-.214-6.696.123-8.148 1.509-6.539.61.707.648-.284.368-9.388-.298-9.782-.273-10.224.602-11.325 1.32-1.654 1.856-.786 1.856 3.004 0 1.833.2 3.503.445 3.714.284.246.441-1.808.441-5.721 0-3.361.182-6.372.406-6.697.221-.322.473-1.284.554-2.136.669-6.971 1.474-.754 1.446 11.149-.025 11.821.413 16.454 1.159 12.212.525-3.001 3.274-1.874 3.439 1.411.077 1.534.325 3.052.553 3.377.228.322.417 2.344.417 4.49 0 3.487.091 3.901.886 3.901.627 0 .886-.414.886-1.424 0-.785.185-1.691.409-2.013.228-.325.477-1.565.554-2.755.234-3.553 1.446-2.846 1.597.928.185 4.629.686 5.437.963 1.549.175-2.464.423-3.408.907-3.408.493 0 .696.878.801 3.408.088 2.247.417 3.828.956 4.642.452.682.911 1.938 1.019 2.79.113.849.179-7.372.151-18.271-.049-19.405.347-24.388 1.481-18.578.133.679.54 1.237.904 1.237.564 0 .686 1.692.788 10.824.066 5.958.315 11.092.553 11.424.238.334.431 1.934.431 3.559 0 2.276.143 2.875.623 2.62.522-.281.609-7.546.553-47.203-.059-41.289.011-46.868.596-46.868.581 0 .679 3.679.781 28.77.07 17.937.28 29.004.553 29.389.259.356.438 5.251.438 11.821 0 6.188.189 11.474.42 11.796.227.325.476 2.124.553 3.995.074 1.875.137-23.904.137-57.285 0-53.536.077-60.693.661-60.693.589 0 .666 6.264.666 52.643 0 28.953.101 51.526.22 50.163.494-5.52 1.534-2.973 1.772 4.335.123 3.746.224-16.318.224-44.589 0-45.278.077-51.403.662-51.403.547 0 .687 1.281.792 7.113.07 3.913.318 7.381.553 7.709.238.334.427 4.898.427 10.316 0 10.736 1.236 14.803 1.772 5.828.266-4.474 3.057-5.939 3.544-1.858.133 1.101.494 1.858.886 1.858.438 0 .714.742.805 2.165.081 1.193.33 2.433.557 2.758.224.322.41 1.616.41 2.872 0 1.796.164 2.266.774 2.199.693-.082.802.783.998 7.965.182 6.605.339 8.051.886 8.051.49 0 .721.962.886 3.717.164 2.752.392 3.714.886 3.714.507 0 .697.944.798 4.027.074 2.212.322 4.288.553 4.613.231.322.421 4.172.421 8.552 0 5.851.133 7.845.507 7.524.284-.243.732-.054.998.426.266.479.785.867 1.152.867.505 0 .715 1.035.886 4.336.165 3.241.382 4.336.865 4.336.354 0 .753.559.886 1.237.133.682.54 1.24.907 1.24.494 0 .697.878.799 3.405.073 1.875.325 3.674.553 3.995.231.326.42 1.493.42 2.598 0 1.101.2 2.177.441 2.388.246.212.445 1.604.445 3.096 0 1.493.196 2.888.441 3.099.246.208.445 1.06.445 1.893 0 1.471.133 1.572 2.283 1.758.407.035.886.272 1.072.527.182.256 2.283.464 4.668.464h4.335l.13-3.56c.171-4.518 1.379-5.175 1.6-.867.2 3.856 1.856 1.95 1.856-2.134 0-1.461.2-2.827.445-3.035.241-.212.441-1.607.441-3.099 0-1.493.199-2.885.445-3.096.248-.215.441-3.165.441-6.725 0-3.487.192-6.611.427-6.942.238-.328.487-4.077.553-8.328.105-6.381.242-7.732.792-7.732.518 0 .714-1.101.886-4.954.346-7.779 1.477-6.99 1.772 1.237.175 4.955.353 6.195.886 6.195.532 0 .707-1.24.886-6.195.406-11.332 1.523-8.536 1.67 4.181.126 10.632.844 14.34 1.078 5.573.102-3.771.274-4.799.795-4.799.515 0 .715-1.099.886-4.955.242-5.39 1.398-7.293 1.692-2.786.077 1.192.329 2.433.553 2.758.228.322.413 2.259.413 4.304 0 4.999.795 3.781.974-1.486.178-5.381 1.39-5.851 1.597-.622.073 1.875.325 3.673.553 3.995.231.325.42 3.721.42 7.552 0 3.973.189 7.125.441 7.343.245.211.445 1.171.445 2.136 0 1.288.203 1.73.774 1.667.553-.064.812.441.903 1.77.189 2.786 1.821 6.98 2.679 6.889.547-.054.792.596.956 2.54.413 4.882 1.499 2.348 1.229-2.875-.122-2.426-.052-4.563.162-4.746.21-.183.381-2.666.381-5.522 0-2.856.2-5.365.445-5.573.252-.221.441-3.374.441-7.347 0-3.828.193-7.226.424-7.551.235-.328.483-2.96.553-5.854.133-5.399 1.776-7.987 2.549-4.02.13.681.54 1.237.904 1.237.473 0 .704.808.805 2.786.182 3.676.967 4.813.967 1.401 0-2.78.728-4.001 1.506-2.524.269.508.735.804 1.04.662.301-.142.777.531 1.057 1.496l.508 1.752.291-1.547c.595-3.19 1.572-1.783 1.712 2.478.074 2.212.322 4.288.553 4.613.231.322.428 1.995.435 3.714.007 1.72.255 3.547.553 4.059.784 1.35 2.09 1.328 2.09-.038 0-.622.211-1.316.47-1.54.627-.54 2.188 1.483 2.188 2.84 0 1.278 1.328 1.3 2.035.035.697-1.241 1.509-.291 1.509 1.767 0 1.262.207 1.726.743 1.666.409-.044.857.47.998 1.152.136.681.549 1.237.917 1.237.501 0 .693.902.784 3.717.172 5.153.673 6.286.967 2.168.273-3.853 1.401-4.828 1.793-1.549.129 1.101.49 1.858.886 1.858.462 0 .704.786.798 2.601.102 1.959.291 2.515.771 2.256.35-.186.76.104.907.65.15.543.483.808.735.587.256-.218.683-.009.952.47.267.477.785.868 1.149.868.368 0 .728.631.809 1.401.077.773.34 1.234.581 1.023.242-.209.813.094 1.268.672.466.587 1.068.845 1.369.584.312-.269.785.003 1.124.656.862 1.644 1.023.517 1.156-8.053.105-6.64.199-7.423.893-7.344.704.079.774-.7.774-8.394 0-4.661.192-8.747.43-9.076.235-.331.484-4.358.554-8.949.147-9.858 1.327-12.67 1.583-3.768.136 4.667.672 6.567 1.863 6.567.518 0 .714 1.101.885 4.954.316 7.028 2.343 7.76 2.571.928.073-2.212.322-4.288.553-4.613.231-.325.42-1.212.42-1.976 0-1.745.865-2.55 1.506-1.401.27.477.788.868 1.152.868.553 0 .701 1.653.886 9.909.186 8.258.333 9.909.886 9.909.567 0 .665 1.773.665 12.231 0 6.728.155 12.231.344 12.231.185 0 .535.717.774 1.591.336 1.237.633 1.499 1.348 1.183.693-.309.977-.091 1.159.887.154.824.602 1.294 1.229 1.294.543 0 1.348.558 1.789 1.24.641.991 1.363 1.237 3.618 1.237 4.591 0 4.538.139 4.251-10.859-.175-6.718-.102-9.517.263-9.833.346-.3.504-3.805.504-11.297 0-10.278.049-10.875.872-11.178.788-.287.882-.956.998-6.907.259-13.604 1.418-8.732 1.674 7.034.189 11.559.322 13.623.886 13.623.546 0 .686 1.29.788 7.198.108 6.242.241 7.346.998 8.303.609.769.872 1.902.872 3.758 0 2.831.728 4.307.966 1.963.308-3.036 1.46-1.515 1.754 2.313.172 2.199.26-.328.225-6.195-.067-9.909-.067-9.909.973-10.114.914-.18 1.009-.445.771-2.218-.211-1.55-.067-2.272.619-3.143.491-.619.893-1.764.893-2.544 0-.776.2-1.587.442-1.798.245-.209.444-.881.444-1.49 0-1.672 1.317-5.011 1.975-5.011.319 0 .68-.527.799-1.171.164-.887.581-1.145 1.712-1.063l1.495.104v7.103c0 6.627.554 9.881 1.124 6.618.764-4.333 1.531-1.212 1.44 5.847-.074 5.841.031 7.287.553 7.568.357.189.648.902.648 1.584 0 .864.206 1.126.683.871.57-.306.665-1.468.553-6.946-.109-5.519-.021-6.583.536-6.583.522 0 .662.862.662 4.027 0 2.543.206 4.206.553 4.522.35.309.557 1.963.557 4.453 0 2.177.199 4.13.441 4.339.245.211.445 1.019.445 1.792 0 2.054.399 2.294 1.425.862.833-1.171.889-1.809.683-7.953-.126-3.676-.07-6.911.122-7.195.193-.281.417-1.208.498-2.057.367-3.819 1.477-1.594 1.698 3.405.154 3.433.392 4.935.777 4.891 1.926-.214 1.881-.079 1.881-5.529 0-3.805.164-5.374.585-5.598.451-.243.577-2.417.553-9.426-.032-9.644.977-13.632 1.52-6.015.381 5.324 1.505 4.147 1.772-1.858.171-3.853.371-4.955.886-4.955.392 0 .756-.757.889-1.855.158-1.281.466-1.834.998-1.774.672.073.77-.533.77-4.762 0-2.758.204-5.024.473-5.257.753-.65 2.185 1.613 2.185 3.459 0 1.23.21 1.669.774 1.606.666-.073.809.637.998 4.869.172 3.853.368 4.954.886 4.954.571 0 .648 1.553.546 10.922-.101 9.297-.017 10.976.554 11.282.504.271.672 1.357.672 4.371 0 2.205.207 4.184.455 4.402.273.236.337 1.306.154 2.669-.273 2.045-.234 2.19.41 1.446.792-.915 1.639-.493 1.639.82 0 1.187 1.45 1.474 2.038.401.595-1.095 1.506-.417 1.506 1.123 0 .682.294 1.099.742 1.048.445-.054.851.508 1.005 1.389.238 1.353.312 1.391.879.438.336-.574.869-.905 1.18-.738.336.18.624-.253.704-1.054.189-1.853 1.362-1.723 1.72.189l.29 1.546.459-1.574c.252-.865.777-1.944 1.17-2.399.388-.451.71-1.192.71-1.644 0-.454.326-1.082.729-1.395.602-.47.69-1.246.487-4.367-.137-2.086-.067-3.948.154-4.14.22-.19.402-1.035.402-1.878 0-.839.298-1.691.666-1.887.542-.29.648-1.48.553-6.33-.095-4.964 0-5.971.55-5.971.525 0 .711-1.167.886-5.573.175-4.402.364-5.573.889-5.573.364 0 .809-.315.988-.703.388-.84 2.91-.767 3.351.097.172.332.609.606.973.606.445 0 .739.824.886 2.477.147 1.651.445 2.478.886 2.478.508 0 .697.943.799 4.023.07 2.215.322 4.292.553 4.617.231.322.42 1.489.42 2.594 0 1.104.2 2.181.442 2.389.245.211.444 1.884.444 3.717 0 1.834.2 3.506.445 3.718.252.217.326 1.407.172 2.754-.288 2.519.651 4.674 2.041 4.674.392 0 .753.757.886 1.859.13 1.101.49 1.858.886 1.858.392 0 .753.758.886 1.859.13 1.101.49 1.856.882 1.856.368 0 .725.587.799 1.303.105 1.026.368 1.237 1.247 1.004.857-.231 1.166.003 1.355 1.022.325 1.726.5 1.676 2.209-.638 1.212-1.644 1.552-1.83 2.126-1.164.529.619.823.628 1.32.054.35-.407 1.198-.65 1.881-.54.697.114 1.46-.183 1.733-.669.595-1.067 1.506-.388 1.506 1.123 0 .963.322 1.077 2.472.856 2.199-.224 2.497-.114 2.707 1.022.249 1.322.798 1.663 1.205.742.343-.777 9.878-.874 10.218-.104.725 1.641 1.093.195 1.208-4.781.172-7.186 1.387-8.025 1.576-1.086.15 5.668 2.759 10.663 2.759 5.289 0-1.401 1.285-4.98 1.786-4.98.221 0 .273-3.648.123-8.343-.228-6.977-.165-8.401.375-8.688.528-.284.609-1.672.455-7.804-.13-5.036-.032-7.684.308-8.157.273-.382.497-1.319.497-2.083 0-.764.2-1.562.445-1.77.242-.212.441-1.846.441-3.629 0-1.787.182-3.513.406-3.835.221-.325.473-1.287.554-2.136.077-.871.437-1.549.812-1.549.494 0 .721-.963.886-3.718.182-3.051.357-3.698.995-3.629.479.054.777-.347.777-1.048 0-1.565.784-2.095 1.639-1.104.462.543 1.957.827 4.296.827h3.586l.221 4.336c.172 3.304.382 4.336.886 4.336.473 0 .707.807.805 2.786.077 1.534.326 3.052.554 3.377.227.322.413 1.637.413 2.922 0 1.739.157 2.25.62 2.001.837-.449 2.038 3.048 2.038 5.945 0 1.499.304 2.67.886 3.405.879 1.111.886 1.082.886-2.903 0-4.39 1.005-8.24 2.013-7.7.403.217.634-.313.729-1.66.164-2.38 2.122-2.948 2.552-.742.133.682.54 1.237.907 1.237.561 0 .683 1.685.785 10.755.136 11.995.308 12.799 2.759 12.787l1.548-.007.133 4.115c.109 3.478.263 4.166.995 4.434.574.208.868.849.868 1.884 0 .865.2 1.742.441 1.953.273.237.445-.785.445-2.653 0-3.131 1.163-5.687 2.185-4.803.315.274.469-1.039.469-3.983 0-3.383.158-4.475.683-4.759.578-.309.662-1.669.554-8.804-.116-7.719-.06-8.432.647-8.353.571.063.774-.379.774-1.67 0-1.303.315-1.965 1.215-2.568.806-.54 1.293-1.439 1.447-2.667.346-2.793 1.502-2.382 1.768.625.242 2.686 1.359 3.459 1.793 1.237.368-1.887 1.488-1.493 1.754.622.179 1.42.466 1.855 1.237 1.855.553 0 1.145.281 1.323.622.536 1.044 1.632.685 1.888-.622.367-1.893 1.498-1.496 1.751.622.133 1.098.493 1.855.886 1.855.493 0 .721.966.886 3.718.164 2.752.392 3.714.886 3.714.556 0 .682 1.565.784 9.688.115 9.047.182 9.707.998 10.004.721.265.875.855.875 3.357 0 3.039 0 3.039 1.66 3.001 1.51-.034 1.681.133 1.884 1.821.235 1.988 1.212 2.462 2.035.988.602-1.073 1.509-.385 1.509 1.145 0 .701.294 1.102.774 1.048.634-.073.756.366.676 2.392-.081 2.054-.032 2.241.315 1.082.231-.766.529-1.391.662-1.391.417 0 2.178 1.496 3.204 2.723 1.061 1.266 2.339.571 2.339-1.272 0-.479.287-1.025.641-1.215.543-.293.599-2.612.375-15.475-.193-10.915-.126-15.516.245-16.514.312-.836.557-5.292.623-11.291.207-18.71 1.411-13.705 1.558 6.482.071 9.679.295 16.643.554 17.003.283.397.434-.704.434-3.197 0-2.092.2-3.973.445-4.184.248-.215.441-3.194.441-6.813 0-3.62.193-6.596.445-6.814.241-.208.441-1.044.441-1.855 0-.814.2-1.65.441-1.859.245-.211.445-1.843.445-3.629s.185-3.509.41-3.834c.227-.325.476-1.565.553-2.755.192-2.894 2.266-3.282 2.5-.464.077.941.413 1.701.753 1.701.336 0 .77.35.967.773.581 1.269 2.535.947 2.808-.464.133-.681.532-1.237.886-1.237s.753-.558.886-1.24c.648-3.332 1.53-1.196 1.66 4.024.07 2.893.322 5.525.553 5.85.235.329.424 3.169.424 6.315 0 3.149.199 5.898.445 6.106.241.212.441 2.162.441 4.336 0 2.253.213 4.137.497 4.383.326.281.403 1.559.224 3.686-.217 2.572-.133 3.333.389 3.613.501.269.662 1.408.662 4.642 0 3.702.105 4.273.777 4.201.62-.073.802.498.911 2.855.098 2.09.322 2.942.784 2.942.357 0 .847.716 1.086 1.59.329 1.215.637 1.496 1.316 1.196.575-.256.977-.073 1.138.508.147.537.596.776 1.107.587.473-.17 1.138.01 1.478.404.479.555.987.426 2.265-.577 1.527-1.2 1.702-1.219 2.445-.281.745.943.805.915.945-.436.077-.792.445-1.442.809-1.442.364 0 .823-.35 1.019-.776.553-1.209 1.18-.915 1.635.763.361 1.316.613 1.484 1.786 1.155 1.149-.321 1.412-.167 1.618.941.266 1.432.806 1.713 1.271.662a.652.652 0 0 1 .911-.331c1.548.83 1.884-.189 1.628-4.923-.21-3.878-.136-4.645.476-4.973.498-.265.645-.833.47-1.805-.14-.78-.039-1.603.224-1.83.294-.253.479-2.878.479-6.757 0-3.487.19-6.608.424-6.933.231-.325.48-2.96.553-5.854.102-4.181.267-5.26.795-5.26.442 0 .739-.824.886-2.477.168-1.875.41-2.455.995-2.389.672.069.777-.496.777-4.147 0-4.601.473-5.636 1.8-3.957.641.814.858 1.909.858 4.361 0 1.799.2 3.446.441 3.654.246.212.445 2.989.445 6.195 0 5.567.676 8.719.967 4.5.311-4.522 1.467-2.335 1.467 2.777 0 3.168.171 4.8.504 4.8.277 0 1.061.404 1.741.896 1.096.798 1.292.786 1.754-.095.798-1.524 1.537-.381 1.537 2.367 0 1.591.172 2.332.473 2.07 1.152-.994 2.185 1.682 2.185 5.658 0 4.434.764 5.98.97 1.966.175-3.36 1.394-3.749 1.611-.508.214 3.087 1.726 5.356 3.491 5.233.897-.064 1.695.328 2.171 1.066.414.641.998 1.165 1.296 1.165.298 0 .799.435 1.117.965.518.881.609.881.96 0 .928-2.316 4.331.063 4.331 3.033 0 1.527.225 2.13.886 2.373.487.177.883.77.883 1.31 0 .669.403.987 1.243.987 1.607 0 2.301-1.025 2.301-3.405 0-1.057.192-2.187.423-2.509.232-.325.48-2.679.554-5.235.213-7.479 1.418-6.545 1.59 1.234.07 3.235.318 6.147.553 6.472.234.329.424 1.089.424 1.689 0 .675.234.972.609.77.431-.231.546-1.086.392-2.976-.189-2.326-.07-2.815.984-3.97 1.079-1.187 1.184-1.647 1.047-4.592-.122-2.587-.01-3.269.511-3.269.526 0 .711-1.171.886-5.576.193-4.822.326-5.56.998-5.488.634.073.774-.432.774-2.818 0-1.596.193-3.171.427-3.499.235-.325.484-3.519.554-7.091.101-5.28.252-6.495.791-6.495.494 0 .722-.962.886-3.714.165-2.755.392-3.717.886-3.717.525 0 .711-1.171.886-5.573.175-4.405.361-5.573.882-5.573.494 0 .725-.966.886-3.717.165-2.752.396-3.715.886-3.715.396 0 .757-.757.886-1.858.133-1.102.494-1.859.886-1.859.445 0 .739-.827.886-2.477.242-2.676 1.324-3.44 1.755-1.237.133.681.528 1.237.882 1.237.357 0 .757.558.886 1.24.133.682.543 1.237.907 1.237.494 0 .7.877.802 3.405.077 1.874.322 3.673.553 3.995.228.325.417 1.493.417 2.597 0 1.105.2 2.178.441 2.389.245.211.445 1.439.445 2.73 0 2.833 1.422 7.311 1.691 5.32.277-2.057.876-2.474 1.825-1.272.868 1.102.879 1.054 1.005-4.692.185-8.268 1.355-8.429 1.681-.227.175 4.402.36 5.573.886 5.573.539 0 .686 1.215.791 6.494.07 3.572.319 6.763.553 7.091.235.328.428 1.499.428 2.603 0 1.105.199 2.181.444 2.392.242.209.442 1.323.442 2.471 0 1.812.161 2.118 1.201 2.285.753.123 1.288.659 1.439 1.436.129.681.539 1.24.903 1.24.449 0 .708.754.802 2.323.14 2.341.196 2.401 2.522 2.568.714.054.91.565 1.019 2.66.098 1.894.301 2.512.739 2.279.374-.202.878.483 1.33 1.814.904 2.67 2.133 2.73 2.451.12.155-1.281.463-1.83.995-1.77.606.073.774-.41.774-2.228 0-1.512.301-2.692.872-3.414.742-.941.889-2.061.994-7.681.109-5.741.221-6.57.876-6.501.452.044 1.04-.773 1.478-2.061.455-1.347.952-2.016 1.337-1.811.487.262.638-.827.739-5.371.221-9.95 1.422-7.94 1.579 2.648.109 7.397.981 13.676.981 7.071 0-1.36.193-2.742.424-3.064.231-.325.479-2.679.553-5.235.175-6.103 1.338-6.744 1.684-.928.291 4.929 1.772 5.75 1.772.985 0-1.597.186-3.168.417-3.494.235-.321.48-2.398.557-4.613.245-7.356 1.418-5.415 1.684 2.786.179 5.507.347 6.813.883 6.813.521 0 .693 1.02.795 4.734.112 4.099.245 4.778.998 5.052.717.262.865.859.865 3.453 0 1.988.325 3.944.885 5.342.557 1.382.886 3.351.886 5.283 0 3.244.729 4.279.967 1.372.41-4.995 1.471-1.581 1.586 5.11.133 7.772.61 10.353.97 5.266.326-4.585 1.457-4.777 1.825-.309.14 1.701.238-1.363.22-6.813-.028-8.416.07-9.909.634-9.909.392 0 .753-.757.883-1.859.133-1.101.493-1.858.886-1.858.532 0 .71-1.237.886-6.192.192-5.412.318-6.182.998-6.109.476.054.773-.347.773-1.045 0-1.53.907-2.221 1.506-1.148.27.479.788.871 1.152.871.494 0 .722.962.886 3.714.165 2.752.392 3.717.886 3.717.392 0 .753.754.886 1.856.13 1.101.49 1.859.883 1.859.532 0 .69 1.095.795 5.418.126 5.349.325 6.084 1.295 4.73.809-1.13 1.453-.016 1.453 2.515 0 1.875.165 2.354.774 2.285.533-.06.841.492.995 1.773.907 7.473 1.775 1.853 1.775-11.489 0-13.608.263-15.855 1.552-13.387.84 1.606 1.106.546 1.106-4.392 0-4.046.105-4.639.869-4.917.753-.275.886-.953.998-5.052.213-7.871 1.418-6.624 1.583 1.638.101 5.206.98 9.186.98 4.449 0-.65.392-2.158.868-3.348.652-1.625.9-3.591.998-7.915.204-9.328 1.384-8.148 1.678 1.682.22 7.432.22 7.432 1.327 7.432h1.107l.224-12.386c.287-16.223 1.4-18.363 1.772-3.408.192 7.924.514 9.864.973 5.885.291-2.499 1.453-1.369 1.6 1.546.081 1.534.326 3.052.554 3.377.227.322.413 3.459.413 6.968 0 3.837.179 6.377.445 6.377.241 0 .441-.549.441-1.218 0-.672.392-2.196.868-3.386.655-1.625.9-3.591.998-7.914.147-6.706 1.261-8.47 1.678-2.654.154 2.155.417 3.096.865 3.096.353 0 .753.558.886 1.24.133.681.542 1.237.907 1.237.507 0 .697.943.798 4.026.07 2.213.322 4.289.553 4.614.231.322.421 4.279.421 8.789 0 4.799.182 8.359.441 8.583.245.208.445 1.326.445 2.477 0 1.152.199 2.266.441 2.478.245.208.445 2.145.445 4.298 0 3.395.115 3.96.882 4.241.725.265.886.846.886 3.133 0 1.544.2 2.979.445 3.191.241.208.448.994.455 1.739.021 1.748.928 3.401 1.677 3.048.322-.151.69.309.827 1.029.276 1.483.62 1.625 1.376.571.406-.568.76-.426 1.555.618.945 1.241 1.488 1.354 6.415 1.354h5.386l-.27-5.794c-.199-4.2-.126-5.917.259-6.251.96-.83 2.196 1.502 2.403 4.525.108 1.581.105-5.074-.011-14.79-.203-17.287-.189-17.691.711-18.83.805-1.017.921-1.881.921-6.829 0-3.115.193-5.93.424-6.258.234-.325.483-3.238.556-6.469.162-7.394 1.293-8.634 1.695-1.853.228 3.917.697 4.065.96.31.217-3.083 1.432-2.373 1.597.927.08 1.534.325 3.052.553 3.377.231.322.417 1.212.417 1.975 0 1.881.788 2.449.963.695.196-1.903 1.435-1.793 1.621.148.081.852.329 1.811.553 2.136.224.322.406 1.338.406 2.254 0 1.205.214 1.641.774 1.577.589-.063.83.518.998 2.392.147 1.651.442 2.478.886 2.478.435 0 .711.741.806 2.168.08 1.192.329 2.433.553 2.755.228.325.413 1.492.413 2.597 0 1.104.2 2.177.442 2.389.245.211.441 1.325.441 2.477s.213 2.278.472 2.499c.323.281.372 4.358.155 13.042-.214 8.682-.169 12.636.15 12.636.298 0 .441-2.367.399-6.656-.059-5.547.039-6.658.596-6.658.563 0 .647 1.218.549 7.896-.059 4.345.06 7.898.274 7.898.213 0 .364-1.047.336-2.322-.039-1.686.133-2.323.613-2.323.483 0 .651.637.616 2.329-.042 1.985.049 2.215.599 1.571.521-.605.756-.568 1.159.202.28.527.735.852 1.019.72.283-.136.644.054.802.407.171.394 2.213.653 5.112.653h4.822l.133-3.559c.137-3.677 1.293-5.233 1.604-2.159.214 2.099.967 1.004.967-1.404 0-2.72.693-3.254 1.996-1.543.578.757 1.667 1.42 2.423 1.47.984.073 1.534.537 1.923 1.635.812 2.285 2.412 2.395 2.594.18.193-2.345 1.38-2.266 1.758.117.165 1.022.186-2.525.053-7.88-.228-8.842-.179-9.776.515-10.149.693-.372.753-1.48.619-11.938-.122-9.924-.049-11.528.522-11.528.364 0 .883-.391 1.152-.867.806-1.442 1.506-.158 1.506 2.761 0 2.174.161 2.771.774 2.843 2.437.287 2.546.224 2.77-1.641.375-3.133 1.516-2.335 1.772 1.24.157 2.203.413 3.096.886 3.096.392 0 .753.757.886 1.859.129 1.101.49 1.858.886 1.858.469 0 .728.894.882 3.096.154 2.156.42 3.096.869 3.096.353 0 .753.559.882 1.24.133.682.543 1.237.907 1.237.368 0 .728.612.806 1.36.087.884.357 1.24.77 1.02.347-.187.749.088.893.615.147.53.553.798.917.603.414-.224.743.11.89.908.276 1.468 1.768 2.232 2.087 1.07.27-.981 3.029-.864 3.267.136.102.398.438.581.764.404.325-.174.724-.016.885.347.508 1.146 1.895.723 2.154-.66.165-.88.476-1.196.939-.946.528.281.689-.054.689-1.433 0-2.177.823-3.064 1.552-1.669.29.558.676.811.854.558.179-.249.557-.034.841.48.654 1.18 3.459 1.221 4.104.063.269-.48.704-.685.97-.458.301.262.532-.34.62-1.609.087-1.3.378-2.023.801-2.023.445 0 .739-.823.886-2.461.232-2.544 2.557-3.869 3.443-1.957.178.385.623.701.987.701.368 0 .729.612.806 1.36.087.884.357 1.24.767 1.022.402-.217.798.275 1.096 1.364.43 1.587.5 1.628 1.043.587.701-1.338 1.604-.739 1.604 1.063 0 1.247.042 1.256.858.215 1.233-1.559 1.8-.704 1.8 2.72 0 2.468.136 2.976.774 2.903.588-.063.83.518.998 2.392.147 1.651.441 2.477.886 2.477.441 0 .739.827.886 2.478.147 1.65.441 2.477.886 2.477.364 0 .725.612.802 1.36.087.836.367 1.237.731 1.041.326-.173.722-.019.883.344.161.363.784.66 1.387.66.602 0 1.194.356 1.313.789.136.501.973.757 2.311.7 3.134-.132 3.201-.164 3.201-1.369 0-1.534 2.188-7.552 2.749-7.552.273 0 .339-.827.168-2.108-.231-1.729-.098-2.316.725-3.253.914-1.032.998-1.572.861-5.677-.137-4.144-.07-4.56.763-4.867.851-.309.918-.855 1.033-8.16.102-6.469.242-7.829.788-7.829.561 0 .701-1.79.886-11.149.186-9.357.33-11.146.886-11.146.519 0 .715-1.102.886-4.955.172-3.853.368-4.954.886-4.954.525 0 .711-1.171.886-5.573.172-4.405.361-5.576.883-5.576.546 0 .703-1.445.886-8.05.182-6.605.343-8.05.886-8.05.518 0 .714-1.102.886-4.955.171-3.853.371-4.954.885-4.954.365 0 .883-.392 1.153-.868.266-.48.707-.679.977-.445.336.29.528-.985.619-4.087l.13-4.509h3.103l.129 4.645c.07 2.553.322 4.907.557 5.232.231.325.42 1.493.42 2.597 0 1.105.2 2.178.441 2.389.246.212.445 1.048.445 1.859 0 3.026.844 2.101.974-1.07.147-3.616 2.819-5.191 3.435-2.026.133.682.539 1.237.907 1.237.473 0 .728.893.886 3.096.157 2.203.413 3.099.886 3.099.522 0 .707 1.167.882 5.573.175 4.402.364 5.573.886 5.573.539 0 .69 1.215.792 6.494.07 3.572.322 6.763.556 7.091.232.328.424 1.903.424 3.499 0 2.386.14 2.891.778 2.818.682-.069.798.726.994 6.728.179 5.504.35 6.814.886 6.814.445 0 .739.823.886 2.477.147 1.65.445 2.477.886 2.477 1.264 0 1.737-1.976 1.866-7.814.133-6.011 1.145-8.406 1.678-3.954.332 2.806 1.502 2.399 1.772-.618.353-3.954 1.516-3.31 1.684.928.081 1.874.326 3.67.557 3.995.227.322.417 1.174.417 1.887 0 .716.192 1.571.427 1.9.234.328.483 3.799.553 7.709l.126 7.113h1.551c1.552 0 1.552 0 1.688 3.408.077 1.871.322 3.67.554 3.992.227.325.416 1.215.416 1.979 0 .76.2 1.558.445 1.77.242.208.441 1.044.441 1.855 0 .815.2 1.651.442 1.859.259.224.444 3.594.444 8.016 0 8.119 1.489 12.72 1.86 5.746.15-2.878 1.043-3.727 1.635-1.556.217.808.718 1.84 1.11 2.294.511.597.711 1.897.711 4.68 0 6.47 1.681 7.808 1.859 1.484.158-5.438 1.352-6.763 1.601-1.774.08 1.534.325 3.052.553 3.373.228.325.417 1.455.417 2.509 0 3.121 3.186 4.895 4.783 2.664.413-.578.648-.578 1.061 0 .645.899 2.854.984 3.236.123.151-.341.735-.619 1.299-.619 1.471 0 1.951-1.126 2.105-4.973.203-4.948 1.383-4.753 1.688.281.241 3.992 1.05 5.178 1.758 2.575.241-.878.633-1.597.872-1.597.269 0 .336-1.534.171-4.011-.235-3.474-.164-4.068.515-4.434.725-.388.76-1.193.469-10.473-.319-10.171-.031-12.453 1.264-10.13.27.476.785.868 1.149.868.382 0 .767.782.914 1.858.14 1.023.241-1.764.227-6.194-.031-7.299.039-8.041.746-7.965.683.072.774-.552.774-5.381 0-5.497.498-7.296 1.51-5.478.266.483 1.173.874 2.017.871 1.155-.006 1.586.297 1.772 1.234.133.682.539 1.237.903 1.237.445 0 .739.827.886 2.477.147 1.651.445 2.477.886 2.477.396 0 .756.758.886 1.859.129 1.101.494 1.859.886 1.859.459 0 .704.763.791 2.477.186 3.686.641 4.727.946 2.165.157-1.354.504-2.165.921-2.165.364 0 .882-.391 1.152-.871.266-.476.7-.682.963-.454.28.239.539-.174.62-.988.08-.773.441-1.404.809-1.404.364 0 .773-.559.907-1.237.129-.682.528-1.241.882-1.241.469 0 .707-1.019.868-3.714.161-2.755.393-3.717.886-3.717.393 0 .753-.758.886-1.859.13-1.101.491-1.855.883-1.855.494 0 .721-.966.889-3.718.161-2.752.392-3.714.883-3.714.507 0 .718-1.035.886-4.336.168-3.304.378-4.336.886-4.336.441 0 .739-.827.886-2.477.147-1.651.441-2.477.886-2.477.504 0 .714-1.032.886-4.336.168-3.301.378-4.333.882-4.333.368 0 .774-.559.907-1.24.133-.682.532-1.237.886-1.237.42 0 .721-.865.865-2.477.168-1.878.41-2.459.998-2.392.637.069.774-.433.774-2.818 0-1.597.182-3.169.406-3.494.224-.322.473-1.284.553-2.136.081-.871.438-1.55.813-1.55.493 0 .721-.962.886-3.714.164-2.752.395-3.717.886-3.717.367 0 .886-.388 1.152-.868.931-1.666 1.505-.054 1.505 4.244 0 3.639.109 4.216.771 4.144.532-.063.844.489.998 1.77.259 2.124 1.425 2.528 1.796.619.533-2.727 1.524-1.323 1.751 2.477.165 2.755.396 3.717.886 3.717.553 0 .687 1.486.788 8.965.07 4.933.315 9.24.553 9.572.239.328.431 2.742.431 5.361 0 4.156.098 4.753.774 4.677.693-.082.798.782.998 7.965.242 8.801 1.289 11.726 1.772 4.954.434-6.078 1.52-3.995 1.775 3.405.2 5.772.288 6.312.764 4.8.623-1.963 1.218-2.165 1.838-.618.575 1.432.865.34 1.037-3.873.087-2.262.301-3.095.788-3.095.504 0 .714-1.032.886-4.336.22-4.371 1.173-6.053 1.751-3.096.133.682.539 1.24.907 1.24.504 0 .714 1.032.882 4.333.172 3.304.382 4.336.886 4.336.501 0 .7.89.798 3.563.137 3.676.809 4.86 1.054 1.855.281-3.389 1.454-1.994 1.692 2.014.322 5.377 1.772 5.655 1.772.337 0-2.726.199-3.802.858-4.639 1.082-1.369 1.8-.779 1.8 1.484 0 1.262.21 1.726.745 1.666.41-.044.855.47.995 1.152.14.681.543 1.24.896 1.24.354 0 .753.555.886 1.237.133.681.54 1.24.907 1.24.414 0 .715.697.795 1.856.221 3.18.662 3.906.942 1.549.666-5.623 1.587-2.389 1.587 5.573 0 5.901.147 7.902.619 8.419.498.546.575 2.285.382 8.827-.168 5.825-.087 8.173.266 8.239.277.054.9.117 1.39.155.557.035.935.568 1.023 1.42.091.884.361 1.24.77 1.022.389-.208.785.221 1.037 1.117.221.802.97 2.209 1.667 3.128l1.26 1.669v-8.482c0-8.262 1.03-12.825 1.468-6.504.098 1.42.315 1.884.77 1.638.413-.221.546-.84.382-1.755-.14-.779-.039-1.603.224-1.83.294-.253.48-2.904.48-6.845 0-3.616.192-6.595.441-6.81.245-.211.445-1.01.445-1.773 0-.761.185-1.651.416-1.976.231-.322.48-2.12.554-3.995.112-2.799.273-3.389.91-3.32.616.073.778-.407.778-2.284 0-2.661.752-3.765 1.54-2.257.477.906.585.909 1.219.016.837-1.164 1.67-.615 1.67 1.104 0 .777.189 1.073.508.799.284-.243.728-.054.998.426.27.476.778.868 1.131.868.354 0 .753.558.886 1.24.133.682.539 1.237.907 1.237.364 0 .725.612.802 1.36.088.884.361 1.24.77 1.019.351-.186.75.089.897.616.143.524.511.817.819.656.305-.167.834.167 1.173.738.564.953.638.919.865-.435.137-.811.54-1.477.893-1.477.354 0 .753-.555.886-1.237.431-2.203 1.513-1.436 1.751 1.237.242 2.686 1.359 3.459 1.793 1.24.133-.681.532-1.24.886-1.24s.876-.416 1.163-.928c.283-.511.662-.722.84-.473.179.249.592-.025.921-.619.529-.949.662-.965 1.152-.145.305.512.855.928 1.219.928.504 0 .718 1.032.886 4.336.238 4.689 1.327 6.21 1.772 2.477.336-2.808 1.502-2.398 1.772.619.203 2.288.322 2.474 1.551 2.42 1.789-.079 2.224.505 3.764 5.011.725 2.124 1.601 4.194 1.951 4.598.49.568.599 2.083.476 6.738-.091 3.417-.031 4.938.147 3.528.554-4.507 1.646-3.213 1.566 1.858-.039 2.661.049 3.617.227 2.478.347-2.206 1.548-2.49 1.758-.414.14 1.367.193 1.389.97.404.935-1.183 1.765-.764 1.765.89 0 .896.305 1.079 1.576.94.97-.107 1.663.13 1.796.613.238.871 2.238.596 3.173-.436.308-.344.69-.451.84-.237.154.215.547-.094.876-.688.525-.946.662-.962 1.152-.145.97 1.629 2.105 1.31 2.105-.59 0-.931.395-2.199.882-2.815.49-.615.886-1.505.886-1.972 0-.47.298-1.013.662-1.209.437-.233.574-.836.406-1.77-.14-.779-.039-1.603.224-1.83.263-.227.48-1.051.48-1.831 0-.776.399-1.918.886-2.534.487-.618.886-1.732.886-2.477 0-.748.385-1.849.858-2.445.476-.6.924-1.828.998-2.73.08-.959.409-1.638.798-1.638.396 0 .757-.76.893-1.859.154-1.281.462-1.83.995-1.77.476.054.774-.35.774-1.048 0-1.663.927-2.186 1.603-.899.543 1.038.613.997 1.044-.59.305-1.114.686-1.581 1.113-1.354.55.294.666-1.259.767-10.309.126-11.134 1.103-15.542 1.674-7.565l.221 3.099h1.992c1.993 0 1.993 0 2.214 2.477.15 1.651.444 2.478.885 2.478.473 0 .729.893.886 3.095.158 2.203.414 3.096.886 3.096.365 0 .729.631.806 1.404.08.818.343 1.228.623.988.263-.227.697-.025.963.455.266.479.785.87 1.152.87.441 0 .739.824.886 2.478.238 2.682 1.359 3.458 1.79 1.237.133-.682.532-1.237.886-1.237.353 0 .865-.392 1.131-.871.266-.477.704-.679.97-.448.315.271.532-.508.623-2.228.144-2.831 1.212-3.733 1.667-1.408.133.682.539 1.237.907 1.237.392 0 .753.758.886 1.859.129 1.101.49 1.859.886 1.859.423 0 .711.716.798 1.978.102 1.42.319 1.884.774 1.638.347-.186.749.092.893.615.147.524.546.802.886.619.343-.183.742.095.886.619.147.527.515.82.819.656.309-.164.816.136 1.131.666.515.868.634.855 1.177-.126.55-.991.658-1.001 1.159-.108.305.54.806.865 1.11.723.305-.145.676.192.83.745.252.921.343.918 1.11-.045.459-.58.956-.88 1.11-.669.154.215.648-.265 1.096-1.066.89-1.581 3.492-1.919 3.831-.496.098.42.393.581.655.354.259-.224.69-.016.956.461.27.479.778.87 1.131.87.358 0 .757.556.886 1.238.133.681.543 1.24.907 1.24.473 0 .729.893.886 3.095.158 2.203.413 3.096.886 3.096.49 0 .722.963.886 3.718.161 2.751.392 3.714.883 3.714.465 0 .707.786.802 2.6.101 2.017.283 2.518.798 2.241.434-.231.753.104.914.962.157.836.599 1.319 1.215 1.319.532 0 1.156.256 1.387.568.728.982 2.616 1.029 3.141.079.431-.77.616-.779 1.233-.063.665.773.717.48.602-3.364-.133-4.44.585-6.138 1.397-3.307.301 1.054.392.098.333-3.509-.07-4.043.038-4.955.581-4.955.515 0 .714-1.101.886-4.954.189-4.232.333-4.942.995-4.866.616.069.777-.407.777-2.288 0-1.303.2-2.544.441-2.755.245-.211.441-2.985.441-6.191 0-6.018.491-7.713 1.608-5.573.704 1.344.956.659 1.148-3.099.119-2.383.182-2.477 1.674-2.477h1.551l.221 4.335c.168 3.304.382 4.336.886 4.336.396 0 .756.758.886 1.859.238 1.988 1.212 2.462 2.038.988.599-1.073 1.506-.385 1.506 1.145 0 .701.298 1.102.774 1.048.557-.063.812.442.907 1.774.262 3.755.732 3.603.959-.31.399-6.766 1.534-5.544 1.695 1.824.07 3.216.336 6.195.588 6.621.295.498.365 3.907.197 9.631-.186 6.251-.13 8.438.189 7.416.245-.795.696-1.326 1.001-1.184.305.146.774-.154 1.044-.662.725-1.379 1.505-.319 1.505 2.051 0 1.818.158 2.114 1.219 2.285 1.1.176 1.212.423 1.166 2.524-.038 1.812.07 2.184.508 1.679.406-.467 1.012-.297 2.171.612 2.255 1.771 2.343 1.679 2.112-2.187-.116-1.953.01-4.039.297-4.799.301-.808.547-5.548.613-11.828.105-10.07.718-13.992 1.52-9.713.658 3.525 1.015.246 1.128-10.31.119-11.568 1.162-17.365 1.586-8.826.08 1.533.326 3.051.553 3.376.231.325.417 2.301.417 4.393 0 3.02.182 4.039.886 4.929.672.849.882 1.906.882 4.393 0 1.802.2 3.446.445 3.657.242.209.441 2.717.441 5.573 0 2.856.2 5.365.445 5.573.242.212.448 1.275.455 2.361.021 2.253.83 4.067 1.65 3.682.304-.145.731.389.949 1.184.255.937.311-.354.157-3.683-.217-4.62-.147-5.267.69-6.513.767-1.143.952-2.31 1.061-6.64.126-5.071 1.166-7.696 1.59-4.014.361 3.128.742 2.755.959-.928.179-3.02.403-4.026.904-4.026.49 0 .721-.963.886-3.718.224-3.799 1.218-5.203 1.751-2.477.371 1.909 1.537 1.505 1.789-.618.133-1.102.494-1.859.886-1.859.396 0 .756.757.886 1.859.133 1.101.494 1.858.886 1.858.511 0 .693.96.795 4.182.14 4.478.833 5.693 1.061 1.855.172-2.903 1.401-3.26 1.597-.464.224 3.222.48 3.749 1.169 2.427.585-1.12.652-1.123 1.475-.082.476.6 1.173.925 1.554.719.484-.258.907.272 1.419 1.771.42 1.237 1.026 2.105 1.442 2.057.4-.044.834.477.974 1.158.14.682.55 1.241.917 1.241.365 0 .722.561.792 1.249.108 1.061.431 1.234 2.157 1.152 1.653-.082 2.073.123 2.248 1.073.235 1.24.792 1.531 1.194.622.48-1.092 3.085-.411 3.334.874.133.672.539 1.221.903 1.221.393 0 .722.685.802 1.66.235 2.843 1.303 3.421 1.244.669-.06-2.764 2.741-3.705 3.249-1.089.158.811.62 1.237 1.331 1.237s1.17.429 1.327 1.241c.133.681.543 1.237.907 1.237.455 0 .637.555.578 1.754-.07 1.442.017 1.625.532 1.029.764-.884 1.548-.3 1.548 1.155 0 1.341 1.74 1.407 2.857.11.687-.792.844-.792 1.289 0 .953 1.707 1.821 1.042 2.056-1.571.189-2.146.367-2.477 1.327-2.477 1.075 0 1.11-.136 1.239-4.863.113-4.226.242-4.907.995-5.182.686-.252.868-.858.868-2.91 0-1.423.186-2.855.421-3.177.227-.325.476-2.402.553-4.614.214-6.466 1.394-5.604 1.691 1.237.358 8.151.858 4.532.984-7.122.161-14.747 1.324-15.611 1.667-1.237.287 12.133 1.404 13.695 1.772 2.477.252-7.807 1.415-10.155 1.685-3.405.08 1.871.325 3.67.553 3.992.231.325.42 1.215.42 1.978 0 .761.2 1.559.441 1.771.284.243.445-1.613.445-5.131 0-4.671.13-5.684.854-6.602 1.135-1.433 1.8-.757 1.8 1.824 0 3.856.841 2.938.977-1.067.235-6.898 1.433-5.276 1.587 2.149.171 8.123.921 7.691 1.078-.618.14-7.517 1.226-9.824 1.674-3.56.231 3.244 1.306 4.358 1.793 1.856.557-2.853 1.527-1.304 1.663 2.651.077 2.433.298 3.742.582 3.499 1.208-1.044 2.164 1.733 2.164 6.296 0 2.483.196 4.68.434 4.888.273.237.476-3.986.553-11.575.14-14.125 1.236-17.896 1.671-5.759.178 4.954.353 6.194.886 6.194.455 0 .739.875.91 2.787.245 2.786.245 2.786.778 1.032.616-2.029 1.484-1.913 1.891.252.283 1.502.283 1.502.791-.252 1.159-4.008 1.607-1.524 1.73 9.634.112 10.237.171 10.89.998 11.193.711.259.875.852.875 3.165 0 3.068.736 3.939.967 1.143.262-3.203 1.443-2.039 1.723 1.701.343 4.569.802 6.194 1.744 6.194.434 0 1.926.837 3.316 1.859l2.525 1.856h28.277c18.374 0 28.375.217 28.55.618.161.36 2.591.622 5.785.622 5.218 0 5.512.06 5.512 1.237 0 1.227-.298 1.24-34.717 1.24-30.102 0-34.787.12-35.26.915-.756 1.275-3.13 2.856-3.631 2.42-1.002-.864-2.136 1.793-2.136 4.996 0 1.751-.182 3.452-.403 3.774-.224.325-.473 1.288-.557 2.137-.077.871-.438 1.549-.812 1.549-.441 0-.739.827-.886 2.477-.147 1.651-.441 2.477-.886 2.477-.546 0-.701 1.515-.883 8.672-.217 8.445-1.267 12.711-1.68 6.81-.235-3.364-.697-3.812-.953-.928-.168 1.91-.455 2.787-.91 2.787-.508 0-.718 1.032-.886 4.336-.26 5.068-1.38 6.245-1.772 1.858-.147-1.644-.445-2.477-.883-2.477-.385 0-.753-.77-.889-1.858-.448-3.626-3.176-2.235-3.639 1.858-.077.682-.427 1.237-.777 1.237-.35 0-.746-.558-.879-1.237-.609-3.121-2.549-.694-2.759 3.453-.19 3.667-1.412 3.868-1.597.262-.231-4.548-.732-4.39-.967.309-.399 7.949-1.506 6.412-1.786-2.477-.259-8.136-.812-7.962-.987.309-.14 6.548-1.257 8.211-1.671 2.477-.241-3.402-2.122-4.705-2.675-1.859-.669 3.437-1.534 1.177-1.653-4.332-.217-9.875-1.586-11.916-1.87-2.79-.332 10.672-1.46 10.281-1.775-.619-.203-7.021-.641-8.829-.974-4.023-.241 3.449-1.442 2.285-1.597-1.549-.077-1.875-.322-3.671-.553-3.996-.227-.321-.417-1.637-.417-2.922 0-1.284-.399-3.326-.886-4.541-.486-1.212-.885-2.587-.885-3.054 0-4.914-5.656-8.338-6.202-3.756-.13 1.098-.49 1.856-.886 1.856-.441 0-.739.827-.886 2.477-.165 1.878-.41 2.458-.995 2.392-.563-.063-.774.376-.774 1.606 0 2.149-1.173 3.572-2.882 3.49-.977-.047-1.39.262-1.568 1.178-.781 4.02-1.531 1.06-1.531-6.034 0-6.27-.098-7.277-.71-7.277-.62 0-.708 1.032-.666 7.899.039 6.633-.059 7.895-.616 7.895-.368 0-.9.417-1.184.928-.283.511-.662.722-.84.473-.179-.249-.564.003-.855.562-1.029 1.963-1.551.259-1.551-5.059 0-7.624-.826-7.251-.98.442-.102 5.169-.253 6.368-.792 6.368-.364 0-.774.559-.907 1.24-.669 3.431-3.292 1.531-3.425-2.477-.199-6.138-.732-5.967-.977.31-.182 4.673-.364 5.882-.893 5.882-.364 0-.882.391-1.152.871-.266.476-.7.681-.963.454-.28-.24-.539.174-.623.988-.319 3.162-1.467 1.499-1.593-2.313-.217-6.608-.75-5.763-.981 1.549l-.224 7.123h-1.551c-1.173 0-1.608.299-1.793 1.237-.876 4.509-1.534.956-1.65-8.963-.07-5.614-.318-10.476-.556-10.808-.28-.391-.431 3.339-.431 10.632 0 11.196-.298 13.415-1.506 11.243-.599-1.079-3.425-1.155-4.03-.11-.729 1.253-3.912.659-4.192-.783-.13-.666-.529-1.208-.883-1.208-.353 0-.752-.559-.886-1.24-.133-.682-.539-1.238-.907-1.238-.574 0-.658-2.092-.63-15.298.032-15.034.021-15.302-.886-15.485-.728-.145-.97-.758-1.166-2.97-.298-3.338-.781-2.24-.956 2.168-.101 2.509-.273 3.08-.9 3.011-.693-.082-.774.612-.774 6.62 0 3.803-.192 6.873-.445 7.091-.241.208-.441 1.995-.441 3.967 0 3.995-1.057 7.769-2.031 7.245-.494-.265-.627 1.521-.728 9.714-.217 18.031-1.418 14.121-1.569-5.116-.07-8.851-.298-15.406-.553-15.759-.238-.335-.434-1.08-.434-1.654 0-.618-.319-1.013-.774-.962-.701.082-.788-.78-.9-8.88-.07-4.933-.316-9.237-.554-9.568-.238-.332-.43-2.061-.43-3.847 0-3.689-.126-3.904-2.08-3.49-1.132.239-1.44.628-1.548 1.94-.112 1.329-.396 1.673-1.517 1.824l-1.383.19.053 4.765c.038 3.856-.081 4.768-.613 4.768-.396 0-.756.757-.893 1.855-.154 1.282-.462 1.834-.995 1.774-.609-.073-.77.41-.77 2.285 0 1.306-.2 2.543-.445 2.755-.248.214-.441 3.225-.441 6.907 0 5.98-.07 6.552-.879 6.845-.833.306-.882.956-.994 13.102-.112 11.954-.935 17.859-1.59 11.421-.088-.884-.357-1.24-.771-1.019-.346.189-.756-.105-.903-.65-.151-.543-.48-.808-.735-.587-.256.22-.683.009-.949-.467-.27-.48-.788-.871-1.153-.871-.504 0-.693-.9-.787-3.715-.218-6.608-.75-5.765-.981 1.547-.182 5.778-.35 7.122-.889 7.122-.442 0-.739.827-.886 2.477-.147 1.654-.442 2.477-.886 2.477-.365 0-.771.559-.904 1.241-.431 2.202-1.513 1.435-1.754-1.241-.147-1.65-.441-2.477-.883-2.477-.556 0-.704-1.72-.886-10.527-.185-8.808-.332-10.528-.886-10.528-.525 0-.71-1.17-.886-5.572-.175-4.406-.36-5.577-.886-5.577-.472 0-.728-.893-.885-3.095-.158-2.203-.414-3.096-.886-3.096-.568 0-.652-1.556-.571-10.799.087-10.212.038-10.843-.802-11.673-.494-.482-1.072-1.517-1.285-2.3-.357-1.319-2.655-2.029-2.658-.821 0 .654-2.718 2.389-3.155 2.011-.214-.183-.389.183-.389.817 0 .631-.186 1.414-.41 1.739-.227.325-.476 1.562-.553 2.755-.091 1.426-.371 2.168-.809 2.168-.392 0-.753.757-.882 1.858-.133 1.102-.494 1.859-.886 1.859-.526 0-.711 1.168-.886 5.573-.193 4.822-.326 5.56-.998 5.488-.655-.073-.774.46-.774 3.436 0 1.938-.186 3.787-.41 4.112-.228.325-.476 1.562-.557 2.755-.087 1.426-.367 2.168-.805 2.168-.396 0-.757.757-.886 1.859-.13 1.101-.494 1.858-.886 1.858s-.753.754-.886 1.856c-.13 1.101-.49 1.859-.886 1.859-.364 0-.91.419-1.215.93-.494.824-.616.824-1.11-.009-1.149-1.947-5.386-1.243-5.645.937-.133 1.102-.494 1.859-.886 1.859-1.033 0-1.702 1.691-1.853 4.689-.101 1.938-.336 2.743-.805 2.743-.441 0-.739.823-.886 2.477-.147 1.65-.445 2.477-.886 2.477-.494 0-.721.962-.886 3.714-.164 2.752-.392 3.718-.886 3.718-.364 0-.882.391-1.148.867-.27.477-.704.682-.967.455-.277-.24-.536.17-.62.975-.157 1.537-2.742 2.215-3.361.88-.179-.385-.624-.7-.988-.7-.508 0-.718-1.032-.886-4.336-.224-4.383-1.208-6.084-1.793-3.096-.133.682-.529 1.237-.886 1.237-.42 0-.721.865-.865 2.477-.269 3.02-1.436 3.428-1.772.619-.129-1.101-.49-1.856-.886-1.856-.392 0-.753.755-.882 1.856-.133 1.101-.494 1.859-.886 1.859-.473 0-.728.896-.886 3.095-.389 5.409-1.527 4.141-1.67-1.855-.186-7.732-.736-7.558-.984.309-.228 7.233-1.198 10.108-1.776 5.264-.129-1.102-.494-1.859-.886-1.859-.532 0-.707-1.237-.886-6.191-.255-7.123-1.348-9.032-1.772-3.099-.357 4.998-1.491 4.206-1.772-1.237l-.22-4.336h-1.552c-1.474 0-1.558-.117-1.771-2.477-.148-1.651-.442-2.478-.883-2.478-.473 0-.728-.893-.886-3.095-.157-2.203-.413-3.096-.886-3.096-.508 0-.718-1.035-.886-4.336-.168-3.304-.381-4.336-.886-4.336-.518 0-.714-1.101-.886-4.954-.171-3.853-.367-4.955-.886-4.955-.539 0-.704-1.376-.886-7.431-.178-6.056-.343-7.432-.882-7.432-.56 0-.655-1.196-.599-7.432.039-4.086-.059-6.605-.224-5.592-.308 1.957-2.78 2.904-3.505 1.342-.449-.969-1.555-.881-2.14.164-.543.969-1.506.435-1.506-.837 0-1.17-2.56-1.596-2.868-.476-.133.486-.525.729-.875.543-.455-.246-.673.217-.771 1.638-.115 1.647-.322 1.978-1.246 1.978-1.002 0-1.128.29-1.327 3.099-.158 2.2-.414 3.096-.886 3.096-.365 0-.774.558-.907 1.237-.463 2.382-1.52 1.41-1.671-1.534-.08-1.527-.329-3.089-.553-3.474-.228-.382-.291-1.572-.137-2.645.183-1.281.102-1.944-.234-1.944-.375 0-.476 3.756-.385 14.087.105 12.188.028 14.09-.543 14.09-.539 0-.704 1.376-.886 7.432-.179 6.056-.343 7.432-.883 7.432-.367 0-.9.416-1.19.928-.68 1.208-1.345.29-1.569-2.168l-.172-1.856-.532 1.751c-.578 1.916-1.471 1.944-1.842.064-.48-2.459-1.551-1.316-1.782 1.906-.158 2.199-.413 3.095-.886 3.095-.473 0-.729.893-.886 3.096-.217 3.067-.235 3.096-1.772 3.096h-1.548l-.224-8.978c-.245-9.978-.805-10.505-.988-.931-.129 6.721-1.19 9.085-1.67 3.717-.147-1.653-.441-2.477-.882-2.477-.519 0-.694-.997-.795-4.509-.091-3.102-.284-4.377-.624-4.087-.269.234-.707.035-.977-.445-.266-.476-.784-.868-1.148-.868-.466 0-.708-.792-.802-2.647-.175-3.415-.97-2.768-.97.789 0 2.887-.704 4.162-1.506 2.726-.732-1.3-2.038-1.243-2.038.092 0 1.609-.921 2.202-1.551 1.003-.291-.558-.676-.811-.855-.562-.178.25-.602-.079-.942-.722-.732-1.405-.984-.755-1.176 3.035-.091 1.714-.333 2.478-.792 2.478-.364 0-.774.558-.907 1.24-.133.681-.521 1.237-.865 1.237-.343 0-.732-.556-.865-1.237-.133-.682-.539-1.24-.907-1.24-.364 0-.773.558-.907 1.24-.182.934-.616 1.237-1.771 1.237h-1.531l-.22-8.05c-.182-6.605-.34-8.05-.886-8.05-.571 0-.655-1.897-.613-13.627.031-7.491-.07-12.509-.221-11.146-.392 3.566-1.555 3.368-1.744-.299-.164-3.257-.689-4.346-2.097-4.346-.918 0-1.002.221-.785 2.089.27 2.329-.546 3.642-1.362 2.187-.266-.479-.784-.871-1.148-.871-.519 0-.634-.647-.519-2.941.098-1.934-.031-2.941-.364-2.941-.364 0-.473 1.761-.371 6.037.122 5.046.031 6.04-.518 6.04-.557 0-.641-.994-.522-6.04.101-4.061-.007-6.037-.336-6.037-.343 0-.396 5.093-.182 17.659.217 12.898.157 18.035-.218 19.045-.29.786-.56 4.863-.623 9.435-.101 7.233-.189 8.041-.886 7.965-.609-.072-.777.401-.777 2.197 0 1.256-.189 2.553-.424 2.878-.231.325-.48 2.96-.553 5.85-.112 4.57-.231 5.251-.904 5.176-.679-.073-.777.527-.777 4.765 0 4.891-.529 6.605-1.506 4.859-1.099-1.962-1.81-.972-2.038 2.847-.179 3.055-.357 3.701-.994 3.632-.526-.063-.778.36-.778 1.297 0 5.406-2.385 6.375-2.567 1.045-.091-2.607-.29-3.705-.619-3.418-.27.23-.708.035-.977-.448-.879-1.569-2.035-1.215-2.035.625 0 .915-.186 1.931-.417 2.253-.227.325-.476 1.843-.553 3.376-.21 4.216-3.155 4.377-3.372.187-.102-1.869-.305-2.509-.729-2.282-.991.533-2.017-3.298-2.017-7.533 0-3.288-.115-3.846-.77-3.774-.532.063-.841-.492-.998-1.77-.774-6.362-1.776-2.017-1.776 7.684 0 5.346-.189 9.981-.42 10.306-.231.322-.48 2.399-.553 4.614-.245 7.356-1.418 5.415-1.684-2.786-.179-5.507-.351-6.814-.886-6.814-.473 0-.729-.896-.886-3.095-.683-9.546-1.772-3.664-1.772 9.571 0 13.229-.428 16.125-2.161 14.627-.266-.228-.501.687-.581 2.262-.357 6.864-1.46 2.922-1.688-6.024-.298-11.572-1.418-12.749-1.772-1.859-.263 8.054-1.362 9.975-1.772 3.096-.221-3.714-.221-3.714-1.751-3.714-1.155 0-1.59-.306-1.772-1.24-.133-.682-.543-1.237-.907-1.237-.493 0-.721-.963-.886-3.718-.164-2.752-.392-3.714-.886-3.714-.434 0-.711-.742-.805-2.168-.081-1.193-.329-2.433-.553-2.755-.228-.325-.414-1.06-.414-1.635 0-.618-.318-1.009-.773-.959-.589.06-.83-.517-.998-2.392-.148-1.65-.442-2.477-.883-2.477-.396 0-.756-.758-.886-1.859-.133-1.101-.494-1.859-.886-1.859-.396 0-.756-.754-.886-1.855-.129-1.101-.494-1.859-.886-1.859s-.753-.757-.886-1.859c-.196-1.647-.395-1.858-1.751-1.858-1.155 0-1.589-.303-1.772-1.237-.182-.941-.616-1.24-1.793-1.24-1.316 0-1.572-.231-1.698-1.547-.231-2.423-.956-3.017-.956-.779 0 2.218-.788 3.241-1.509 1.956-.704-1.259-1.776-1.066-2.056.37-.133.681-.532 1.24-.886 1.24-.353 0-.865.388-1.131.868-.266.476-.704.681-.97.448-.315-.272-.532.508-.62 2.228-.101 1.855-.336 2.647-.802 2.647-.364 0-.773.559-.906 1.237-.134.682-.529 1.24-.886 1.24-.372 0-.739.786-.865 1.859-.13 1.101-.491 1.856-.886 1.856-.442 0-.739.826-.886 2.477-.393 4.389-1.513 3.212-1.772-1.856-.168-3.304-.378-4.336-.883-4.336-.532 0-.711-1.24-.886-6.194-.178-4.955-.353-6.192-.886-6.192-.518 0-.714-1.101-.886-4.954-.171-3.853-.371-4.954-.886-4.954-.581 0-.651-2.743-.57-21.481.101-21.481.101-21.481-.886-21.677-.837-.167-1.016-.688-1.236-3.6-.452-6.04-1.555-8.382-1.821-3.872-.186 3.174-1.415 3.212-1.601.047-.168-2.783-1.103-4.124-2.08-2.992-.529.616-.798.616-1.33 0-.529-.615-.799-.615-1.328 0-.528.616-.798.616-1.327 0-.452-.523-.844-.571-1.218-.151-.305.341-1.254.549-2.105.461-2.161-.221-3.103 1.114-3.103 4.396 0 1.461-.21 2.837-.469 3.061-.819.71-2.185-1.638-2.185-3.759 0-1.098-.291-2.332-.644-2.742-.55-.638-.631-.23-.554 2.865.07 2.853-.049 3.614-.577 3.614-.501 0-.655-.723-.634-2.945.017-1.615-.147-2.941-.358-2.941-.21 0-.322 2.998-.248 6.659.112 5.588.028 6.658-.532 6.658-.491 0-.722.963-.883 3.714-.164 2.752-.396 3.718-.886 3.718-.494 0-.721.962-.886 3.714-.182 3.055-.36 3.702-.998 3.629-.7-.079-.774.675-.774 7.861 0 4.629-.185 8.107-.444 8.328-.242.211-.442 1.606-.442 3.099 0 1.489-.199 2.884-.441 3.095-.245.209-.445 2.121-.445 4.248 0 2.124-.192 4.131-.423 4.459-.235.325-.484 3.238-.554 6.472-.105 4.731-.259 5.876-.795 5.876-.542 0-.703 1.445-.886 8.053-.182 6.605-.339 8.051-.885 8.051-.365 0-.771.555-.904 1.237-.462 2.366-1.523 1.413-1.67-1.503-.34-6.652-2.441-6.45-2.739.266-.231 5.128-1.152 6.869-1.803 3.405l-.287-1.55-.512 1.767c-.336 1.152-.735 1.648-1.159 1.42-.539-.29-.665.969-.767 7.833-.147 9.631-1.25 12.165-1.673 3.843l-.225-4.332-3.319-.073v4.715c0 2.59-.182 4.976-.406 5.301-.225.325-.473 1.285-.554 2.137-.308 3.218-1.467 1.741-1.698-2.168-.165-2.752-.396-3.715-.886-3.715-.494 0-.722.963-.886 3.715-.354 5.926-1.485 5.134-1.772-1.237-.168-3.784-.375-4.955-.865-4.955-.354 0-.753-.558-.886-1.24-.133-.682-.539-1.237-.907-1.237-.364 0-.77.555-.903 1.237s-.533 1.24-.886 1.24c-.354 0-.753.556-.886 1.237-.75 3.841-1.534 1.089-1.657-5.809-.126-7.063-.532-9.054-1.849-9.054-.353 0-.752-.556-.882-1.237-.133-.682-.543-1.24-.907-1.24-.396 0-.756-.758-.886-1.859-.133-1.101-.494-1.856-.886-1.856-.508 0-.718-1.031-.886-4.335-.168-3.304-.382-4.336-.886-4.336-.49 0-.7-.859-.798-3.267-.091-2.18-.298-3.127-.62-2.849-.27.233-.707.028-.974-.448-.269-.477-.784-.868-1.152-.868-.528 0-.707-1.237-.886-6.191-.175-4.955-.353-6.195-.882-6.195-.525 0-.711-1.171-.886-5.573-.175-4.405-.361-5.573-.886-5.573-.532 0-.711-1.24-.886-6.195-.175-4.954-.354-6.191-.886-6.191-.49 0-.721-.966-.886-3.717-.161-2.752-.392-3.715-.886-3.715-.469 0-.728-.896-.882-3.099-.158-2.199-.417-3.095-.89-3.095-.42 0-.711-.72-.798-1.979-.102-1.42-.319-1.884-.774-1.638-.347.187-.75-.091-.893-.615-.147-.524-.546-.802-.886-.619-.343.183-.749-.123-.907-.684-.259-.947-.336-.947-1.082-.003-.441.558-.995.848-1.226.646-.234-.202-.549.082-.697.625-.15.543-.556.837-.903.65-.413-.221-.683.136-.774 1.02-.077.748-.434 1.36-.802 1.36-.441 0-.739.823-.886 2.477-.147 1.65-.441 2.477-.886 2.477-.392 0-.756.758-.889 1.856-.154 1.281-.466 1.833-.998 1.773-.564-.063-.771.382-.771 1.666 0 2.247-.714 2.853-1.775 1.509-.812-1.023-.841-.934-.97 2.881-.102 3.004-.291 3.938-.798 3.938-.393 0-.753.758-.883 1.859-.133 1.101-.494 1.859-.886 1.859-.445 0-.739.823-.886 2.477-.147 1.65-.445 2.477-.886 2.477-.364 0-.882.391-1.152.868-.266.476-.693.688-.949.467-.256-.221-.585.044-.735.59-.151.543-.557.836-.907.647-.456-.243-.673.221-.771 1.641-.101 1.439-.346 1.956-.914 1.893-.476-.053-.774.347-.774 1.048 0 1.527-.907 2.218-1.505 1.145-.582-1.038-2.091-1.136-2.963-.192-.343.372-1.222.647-1.954.615-.977-.047-1.394.265-1.569 1.181-.371 1.899-1.502 1.502-1.754-.616-.13-1.101-.49-1.858-.886-1.858-.504 0-.714-1.032-.883-4.333-.171-3.304-.381-4.336-.885-4.336-.368 0-.729-.612-.806-1.36-.087-.884-.357-1.24-.77-1.02-.347.187-.743-.072-.883-.564-.164-.603-.756-.849-1.772-.736-.84.095-1.677-.154-1.859-.552-.42-.909-1.562-.94-1.975-.054-.172.367-1.369.641-2.658.603l-2.346-.063-.221 2.493c-.21 2.379-.294 2.493-1.772 2.493s-1.562.12-1.772 2.477c-.147 1.654-.441 2.477-.886 2.477-.514 0-.714 1.102-.886 4.955-.171 3.853-.367 4.954-.886 4.954-.514 0-.71 1.102-.886 4.955-.234 5.251-1.292 7.103-1.768 3.099-.812-6.817-1.772-1.938-1.772 9.009 0 11.004-.301 13.21-1.509 11.058-.266-.48-.785-.871-1.149-.871-.574 0-.683-2.44-.784-17.596-.077-11.897-.277-17.871-.617-18.439-.357-.606-.409-5.466-.178-17.461.287-14.853.249-16.662-.378-16.999-.54-.287-.701-1.3-.701-4.383 0-2.206-.199-4.182-.444-4.393-.242-.208-.442-1.326-.442-2.477 0-2.698-.518-3.09-2.426-1.821-.855.565-1.839.877-2.186.691-.346-.186-.738.063-.875.549-.368 1.351-2.087 1.098-2.357-.347-.126-.682-.483-1.24-.791-1.24-.305 0-.809-.42-1.114-.934-.493-.833-.616-.821-1.092.094-.844 1.61-1.562.414-1.562-2.603v-2.749h-5.687c-5.13 0-5.771.123-6.492 1.237-.442.682-1.145 1.24-1.566 1.24-.634 0-.728.439-.549 2.632.171 2.127.031 2.863-.718 3.812-.781.988-.932 1.894-.932 5.605 0 2.433-.192 4.692-.427 5.021-.235.328-.483 3.518-.553 7.09-.102 5.283-.252 6.495-.792 6.495-.536 0-.707 1.309-.886 6.813-.196 6.002-.311 6.804-.994 6.725-.687-.07-.778.552-.778 5.295 0 2.96-.185 5.649-.413 5.97-.231.325-.48 1.843-.553 3.377-.102 1.979-.333 2.787-.806 2.787-.364 0-.777.555-.914 1.237-.14.681-.588 1.202-.998 1.155-.63-.073-.745.552-.745 4.055 0 2.278-.183 4.408-.41 4.73-.228.325-.476 1.565-.553 2.755-.091 1.426-.372 2.168-.809 2.168-.515 0-.711 1.101-.883 4.954-.234 5.251-1.295 7.104-1.772 3.099-.178-1.486-.444-1.859-1.33-1.859h-1.107l-.221-12.386c-.189-10.461-.325-12.386-.886-12.386-.577 0-.661-2.436-.63-18.401.028-13.5-.105-18.47-.483-18.675-.361-.192-.455-1.786-.312-5.213.214-5.166-.399-7.255-2.118-7.255-.508 0-.697-.943-.799-4.027-.07-2.215-.322-4.288-.553-4.613-.231-.325-.42-1.231-.42-2.014 0-2.969-11.122-1.745-11.689 1.288-.151.805-.456 1.038-.981.757-1.229-.659-3.278 2.506-3.278 5.065 0 1.591-.217 2.19-.886 2.433-.731.268-.886.846-.886 3.329 0 1.859-.336 3.85-.882 5.214-.7 1.742-.886 3.351-.886 7.662 0 4.632-.133 5.626-.868 6.557-.662.836-.897 2.067-.995 5.204-.101 3.159-.284 4.109-.795 4.109-.56 0-.7 1.858-.886 11.767-.255 13.649-1.418 17.776-1.677 5.964-.126-5.655-.151-5.774-.97-4.739-1.243 1.574-1.783.653-1.783-3.046 0-2.717-.147-3.351-.84-3.607-1.401-.511-1.81 1.809-1.926 11.001-.105 8.142-1.002 12.38-1.572 7.432-.344-2.973-.732-2.844-.956.309-.568 7.997-1.562 4.159-1.685-6.501-.133-11.398-.651-14.5-.987-5.885-.252 6.469-1.32 8.52-1.779 3.408-.291-3.272-2.287-3.736-2.658-.618-.27 2.278-1.488 2.502-1.698.309-.077-.852-.33-1.815-.554-2.137-.224-.325-.406-2.887-.406-5.692 0-2.809-.2-5.277-.441-5.488-.242-.208-.441-1.603-.441-3.096s-.2-2.887-.445-3.096c-.242-.211-.441-2.641-.441-5.396 0-4.923-.021-4.995-.858-3.929-1.135 1.433-1.8.758-1.8-1.824 0-1.151-.2-2.265-.445-2.477-.242-.208-.441-1.325-.441-2.477 0-4.235-.848-2.774-.977 1.685-.112 3.85-.242 4.497-.904 4.421-.465-.053-.777.347-.777.988 0 1.338-1.555 3.383-2.171 2.853-.298-.256-.497 1.814-.581 5.977-.102 5.172-.253 6.371-.792 6.371-.473 0-.728.896-.886 3.096-.157 2.202-.413 3.098-.886 3.098-.441 0-.735.824-.882 2.478-.168 1.874-.41 2.455-.998 2.389-.669-.07-.774.498-.774 4.146 0 4.292-.574 5.908-1.509 4.241-.267-.476-.785-.867-1.149-.867-.445 0-.739-.827-.886-2.478-.147-1.653-.445-2.477-.886-2.477-.525 0-.711-1.171-.886-5.573-.175-4.405-.361-5.576-.886-5.576-.532 0-.707-1.237-.886-6.191-.175-4.955-.354-6.195-.882-6.195-.557 0-.687-1.486-.788-8.965-.07-4.933-.319-9.237-.557-9.568-.235-.332-.427-1.506-.427-2.61 0-1.105-.2-2.181-.445-2.389-.242-.211-.441.174-.441.855 0 .682-.2 1.411-.445 1.622-.242.209-.441 1.367-.441 2.572 0 1.666-.21 2.266-.886 2.512-.672.246-.886.846-.886 2.477 0 1.632-.214 2.231-.886 2.477-.781.288-.882.846-.882 4.788 0 4.749-.585 6.22-3.198 8.037-.98.682-1.019 1.029-1.232 11.215-.235 11.042-1.345 15.716-1.688 7.104-.081-1.871-.322-3.67-.553-3.992-.232-.325-.417-2.607-.417-5.074 0-4.548-.715-6.886-.97-3.175-.287 4.194-1.45 2.408-1.702-2.622-.35-6.94-.847-3.939-.981 5.885-.157 11.846-1.369 12.973-1.568 1.461-.147-8.697-1.688-11.862-1.958-4.03-.217 6.28-1.422 5.267-1.59-1.328-.087-3.696-.371-5.744-.994-7.296-.48-1.187-.869-2.692-.869-3.342 0-.653-.199-1.357-.441-1.568-.245-.209-.445-2.399-.445-4.867 0-2.467-.182-4.749-.409-5.074-.224-.322-.484-1.423-.578-2.445l-.168-1.856-.536 1.764c-.34 1.127-.763 1.644-1.166 1.426-.452-.239-.672.228-.771 1.641-.098 1.442-.346 1.957-.91 1.894-.676-.073-.777.52-.777 4.676 0 2.62-.189 5.027-.421 5.352-.234.326-.483 2.961-.556 5.854-.102 4.182-.267 5.261-.795 5.261-.393 0-.753.757-.883 1.859-.133 1.098-.494 1.855-.889 1.855-.364 0-.883.391-1.149.871-.269.477-.718.669-.998.426-.371-.322-.511 1.37-.511 6.286 0 3.699-.186 6.987-.417 7.312-.231.325-.48 2.401-.557 4.613-.101 3.084-.287 4.027-.798 4.027-.522 0-.707 1.168-.882 5.573-.176 4.405-.365 5.573-.886 5.573-.543 0-.708 1.376-.886 7.432-.197 6.592-.309 7.422-.998 7.346-.666-.073-.774.492-.774 4.084 0 4.673-1.243 7.608-2.368 5.595-.847-1.525-1.821-1.08-2.062.937-.196 1.65-.392 1.855-1.772 1.855-1.173 0-1.607.303-1.793 1.241-.616 3.165-1.53 1.227-1.751-3.718-.214-4.762-.263-4.954-1.31-4.954-.71 0-1.169-.426-1.327-1.237-.133-.682-.539-1.241-.907-1.241-.441 0-.739-.823-.886-2.477-.147-1.65-.441-2.477-.886-2.477-.472 0-.728-.893-.886-3.096-.157-2.202-.413-3.095-.886-3.095-.392 0-.752-.758-.886-1.859-.129-1.101-.49-1.859-.882-1.859-.508 0-.718-1.032-.886-4.333-.172-3.304-.382-4.335-.886-4.335-.518 0-.714-1.102-.886-4.955-.171-3.853-.368-4.954-.886-4.954-.532 0-.707-1.24-.886-6.195-.175-4.954-.353-6.191-.886-6.191-.532 0-.707-1.241-.886-6.195-.175-4.954-.353-6.191-.886-6.191-.549 0-.686-1.351-.788-7.732-.07-4.251-.318-7.999-.553-8.331-.238-.328-.431-2.019-.431-3.755 0-1.739-.217-3.468-.486-3.844-.312-.432-.431-2.748-.333-6.308.119-4.333.017-5.702-.448-5.952-.445-.239-.533-1.085-.336-3.256.196-2.165.154-2.569-.158-1.543-.235.766-.781 1.394-1.215 1.394-.704-.003-.788.657-.788 6.037 0 4.955-.119 6.04-.665 6.04-.543 0-.662-1.066-.662-5.885 0-4.03-.175-6.04-.554-6.378-.304-.274-.556-.899-.556-1.395 0-.675-.61-.896-2.483-.896h-2.486l.283 2.118c.308 2.31-.287 3.386-1.253 2.262-.47-.542-.575-.214-.533 1.651.049 2.307.028 2.329-1.723 2.395-.973.035-1.971.107-2.216.155-.273.053-.382 2.032-.284 5.099.172 5.302-.357 7.378-1.404 5.519-1.138-2.019-1.846-1.073-2.073 2.787-.578 9.666-1.558 4.282-1.439-7.899.07-7.637-.039-11.61-.344-11.61-.276 0-.406 1.622-.332 4.179.098 3.379-.007 4.181-.543 4.181-.504 0-.658-.723-.637-2.941.021-1.619-.137-2.941-.337-2.941-.199 0-.311 5.225-.248 11.609.119 12.181-.862 17.565-1.436 7.899-.161-2.698-.399-3.717-.865-3.717-.357 0-.777-.698-.938-1.547-.498-2.663-.834-.179-.96 7.12-.098 5.569-.238 6.813-.781 6.813-.518 0-.714 1.101-.886 4.954-.171 3.853-.371 4.955-.886 4.955-.525 0-.711 1.17-.886 5.573-.175 4.405-.36 5.576-.886 5.576-.441 0-.738.823-.886 2.477-.147 1.65-.441 2.477-.886 2.477-.364 0-.773.555-.906 1.237-.134.682-.533 1.24-.886 1.24-.354 0-.862.392-1.132.868-.266.477-.71.675-.984.439-.357-.313-.532 2.215-.619 9.041-.102 7.927-.231 9.47-.788 9.47-.445 0-.739.824-.886 2.477-.382 4.289-1.524 3.241-1.685-1.549-.07-2.212-.322-4.289-.553-4.614-.231-.325-.42-1.338-.42-2.253 0-1.205-.214-1.641-.774-1.578-.704.079-.798-.906-.998-10.442-.186-8.811-.329-10.531-.886-10.531-.578 0-.651-2.802-.56-22.077.087-18.937.01-22.127-.547-22.427-.5-.268-.588-1-.378-3.159.273-2.768-.567-4.058-1.408-2.158-.161.359-.518.542-.801.413-.281-.136-.739.189-1.019.716-.431.821-.613.837-1.237.114-.637-.742-.928-.581-2.293 1.259-1.345 1.815-1.636 1.982-2.087 1.183-.288-.511-.82-.931-1.187-.931-.365 0-.722-.577-.795-1.281-.105-1.041-.375-1.23-1.443-1.013-.722.149-1.593-.053-1.937-.454-.483-.559-.84-.543-1.547.079-.757.659-1.09.656-1.86-.019-.837-.732-1.085-.619-2.346 1.092-.774 1.047-1.635 1.909-1.916 1.909-.29 0-.567 1.237-.644 2.89-.144 3.074-1.015 4.264-1.576 2.149-.182-.694-.329 3.674-.329 9.701 0 9.328-.102 10.96-.665 10.96-.568 0-.697 2.272-.886 15.482-.189 13.212-.319 15.481-.886 15.481-.568 0-.697 2.272-.886 15.485-.203 14.258-.28 15.476-.995 15.397-.637-.073-.777.432-.777 2.818 0 1.597-.189 3.168-.42 3.49-.231.325-.48 2.402-.554 4.614-.136 4.083-1.096 5.693-1.663 2.789-.133-.681-.539-1.24-.907-1.24-.504 0-.718-1.032-.886-4.336-.168-3.301-.378-4.333-.886-4.333-.564 0-.697-1.997-.886-13.007-.262-15.501-1.345-19.282-1.772-6.192-.217 6.687-1.029 9.272-1.751 5.573-.133-.681-.539-1.237-.907-1.237-.567 0-.679-2.064-.774-14.245-.07-9.35-.283-14.721-.623-15.627-.375-1.006-.441-5.834-.241-17.747.238-14.033.185-16.416-.372-16.713-.535-.287-.647.496-.647 4.463 0 2.647-.197 5.083-.435 5.418-.252.353-.483 6.706-.553 15.144-.175 21.446-1.394 21.673-1.558.29-.07-9.318-.287-14.721-.62-15.623-.368-.982-.431-4.299-.217-11.541.255-8.769.203-10.215-.375-10.524-.424-.227-.672-1.161-.672-2.512 0-1.183-.165-2.291-.368-2.465-.655-.568-2.29.363-2.29 1.301 0 .504-.399 1.06-.886 1.24-.585.214-.886.842-.886 1.858 0 1.013-.301 1.641-.886 1.856-.55.202-.883.846-.883 1.704 0 1.562-1.488 3.749-2.157 3.172-.241-.209-.504.252-.581 1.025-.08.77-.441 1.401-.805 1.401-.368 0-.774.559-.907 1.24-.133.682-.533 1.237-.886 1.237-.449 0-.711.941-.865 3.096-.158 2.203-.413 3.099-.886 3.099-.364 0-.774.555-.907 1.237s-.532 1.24-.886 1.24c-.511 0-.69 1.405-.865 6.81-.179 5.507-.35 6.813-.886 6.813-.56 0-.7 1.859-.886 11.768-.186 9.909-.326 11.767-.886 11.767-.473 0-.728.894-.886 3.096-.157 2.203-.413 3.096-.882 3.096-.368 0-.781.558-.918 1.24-.14.682-.588 1.199-.998 1.152-.448-.054-.742.366-.742 1.048 0 1.625-.855 2.133-1.671.997-.633-.89-.749-.881-1.285.079-.522.934-.655.95-1.141.129-1.321-2.212-2.105-1.297-2.105 2.449 0 2.726-.2 3.803-.858 4.636-.97 1.227-1.8.83-1.8-.862 0-1.543-1.481-1.313-1.793.278-.648 3.332-1.53 1.199-1.66-4.021-.07-2.893-.318-5.528-.553-5.853-.245-.344-.424-6.987-.424-15.883 0-14.182-.059-15.283-.774-15.204-.7.082-.787-.779-.9-8.88-.07-4.932-.315-9.237-.553-9.568-.234-.331-.431-1.663-.431-2.963 0-4.775-2.468-6.409-2.741-1.818-.102 1.71-.326 2.237-.911 2.174-.655-.072-.777.464-.777 3.465 0 3.626-1.082 6.271-2.178 5.321-.316-.272-.501 4.746-.582 15.889-.101 13.989-.21 16.286-.781 16.286-.57 0-.697 2.338-.886 16.1-.21 15.122-.931 21.506-1.677 14.864a15.71 15.71 0 0 0-.543-2.478c-.22-.681-.473-1.934-.564-2.786-.161-1.549-.161-1.549-.682.205-.708 2.354-1.58 1.796-1.849-1.183-.466-5.103-2.658-3.503-2.658 1.944 0 4.784-.967 8.652-2.017 8.088-.445-.24-.631.508-.729 2.9-.143 3.471-1.32 4.692-1.611 1.672-.08-.852-.329-1.814-.553-2.139-.224-.322-.406-1.335-.406-2.254 0-1.205-.214-1.64-.774-1.577-.651.072-.798-.54-.907-3.756-.105-3.039-.263-3.767-.77-3.496-.41.218-.799-.256-1.093-1.332-.322-1.186-.665-1.562-1.176-1.287-.876.47-2.368-1.275-2.368-2.768 0-.64-.308-1.038-.77-.988-.532.064-.841-.489-.998-1.77-.179-1.486-.445-1.859-1.331-1.859-.886 0-1.152-.372-1.33-1.858-.127-1.07-.494-1.856-.865-1.856-.354 0-.753-.558-.886-1.24-.133-.682-.54-1.237-.907-1.237-.54 0-.687-1.215-.792-6.498-.07-3.572-.318-6.762-.553-7.09-.245-.338-.427-5.58-.427-12.169 0-10.644-.06-11.569-.774-11.49-.718.082-.771-.896-.704-13.339.059-11.259-.032-13.478-.574-13.771-.477-.253-.582-.963-.396-2.676.2-1.875.165-2.058-.186-.937-.283.902-.823 1.394-1.53 1.394-.861 0-1.121.357-1.233 1.701-.08 1.017-.409 1.704-.805 1.704-.396 0-.721-.687-.802-1.704-.165-1.988-.763-2.243-1.096-.464-.263 1.402-2.434 1.749-3.306.527-.301-.419-1.786-.681-3.614-.634-1.705.044-3.221-.192-3.368-.527-.442-.997-.981-.688-1.243.717-.176.934-.466 1.199-1.002.912-.438-.234-1.093.018-1.551.599-.858 1.089-1.734.732-1.734-.7 0-1.023-.7-1.196-1.106-.272-.154.341-.739.619-1.306.619-.648 0-1.111.445-1.254 1.208-.35 1.868-3.81 1.543-4.342-.41-.484-1.77-2.291-1.682-2.644.129-.336 1.736-1.432 1.547-1.779-.309-.305-1.612-.648-1.047-.949 1.546-.077.682-.438 1.241-.802 1.241-.385 0-.749.766-.879 1.858-.13 1.102-.49 1.856-.886 1.856-.536 0-.704 1.31-.882 6.813-.179 5.507-.351 6.813-.89 6.813-.536 0-.704 1.307-.882 6.813-.179 5.504-.351 6.813-.89 6.813-.522 0-.707 1.168-.882 5.573-.175 4.402-.364 5.573-.886 5.573-.543 0-.708 1.376-.886 7.432-.182 6.056-.343 7.432-.886 7.432-.508 0-.718 1.031-.886 4.335-.186 3.642-.343 4.321-.995 4.248-.609-.069-.777.404-.777 2.2 0 1.255-.186 2.549-.413 2.871-.228.325-.48 1.843-.554 3.377-.112 2.209-.301 2.767-.917 2.701-.613-.073-.774.407-.774 2.285 0 2.591-.739 3.758-1.506 2.385-.269-.476-.784-.867-1.152-.867-.536 0-.707-1.31-.886-6.814-.178-5.506-.35-6.813-.886-6.813-.557 0-.7-1.719-.886-10.527-.185-8.807-.329-10.527-.886-10.527-.556 0-.682-1.54-.784-9.455-.105-8.063-.252-9.776-.998-11.632-.753-1.877-.876-3.364-.876-10.792 0-5.743-.164-8.757-.5-9.047-.333-.288-.413-1.742-.238-4.371.255-3.799-.344-5.38-1.254-3.32-.487 1.102-2.066.679-2.308-.618-.266-1.42-1.015-1.682-1.015-.357 0 .994-2.55 2.998-3.152 2.477-.217-.186-.392.054-.392.534 0 1.211-1.212 4.493-2 5.405-.434.502-.654 1.916-.654 4.15 0 2.853-.141 3.44-.876 3.708-.809.293-.882.956-.998 8.766-.102 7.022-.235 8.448-.784 8.448-.571 0-.697 2.477-.886 17.341-.193 14.863-.319 17.34-.886 17.34-.533 0-.711 1.24-.886 6.195-.179 4.954-.354 6.191-.886 6.191-.539 0-.708 1.307-.886 6.813-.287 8.792-1.411 9.969-1.772 1.859-.172-3.853-.371-4.954-.886-4.954-.522 0-.693-1.013-.798-4.646-.071-2.552-.323-4.91-.554-5.232-.231-.325-.42-3.569-.42-7.21 0-5.924-.081-6.608-.774-6.533-.655.073-.812-.606-.998-4.25-.224-4.38-1.208-6.085-1.793-3.096-1.18 6.056-1.527.846-1.45-21.676.049-14.753-.07-22.393-.339-21.45-.312 1.105-.669 1.395-1.457 1.187-1.324-.354-2.049 1.183-2.049 4.339 0 1.3-.192 2.632-.43 2.963-.235.328-.484 4.355-.554 8.95-.101 6.93-.234 8.346-.787 8.346-.578 0-.648-2.524-.543-19.675.112-18.701.08-19.644-.666-18.994-.637.558-.784 1.559-.784 5.377 0 6.355-1.541 6.267-2.577-.148-.109-.682-.172 6.005-.14 14.863.059 16.006-.977 24.908-1.405 12.077-.073-2.216-.322-4.292-.553-4.614-.231-.325-.42-3.099-.42-6.163 0-9.65-.851-5.137-.984 5.216-.158 12.478-1.303 14.28-1.674 2.639-.413-13.062-1.107-6.987-1.107 9.732 0 15.545-.763 22.108-1.551 13.317-.238-2.686-1.359-3.459-1.789-1.241-.133.682-.533 1.241-.886 1.241-.421 0-.722.864-.865 2.477-.242 2.676-1.324 3.44-1.755 1.237-.133-.679-.539-1.237-.903-1.237-.504 0-.694-.9-.785-3.718-.063-2.041-.339-4.317-.605-5.055-.333-.909-.431-5.797-.305-15.172.189-13.835.189-13.835-.893-15.031-1.044-1.155-1.072-1.382-.812-6.898l.269-5.703-1.089.707c-.669.433-1.092 1.228-1.092 2.061 0 .748-.204 1.53-.449 1.742-.241.208-.441 1.843-.441 3.626 0 1.786-.192 3.515-.427 3.843-.235.329-.483 3.519-.553 7.091-.112 5.744-.217 6.485-.904 6.409-.711-.082-.774.849-.774 11.575 0 12.169-.196 13.418-1.8 11.389-.784-.994-.858-1.988-.858-11.789 0-6.47-.175-10.859-.441-11.089-.245-.209-.445-1.604-.445-3.096 0-1.493-.227-2.91-.504-3.15-.361-.312-.441-3.673-.28-11.802.21-10.666.172-11.37-.578-11.37-.441 0-.924-.277-1.075-.618-1.278-2.894-11.388 2.234-11.64 5.904-.07 1.01-.322 2.395-.557 3.077-.234.681-.476 6.254-.535 12.386-.102 10.183-.179 11.139-.886 11.061-.659-.073-.778.467-.778 3.524 0 3.989-.511 4.964-1.772 3.371-.805-1.02-.84-.944-.97 2.212-.234 5.667-2.57 3.074-2.57-2.856 0-10.146-1.562-1.944-1.772 9.316-.189 9.912-.329 11.767-.886 11.767-.525 0-.711 1.165-.886 5.526-.245 6.049-.809 7.21-1.95 4.011-.585-1.635-.708-4.355-.708-15.479 0-8.328-.171-13.639-.445-13.876-.241-.208-.441-2.565-.441-5.232 0-4.238-.098-4.837-.774-4.762-.697.079-.788-.738-.9-8.009l-.122-8.097-1.334.274c-.869.177-1.632-.101-2.182-.801-.826-1.045-.851-.96-.981 3.487-.101 3.559-.276 4.563-.794 4.563-.473 0-.729.893-.886 3.096-.158 2.202-.414 3.095-.886 3.095-.515 0-.715 1.102-.886 4.955-.172 3.853-.368 4.954-.886 4.954-.473 0-.729.896-.886 3.096-.158 2.203-.413 3.099-.886 3.099-.392 0-.753.754-.886 1.855-.63 5.289-1.548 1.869-1.667-6.191-.161-11.19-.725-11.717-.991-.931-.182 7.432-.336 8.981-.886 8.981-.392 0-.753.757-.886 1.859-.13 1.101-.49 1.858-.886 1.858-.441 0-.735.824-.886 2.478-.238 2.673-1.32 3.439-1.751 1.237-.133-.682-.539-1.237-.903-1.237-.564 0-.687-1.711-.788-10.995-.154-14.166-.921-14.601-1.086-.618-.101 8.732-.227 10.372-.784 10.372-.368 0-.886.392-1.152.868-.266.48-.697.691-.949.47-.256-.22-.589.045-.736.587-.15.553-.56.837-.917.647-.522-.281-.665.594-.77 4.734-.113 4.396-.232 5.068-.904 4.995-.613-.072-.774.407-.774 2.285 0 2.818-.63 3.579-1.772 2.136-.798-1.013-.837-.949-.97 1.641-.185 3.604-1.372 3.756-1.688.215-.147-1.65-.444-2.477-.886-2.477-.444 0-.738.827-.886 2.477-.147 1.654-.444 2.477-.886 2.477-.532 0-.707 1.24-.885 6.195-.242 6.747-1.303 8.971-1.772 3.714-.147-1.65-.442-2.477-.886-2.477-.571 0-.68-2.304-.781-16.381-.116-15.738-.158-16.438-1.061-17.786-.928-1.376-.939-1.694-.718-18.789l.224-17.391-1.023 1.345c-.563.738-1.082 2.073-1.159 2.969-.091 1.108-.381 1.6-.907 1.54-.637-.072-.777.432-.777 2.818 0 1.597-.189 3.168-.42 3.493-.231.322-.48 2.399-.554 4.614-.234 7.018-1.432 5.5-1.589-2.013-.172-8.164-.981-7.811-.981.426 0 3.645-.193 6.633-.441 6.851-.259.221-.445 3.689-.445 8.302 0 9.42-2.041 17.076-2.56 9.609-.234-3.326-.998-4.768-1.915-3.607-1.128 1.424-1.723.565-1.723-2.48 0-4.083-1.66-5.989-1.856-2.133-.098 1.896-.336 2.695-.802 2.695-1.782 0-2.623 2.944-2.752 9.663-.197 9.953-1.373 9.258-1.678-.995-.182-6.055-.346-7.431-.886-7.431-.529 0-.693-1.076-.795-5.261-.073-2.893-.322-5.525-.553-5.85-.235-.328-.424-5.084-.424-10.651 0-6.037-.178-10.212-.444-10.442-.242-.208-.442-1.881-.442-3.714 0-1.834-.199-3.506-.444-3.718-.242-.208-.442-.971-.442-1.691 0-2.136-1.32-3.825-1.992-2.543-.69 1.322-1.551.555-1.551-1.376 0-1.512 0-1.512-5.649-1.499l-5.648.009-.995 2.948c-.55 1.622-.998 3.695-.998 4.604 0 .909-.248 1.877-.553 2.149-.392.353-.553 2.72-.553 8.236 0 6.469-.109 7.741-.666 7.741-.504 0-.714 1.032-.886 4.336-.185 3.642-.343 4.32-.994 4.247-.662-.069-.778.48-.778 3.778 0 4.225-1.022 8.063-2.01 7.532-.364-.192-.644.209-.728 1.042-.088.852-.431 1.328-.914 1.275-.693-.082-.774.609-.774 6.532 0 3.642-.189 6.886-.42 7.211-.231.322-.48 2.398-.553 4.613-.105 3.08-.291 4.024-.799 4.024-.532 0-.711 1.24-.886 6.194-.178 4.955-.357 6.192-.886 6.192-.518 0-.714 1.101-.886 4.954-.171 3.853-.371 4.955-.886 4.955-.367 0-1.036.643-1.495 1.432-.455.786-1.093 1.288-1.422 1.111-.458-.246-.62.824-.721 4.762-.228 9.063-1.404 6.984-1.677-2.969-.225-8.092-1.156-11.358-1.772-6.192-.477 4.005-1.538 2.152-1.772-3.099-.172-3.853-.368-4.954-.886-4.954-.438 0-.715-.742-.806-2.168-.08-1.19-.329-2.43-.553-2.755-.228-.325-.413-2.884-.413-5.693 0-2.805-.2-5.276-.441-5.484-.281-.243-.445-6.814-.445-17.669 0-15.043-.084-17.24-.658-16.93-.557.299-.645 2.228-.554 12.521.091 10.468.011 12.169-.56 12.169-.578 0-.644-2.26-.497-17.527.143-15.409.08-17.615-.536-18.268-.403-.433-.756-1.922-.841-3.531-.08-1.534-.059 4.118.046 12.559.133 10.793.042 15.757-.315 16.722-.28.754-.56 4.159-.62 7.567-.095 5.021-.242 6.192-.781 6.192-.581 0-.644-3.033-.518-24.397.119-19.783.035-24.491-.441-24.904-.473-.411-.634.868-.813 6.434-.192 6.132-.311 6.936-.994 6.861-.61-.07-.778.404-.778 2.199 0 1.256-.182 2.55-.402 2.872-.225.325-.473 1.287-.554 2.139-.756 7.871-1.47.515-1.348-13.878.116-13.838.056-15.343-.557-14.633-.413.483-.679 1.805-.679 3.379 0 1.424-.186 2.853-.413 3.175-.228.325-.477 1.565-.554 2.758-.259 3.964-1.453 2.746-1.6-1.638-.143-4.118-1.639-5.308-1.95-1.552-.274 3.32-1.454 1.903-1.597-1.919-.238-6.384-1.411-3.9-1.832 3.869-.21 3.926-.371 4.633-1.026 4.56-.56-.063-.774.372-.774 1.578 0 .918-.189 1.931-.42 2.253-.231.325-.48 2.401-.553 4.617-.175 5.257-1.341 5.803-1.684.789-.491-7.157-1.107-2.074-1.107 9.12 0 10.773-.851 16.466-1.478 9.908-.08-.852-.332-1.814-.553-2.136-.224-.325-.406-3.165-.406-6.311 0-10.701-1.716-7.236-1.881 3.802-.175 11.509-1.39 10.799-1.565-.918-.07-4.592-.319-8.618-.553-8.95-.242-.334-.431-4.771-.431-10.038 0-5.623-.179-9.593-.441-9.82-.245-.212-.445-.865-.445-1.455 0-.656-.343-1.067-.886-1.067-.571 0-.886.414-.886 1.162 0 .643-.396 1.309-.886 1.489-.564.205-.886.843-.886 1.764 0 .792-.2 1.609-.441 1.821-.245.211-.445 1.322-.445 2.468 0 1.417-.319 2.448-.994 3.215-.984 1.117-.998 1.316-.998 16.303 0 13.074-.091 15.172-.666 15.172-.557 0-.7 1.789-.886 11.149-.185 9.357-.325 11.146-.886 11.146-.441 0-.735.827-.886 2.477-.147 1.654-.441 2.477-.886 2.477-.504 0-.714 1.032-.886 4.336l-.22 4.336h-1.551c-1.174 0-1.608.3-1.79 1.237-.182.934-.616 1.24-1.772 1.24h-1.53l-.221 4.336c-.171 3.301-.381 4.333-.886 4.333-.546 0-.704 1.445-.886 8.053-.182 6.605-.343 8.051-.886 8.051-.472 0-.728.893-.886 3.095-.56 7.801-1.544 3.61-1.673-7.106-.067-5.611-.316-10.477-.554-10.809-.245-.343-.43-5.055-.43-10.937 0-9.464-.067-10.329-.778-10.25-.616.073-.819-.546-.994-3.01-.158-2.203-.414-3.096-.886-3.096-.585 0-.652-3.563-.557-28.953.066-17.36-.053-28.954-.298-28.954-.676 0-1.803-3.758-1.803-6.015 0-1.246-.182-1.953-.445-1.726-.242.212-.441 2.402-.441 4.866 0 2.468-.182 4.75-.406 5.075-.221.325-.473 1.284-.554 2.136-.567 5.914-1.47 1.035-1.383-7.454.098-9.372-.413-11.695-2.217-10.063-.294.268-.833.514-1.197.549-.368.035-.991.104-1.39.155-.396.053-.834.684-.97 1.41-.158.855-.48 1.193-.911.963-.445-.24-.707.091-.798 1.003-.077.748-.438 1.36-.806 1.36-.364 0-.77.559-.903 1.24-.133.682-.532 1.238-.886 1.238-.42 0-.721.864-.869 2.477-.178 2-.399 2.477-1.145 2.477-.507 0-1.246.372-1.642.827-.392.457-.914.656-1.156.448-.262-.227-.49.931-.57 2.89-.102 2.408-.312 3.267-.799 3.267-.473 0-.728.893-.886 3.095-.157 2.203-.417 3.099-.886 3.099-.564 0-.7 1.925-.886 12.386-.189 10.458-.325 12.386-.886 12.386-.553 0-.704 1.651-.886 9.909-.185 8.255-.332 9.909-.886 9.909-.472 0-.728.893-.886 3.096-.157 2.202-.413 3.095-.886 3.095-.444 0-.738.827-.885 2.478-.148 1.65-.445 2.477-.886 2.477-.368 0-.774.558-.907 1.24-.182.928-.617 1.237-1.751 1.237-1.135 0-1.573-.306-1.751-1.237-.133-.682-.543-1.24-.907-1.24s-.729-.612-.802-1.36c-.091-.884-.361-1.24-.774-1.02-.347.19-.749-.088-.893-.612-.144-.527-.525-.814-.844-.643-.84.451-2.003-3.207-2.003-6.299 0-2.118-.151-2.607-.774-2.537-.637.072-.816-.578-.998-3.629-.164-2.755-.392-3.718-.886-3.718-.49 0-.721-.962-.886-3.714-.164-2.755-.392-3.717-.886-3.717-.364 0-.728-.632-.805-1.402-.081-.773-.34-1.233-.581-1.025-.242.208-.802-.079-1.244-.634-.745-.944-.823-.944-1.082.003-.154.561-.56.867-.903.684-.403-.214-.883.43-1.348 1.793-.76 2.247-1.293 2.632-1.877 1.354-.547-1.193-1.597-.919-2.511.656-.455.789-1.103 1.284-1.439 1.105-.382-.206-.61.097-.61.817 0 2.42-3.358 4.03-4.479 2.143-.434-.729-.595-.704-1.05.167-.774 1.48-1.558.498-1.558-1.944 0-1.152-.2-2.269-.445-2.477-.242-.212-.441-1.259-.441-2.329 0-2.585-.778-1.458-.967 1.398-.105 1.619-.339 2.146-.917 2.083-.61-.073-.774.403-.774 2.227 0 2.424-1.299 4.844-2.189 4.074-.266-.23-.469.092-.469.745 0 1.916-4.801 7.492-5.747 6.674-.213-.186-.455.294-.532 1.064-.119 1.174-.417 1.404-1.807 1.404s-1.66.212-1.66 1.297c0 2.077-1.341 5.33-2.038 4.955-.441-.234-.62.186-.62 1.47 0 .991-.199 1.976-.441 2.187-.245.208-.444 1.565-.444 3.007 0 1.446-.186 2.894-.414 3.216-.227.325-.479 1.843-.553 3.377-.112 2.205-.301 2.767-.914 2.701-.599-.063-.777.391-.777 1.991 0 1.146-.386 3.042-.858 4.219-.473 1.174-.921 3.345-.995 4.819-.168 3.209-1.338 3.777-1.691.824-.13-1.102-.49-1.859-.886-1.859-.368 0-.732-.679-.816-1.531-.2-1.953-.988-3.423-1.839-3.423-.493 0-.7-.878-.801-3.409-.074-1.871-.326-3.67-.554-3.992-.231-.325-.416-2.732-.416-5.352 0-4.152-.099-4.749-.778-4.676-.651.072-.795-.549-.907-3.939-.073-2.212-.325-4.288-.557-4.613-.227-.325-.416-4.279-.416-8.789 0-4.8-.186-8.359-.445-8.583-.256-.221-.441-3.595-.441-8.016 0-7.109-.063-7.652-.886-7.955-.676-.246-.886-.846-.886-2.512 0-1.206-.2-2.364-.445-2.572-.242-.211-.441-1.729-.441-3.377 0-2.467-.137-2.975-.778-2.903-.577.063-.808-.464-.917-2.083-.077-1.192-.326-2.433-.553-2.754-.224-.325-.41-1.338-.41-2.254 0-1.205-.214-1.641-.777-1.581-.585.063-.827-.514-.995-2.388-.147-1.654-.445-2.478-.886-2.478-.466 0-.704-.792-.802-2.647-.14-2.714-.97-3.102-.97-.452 0 1.821-.851 2.661-1.506 1.49-.269-.48-.777-.868-1.131-.868-.353 0-.753-.558-.886-1.24-.465-2.379-1.793-1.666-1.793.962 0 3.008-.76 3.699-1.954 1.771-.518-.837-1.411-1.493-2.031-1.493-.928 0-1.131-.331-1.246-2.026-.158-2.269-.97-2.13-.97.167 0 1.818-.851 2.657-1.506 1.487-1.163-2.077-1.811-.972-2.038 3.468-.242 4.755-1.411 6.352-1.688 2.31-.179-2.607-.97-1.966-.97.786 0 1.151-.196 2.265-.441 2.477-.245.208-.445 1.006-.445 1.77s-.189 1.657-.424 1.985c-.234.325-.483 3.519-.553 7.091-.116 5.743-.217 6.485-.903 6.409-.697-.082-.774.638-.774 7.151 0 3.982-.196 7.51-.431 7.842-.238.331-.487 4.916-.557 10.186-.101 8.031-.228 9.587-.784 9.587-.543 0-.708 1.376-.886 7.432-.196 6.589-.312 7.422-.998 7.346-.456-.053-.774.344-.774.96 0 .574-.186 1.309-.413 1.634-.225.322-.477 1.562-.554 2.755-.157 2.402-1.264 3.017-1.674.928-.535-2.755-1.561-1.335-1.789 2.477-.364 6.084-2.339 5.627-2.658-.618-.385-7.53-1.772-6.362-1.772 1.492 0 3.301-.189 6.267-.417 6.589-.231.325-.479 2.124-.553 3.995-.101 2.531-.308 3.409-.802 3.409-.472 0-.728.893-.886 3.095-.444 6.223-1.523 3.964-1.772-3.717-.178-5.504-.35-6.81-.886-6.81-.528 0-.689-1.079-.794-5.261-.07-2.893-.323-5.528-.554-5.853-.234-.325-.423-4.687-.423-9.688 0-8.284-.07-9.092-.774-9.013-.694.082-.799-.783-.998-7.965-.182-6.605-.34-8.05-.886-8.05-.536 0-.69-1.146-.792-5.879-.07-3.232-.322-6.144-.553-6.469-.235-.328-.427-3.017-.427-5.977 0-4.743-.091-5.371-.774-5.295-.637.072-.816-.575-.998-3.629-.165-2.752-.392-3.718-.886-3.718-.49 0-.701-.858-.799-3.266-.08-1.96-.308-3.115-.57-2.887-1.478 1.275-3.215-4.15-2.98-9.313.14-3.051.035-4.086-.442-4.342-.497-.265-.56-1.171-.318-4.352.287-3.758.252-4.017-.589-4.017-.49 0-1.015-.278-1.166-.618-.956-2.162-48.931-.527-48.941 1.666-.007 1.171-.869 1.606-1.572.789-.505-.587-.788-.587-1.293 0-.353.41-.83.587-1.061.388-.227-.199-.535.088-.686.631-.151.543-.557.836-.907.65-.41-.221-.679.136-.77 1.019-.221 2.175-2.308 1.887-2.494-.344-.192-2.363-.623-2.13-1.544.834-.518 1.678-.994 2.42-1.404 2.199-.396-.211-.669.158-.76 1.029-.074.748-.438 1.357-.802 1.357-.364 0-.882.391-1.152.871-.63 1.129-1.506.353-1.506-1.341 0-3.194-.851.192-.973 3.878-.102 3.08-.288 4.023-.799 4.023-.441 0-.739.827-.886 2.478-.168 1.877-.409 2.458-.994 2.392-.655-.07-.778.46-.778 3.436 0 1.938-.182 3.79-.402 4.112-.225.325-.473 1.284-.557 2.136-.221 2.326-1.446 1.966-1.615-.473-.087-1.269-.318-1.871-.619-1.609-.266.227-.701.025-.97-.455-.827-1.474-1.8-1-2.035.991-.525 4.38-1.544 2.073-1.779-4.027-.266-6.803-.809-6.289-.984.931l-.119 4.955-1.548-.007c-.854-.003-1.772.389-2.038.868-.266.483-.693.695-.949.474-.255-.221-.571-.019-.7.454-.291 1.064-2.577.972-3.537-.142-.623-.726-.718-.448-.837 2.484-.098 2.436-.308 3.3-.798 3.3-.364 0-.774.556-.907 1.237-.133.682-.533 1.241-.886 1.241-.354 0-.862.388-1.131.867-.599 1.073-1.506.382-1.506-1.145 0-1.572-1.352-1.303-2.378.467-.455.789-1.103 1.284-1.439 1.104-.49-.261-.613.66-.613 4.57 0 4.942-.525 6.662-1.506 4.913-1.099-1.966-1.81-.972-2.038 2.847-.164 2.751-.392 3.714-.886 3.714-.535 0-.707 1.31-.886 6.813-.248 7.681-1.327 9.94-1.772 3.717-.255-3.575-1.397-4.373-1.771-1.24-.13 1.102-.491 1.859-.886 1.859-.365 0-.771.559-.904 1.237-.133.682-.532 1.24-.886 1.24-.483 0-.7 1.095-.865 4.336-.171 3.301-.382 4.333-.886 4.333-.367 0-.886.391-1.152.871-.266.476-.704.678-.97.448-.315-.271-.532.508-.623 2.228-.095 1.855-.333 2.647-.799 2.647-.395 0-.756.758-.886 1.859-.133 1.098-.493 1.856-.886 1.856-.367 0-.812.315-.991.703-1.078 2.329-3.214.55-3.459-2.887-.361-5.071-.837-2.484-.97 5.283-.095 5.569-.238 6.81-.781 6.81-.533 0-.708 1.24-.886 6.194-.312 8.726-1.489 9.038-1.678.442-.091-4.03-.276-5.623-.619-5.324-.274.234-.715.035-.981-.441-.27-.48-.777-.871-1.131-.871s-.753-.556-.886-1.237c-.791-4.056-1.576-1.073-1.793 6.813-.238 8.668-1.39 12.073-1.674 4.954-.171-4.342-.413-5.122-1.148-3.717-.967 1.843-1.608.495-1.608-3.374 0-3.058-.119-3.597-.774-3.525-.637.073-.816-.574-.998-3.629-.164-2.751-.392-3.717-.886-3.717-.532 0-.689-1.146-.791-5.876-.07-3.235-.322-6.144-.553-6.472-.235-.325-.428-1.348-.428-2.269 0-2.096-1.761-6.829-2.353-6.318-.241.208-.655-.009-.924-.489-.266-.48-.785-.871-1.152-.871-.519 0-.69-1.007-.795-4.617-.074-2.537-.35-4.983-.617-5.431-.343-.58-.388-8.653-.157-28.051.224-18.659.182-27.236-.133-27.236-.298 0-.427 2.789-.375 7.895.074 6.659-.017 7.896-.578 7.896-.567 0-.648-1.351-.542-9.133.112-8.574.07-9.135-.708-9.135-.455 0-1.19-.559-1.632-1.241-.896-1.388-2.003-1.593-2.77-.52-.388.542-.675.53-1.176-.054-.382-.442-.911-.555-1.236-.268-.316.277-1.349.577-2.298.669-.949.091-1.992.479-2.325.864-.452.524-.77.505-1.267-.069-.519-.606-.806-.609-1.31-.028-.354.413-.837.58-1.075.375-.238-.202-.494.24-.574.985-.19 1.814-1.247 2.215-1.552.587-.343-1.837-.942-1.622-1.106.397-.217 2.654-1.443 2.181-1.608-.618-.143-2.421-2.742-3.774-2.742-1.43 0 1.471-.886 1.777-1.8.622-.521-.663-.857-1.897-.857-3.159v-2.07h-8.808c-8.432 0-8.817.054-9.038 1.237-.154.827-.602 1.24-1.351 1.24-.977 0-1.142.3-1.261 2.323-.095 1.565-.354 2.322-.802 2.322-.448 0-.711-.757-.802-2.322-.091-1.547-.357-2.323-.791-2.323-.358 0-.834-.628-1.061-1.395-.298-1.013-.386-.211-.319 2.941.077 3.5-.035 4.336-.571 4.336-.525 0-.648-.754-.578-3.559.049-2.077-.101-3.563-.364-3.563-.29 0-.399 3.238-.308 9.136.123 7.794.046 9.135-.522 9.135-.532 0-.707 1.237-.886 6.192-.178 4.954-.353 6.194-.886 6.194-.49 0-.721.963-.886 3.715-.164 2.751-.392 3.717-.886 3.717-.441 0-.738.824-.886 2.477-.252 2.837-1.337 3.396-1.8.928l-.29-1.549-.511 1.767c-.33 1.142-.736 1.644-1.149 1.423-.515-.275-.665.533-.77 4.118-.162 5.56-1.314 6.495-1.681 1.363-.571-7.99-1.541-3.584-1.772 8.051-.186 9.359-.326 11.149-.886 11.149-.522 0-.711 1.167-.886 5.573-.189 4.821-.326 5.563-.995 5.487-.676-.072-.774.524-.774 4.705 0 3.951-.15 4.98-.857 5.873-1.17 1.477-1.8.742-1.8-2.098 0-1.881-.162-2.355-.778-2.288-.651.072-.809-.606-.994-4.248-.28-5.443-1.415-6.239-1.772-1.24-.827 11.521-1.552 2.824-1.66-19.818-.074-15.895-.263-23.333-.62-24.286-.347-.931-.431-3.66-.259-8.514.207-5.917.143-7.144-.378-7.144-.477 0-.627.959-.627 3.988 0 2.197-.2 4.163-.445 4.374-.241.208-.441 2.679-.441 5.485 0 2.808-.193 5.374-.427 5.702-.235.328-.487 3.8-.554 7.709-.22 12.361-1.421 10.007-1.579-3.089-.066-5.614-.315-10.477-.553-10.808-.238-.332-.431-3.178-.431-6.324 0-3.15-.2-5.898-.445-6.106-.241-.212-.441-1.843-.441-3.629 0-1.787-.224-3.56-.501-3.945-.329-.461-.43-2.559-.297-6.128.234-6.182-2.276-11.235-3.831-7.716-.137.312-.925.492-1.751.401-1.692-.19-3.365 3.013-3.365 6.444 0 .95-.295 2.067-.655 2.486-1.184 1.37-2.003 4.481-2.003 7.593 0 2.54-.151 3.115-.886 3.386-.785.284-.886.843-.886 4.86 0 2.493-.2 4.708-.441 4.916-.246.212-.445 2.484-.445 5.049 0 4.131-.098 4.705-.876 4.989-.84.307-.882.957-.998 14.34-.133 15.734-1.302 21.585-1.565 7.826-.196-10.306-.753-8.735-.991 2.79-.266 13.168-1.362 16.04-1.768 4.642-.179-4.955-.358-6.192-.886-6.192-.557 0-.687-1.556-.788-9.587-.07-5.27-.319-9.855-.554-10.186-.238-.332-.43-1.228-.43-1.992 0-.76-.2-1.558-.445-1.77-.245-.211-.441-2.985-.441-6.191 0-5.883-.722-8.757-.974-3.885-.105 2.076-.301 2.626-.91 2.559-.61-.072-.774.404-.774 2.2 0 1.256-.193 2.553-.427 2.881-.235.328-.487 3.799-.554 7.709-.105 5.832-.248 7.113-.791 7.113s-.707 1.376-.886 7.432c-.196 6.592-.308 7.422-.998 7.346-.683-.072-.774.549-.774 5.295 0 2.96-.193 5.649-.424 5.977-.234.325-.483 3.238-.556 6.469-.119 5.491-.19 5.88-1.054 5.88-.508 0-1.205.309-1.548.687-.343.382-1.464.66-2.49.622-1.758-.063-1.87.035-1.993 1.786-.567 8.107-1.463 1.026-1.568-12.386-.067-9.009-.291-14.734-.603-15.576-.35-.931-.448-7.722-.329-22.746.133-16.808.049-21.484-.389-21.718-.416-.224-.511-1.991-.371-6.977.102-3.673.084-5.706-.038-4.513-.119 1.193-.592 2.727-1.047 3.405-.547.824-.872 2.386-.963 4.645-.102 2.531-.309 3.409-.802 3.409-.55 0-.704 1.511-.886 8.668-.217 8.448-1.268 12.715-1.681 6.813-.354-5.077-.778-2.792-.977 5.264-.256 10.398-1.418 13.494-1.681 4.472-.154-5.393-.977-5.491-.977-.117 0 2.512-.277 4.352-.886 5.863-.487 1.215-.886 3.257-.886 4.541 0 1.285-.186 2.6-.41 2.922-.227.325-.476 1.566-.553 2.758-.326 4.939-1.464 2.5-1.59-3.408-.133-6.204-.49-8.388-.959-5.882-.161.852-.582 1.546-.935 1.546-.354 0-.76.559-.897 1.241-.14.681-.588 1.199-.998 1.151-.448-.053-.742.366-.742 1.048 0 .625-.2 1.307-.445 1.515-.245.211-.441 1.565-.441 3.01 0 1.446-.193 2.891-.424 3.216-.231.325-.48 2.679-.553 5.232-.235 8.293-1.411 6.349-1.681-2.786-.245-8.243-1.31-10.837-1.772-4.336-.35 4.885-1.513 4.244-1.684-.928-.074-2.215-.326-4.292-.554-4.614-.231-.325-.42-1.492-.42-2.597 0-1.104-.199-2.177-.444-2.389-.26-.224-.442-3.802-.442-8.634 0-7.731-.056-8.274-.886-8.577-.823-.3-.886-.842-.886-7.681 0-6.942-.049-7.356-.886-7.356-.83 0-.886.414-.886 6.555 0 3.607-.192 6.826-.43 7.157-.235.331-.484 4.358-.554 8.949-.112 7.511-.203 8.341-.9 8.262-.703-.079-.773.697-.773 8.391 0 4.664-.186 8.744-.41 9.066-.228.325-.476 1.565-.557 2.758-.105 1.616-.336 2.146-.917 2.08-.456-.054-.774.344-.774.959 0 .578-.186 1.313-.41 1.635-.228.325-.476 1.565-.557 2.758-.091 1.423-.367 2.165-.805 2.165-.417 0-.76-.811-.921-2.165-.427-3.604-.83-.865-.956 6.501-.102 6.052-.203 6.803-.89 6.728-.704-.083-.777.665-.777 7.772 0 4.32-.193 8.126-.427 8.457-.235.328-.487 4.077-.554 8.328-.122 7.441-1.117 11.278-1.603 6.182-.081-.849-.33-1.811-.554-2.136-.224-.322-.406-3.844-.406-7.826 0-6.514-.077-7.23-.774-7.154-.697.082-.788-.751-.9-8.262-.066-4.591-.318-8.618-.553-8.949-.235-.332-.431-3.882-.431-7.89 0-6.141-.136-7.636-.886-9.495-.588-1.464-.886-3.351-.886-5.627 0-2.297-.157-3.288-.476-3.01-.543.467-3.064-2.654-3.064-3.787 0-.407-.322-1.108-.711-1.562-.392-.455-.921-1.534-1.18-2.398-.424-1.436-.483-1.468-.658-.335-.389 2.452-.97 2.452-2.77-.003-.974-1.329-1.769-2.78-1.769-3.222 0-.442-.269-.802-.595-.802-1.226 0-2.063-2.205-2.063-5.431 0-1.741-.199-3.338-.444-3.55-.273-.233-.442.808-.442 2.714 0 1.704-.199 3.269-.444 3.481-.263.227-.442 4.02-.442 9.29s-.182 9.063-.444 9.287c-.245.215-.441 3.099-.441 6.523 0 4.989-.165 6.548-.886 8.341-.487 1.215-.886 2.698-.886 3.301 0 .605-.182 1.363-.407 1.685-.22.325-.472 1.265-.553 2.089-.21 2.111-1.166 2.316-1.698.363l-.445-1.644-1.107 1.836c-.651 1.083-1.106 2.616-1.106 3.727 0 1.038-.2 2.058-.441 2.269-.246.211-.445 1.284-.445 2.389 0 1.104-.182 2.272-.406 2.597-.221.322-.47 1.284-.554 2.136-.084.871-.437 1.547-.812 1.547-.473 0-.728.896-.886 3.098l-.221 3.096h-3.985l-.136-3.405c-.077-1.874-.326-3.673-.554-3.995-.231-.325-.42-1.215-.42-1.978 0-.761-.199-1.559-.441-1.771-.245-.208-.445-2.439-.445-4.954 0-4.308-.655-6.936-.963-3.879-.451 4.428-1.477 1.159-1.6-5.093-.07-3.572-.319-6.762-.553-7.091-.235-.328-.428-3.727-.428-7.558 0-3.973-.189-7.125-.441-7.343-.259-.224-.445-3.815-.445-8.672 0-4.856-.182-8.444-.441-8.668-.245-.212-.441-2.844-.441-5.851 0-4.828-.091-5.459-.777-5.384-.666.073-.795-.577-.907-4.556-.074-2.556-.323-4.911-.554-5.236-.231-.321-.42-1.492-.42-2.594 0-1.104-.199-2.18-.445-2.392-.241-.208-.441-2.142-.441-4.294 0-4.327-.756-6.123-1.975-4.709-.354.414-.854.571-1.106.351-.274-.237-.463.214-.463 1.088 0 1.714-1.211 5.396-1.772 5.396-.602 0-1.771-3.739-1.771-5.667 0-2.963-.83-1.96-.974 1.18-.158 3.44-1.317 4.185-1.684 1.082-.242-2.019-1.215-2.458-2.07-.93-.284.511-.651.738-.819.504-.168-.233-.75.3-1.293 1.184-1.173 1.909-2.02 1.451-2.02-1.086 0-1.312-.172-1.707-.637-1.458-.435.234-.935-.574-1.58-2.559-.823-2.521-1.015-2.764-1.481-1.874-.487.934-.648.94-1.852.063-1.307-.953-1.317-.95-1.45.83-.343 4.553-2.599 4.616-2.826.079l-.14-2.768-2.105-.019c-1.971-.016-2.101.082-2.101 1.591-.003 1.707-1.201 3.657-2.252 3.657-.5-.003-.63 1.231-.63 6.037 0 5.371-.084 6.03-.774 5.951-.711-.078-.774.789-.774 10.25 0 6.005-.185 10.594-.441 10.95-.277.388-.48 13.308-.553 34.962-.109 32.273-.161 34.34-.89 34.258-.718-.079-.774 1.023-.774 15.204 0 9.136-.175 15.536-.434 15.896-.245.34-.487 5.863-.553 12.613-.116 11.3-.357 13.434-1.39 12.013Z" fill="url(#b)" style="fill-rule: nonzero; clip-rule: evenodd; stroke-linejoin: round; stroke-miterlimit: 2;" class="fills"/></g></g></g></svg>