<svg width="290" xmlns="http://www.w3.org/2000/svg" height="240" fill="none"><g data-testid="svg-g" style="fill: rgb(0, 0, 0);"><path d="M185.668 22.901V10.828a7.68 7.68 0 0 1 7.684-7.683 7.68 7.68 0 0 1 7.684 7.683v12.073m-41.222 0V10.828a7.68 7.68 0 0 1 7.712-7.683c4.201 0 7.656 3.455 7.656 7.654v12.073m-41.251.029V10.828a7.68 7.68 0 0 1 7.684-7.683 7.68 7.68 0 0 1 7.684 7.683v12.073m-41.251 0V10.828a7.68 7.68 0 0 1 7.684-7.683 7.68 7.68 0 0 1 7.684 7.683v12.073m-41.251 0V10.828a7.68 7.68 0 0 1 7.684-7.683 7.68 7.68 0 0 1 7.684 7.683v12.073m-41.222 0V10.828a7.68 7.68 0 0 1 7.684-7.683 7.68 7.68 0 0 1 7.684 7.683v12.073m129.357 115.212v13.517a7.68 7.68 0 0 1-7.684 7.683 7.68 7.68 0 0 1-7.684-7.683v-13.517m-10.486 0v13.517a7.68 7.68 0 0 1-7.684 7.683 7.68 7.68 0 0 1-7.684-7.683v-13.517m-10.515 0v13.517a7.68 7.68 0 0 1-7.684 7.683 7.68 7.68 0 0 1-7.684-7.683v-13.517m-10.515 0v13.517a7.68 7.68 0 0 1-7.684 7.683 7.68 7.68 0 0 1-7.684-7.683v-13.517m-10.515 0v13.517a7.68 7.68 0 0 1-7.684 7.683 7.68 7.68 0 0 1-7.684-7.683v-13.517m-10.486.751v12.795a7.68 7.68 0 0 1-7.684 7.683 7.68 7.68 0 0 1-7.684-7.683v-12.795" style="fill-rule: evenodd; clip-rule: evenodd; stroke-linejoin: round; fill: rgb(255, 255, 255);" class="fills" data-testid="svg-path"/><path d="M204.906 22.901H52.44a2.816 2.816 0 0 0-2.802 2.802V135.34a2.805 2.805 0 0 0 2.802 2.802h152.438a2.805 2.805 0 0 0 2.802-2.802V25.703a2.78 2.78 0 0 0-2.774-2.802Z" style="fill-rule: evenodd; clip-rule: evenodd; stroke-linejoin: round; fill: rgb(255, 255, 255);" class="fills" data-testid="svg-path"/><path d="M95.742 86.847h8.29v22.384h49.831V86.847h8.29l-8.348-8.376V63.827h-5.2v9.474l-19.672-19.669-33.191 33.215Z" style="fill-rule: nonzero; clip-rule: evenodd; stroke-linejoin: round;" class="fills" data-testid="svg-path"/><g data-testid="svg-path"><path d="M95.742 86.847h8.29v22.384h49.831V86.847h8.29l-8.348-8.376V63.827h-5.2v9.474l-19.672-19.669-33.191 33.215Z" style="fill-rule: evenodd; clip-rule: evenodd; stroke-linejoin: round; fill: none;" class="fills"/><g class="strokes" style="fill-rule: evenodd; clip-rule: evenodd; stroke-linejoin: round; fill: none;"><path d="M95.742 86.847h8.29v22.384h49.831V86.847h8.29l-8.348-8.376V63.827h-5.2v9.474l-19.672-19.669-33.191 33.215Z" style="fill: none; stroke-width: 1.96; stroke: rgb(0, 0, 0); stroke-opacity: 1;" class="stroke-shape"/></g></g><path d="M46.143 134.589H3.361a3.119 3.119 0 0 1-3.117-3.119l-.003-11.235a3.12 3.12 0 0 1 3.12-3.117l31.143-.003s0-4.996-.003-4.996H3.361A3.119 3.119 0 0 1 .244 109L.241 97.793a3.125 3.125 0 0 1 3.12-3.119h31.143s0-4.997-.003-4.997H3.361a3.119 3.119 0 0 1-3.117-3.119L.241 75.323a3.125 3.125 0 0 1 3.12-3.12l31.143.003s0-4.971-.003-4.973H3.361a3.115 3.115 0 0 1-3.117-3.117V29.515a3.114 3.114 0 0 1 3.117-3.116 3.115 3.115 0 0 1 3.117 3.116s0 31.482.002 31.485h31.141a3.117 3.117 0 0 1 3.117 3.116l.003 11.207a3.126 3.126 0 0 1-3.12 3.119H6.478s0 4.997.002 4.999l31.141-.002a3.12 3.12 0 0 1 3.117 3.119l.003 11.235a3.124 3.124 0 0 1-3.12 3.119l-31.143-.002s0 4.97.002 4.973h31.141A3.117 3.117 0 0 1 40.738 109l.003 11.235a3.124 3.124 0 0 1-3.12 3.119H6.478v5h39.665V25.703c0-3.455 2.842-6.297 6.297-6.297h.725v-8.578C53.165 4.844 58.009 0 63.995 0c5.985 0 10.83 4.844 10.83 10.828v8.578h4.194v-8.578C79.019 4.844 83.863 0 89.849 0c5.985 0 10.83 4.844 10.83 10.828v8.578h4.223v-8.578c0-5.984 4.844-10.828 10.83-10.828 5.985 0 10.83 4.844 10.83 10.828v8.578h4.223v-8.578c0-5.984 4.844-10.828 10.83-10.828a10.823 10.823 0 0 1 10.829 10.828v8.578h4.224v-8.578c0-5.984 4.844-10.828 10.83-10.828h.028c5.925 0 10.801 4.875 10.801 10.799v8.607h4.195v-8.578c0-5.984 4.844-10.828 10.83-10.828a10.823 10.823 0 0 1 10.829 10.828v8.578h.725a6.265 6.265 0 0 1 6.269 6.297V135.34c0 3.507-2.857 6.297-6.297 6.297h-.697v9.993a10.823 10.823 0 0 1-10.829 10.828c-5.986 0-10.83-4.844-10.83-10.828v-9.993h-4.195v9.993a10.823 10.823 0 0 1-10.829 10.828c-5.986 0-10.83-4.844-10.83-10.828v-9.993h-4.224v9.993a10.823 10.823 0 0 1-10.829 10.828c-5.986 0-10.83-4.844-10.83-10.828v-9.993h-4.223v9.993c0 5.984-4.845 10.828-10.83 10.828-5.986 0-10.83-4.844-10.83-10.828v-9.993h-4.223v9.993c0 5.984-4.845 10.828-10.83 10.828-5.986 0-10.83-4.844-10.83-10.828v-9.993h-4.194v10.022c0 5.984-4.845 10.828-10.83 10.828-5.986 0-10.83-4.844-10.83-10.828v-10.022h-.725c-3.507 0-6.297-2.857-6.297-6.297v-.751ZM59.457 19.406h9.076v-8.578a4.536 4.536 0 0 0-4.538-4.537 4.536 4.536 0 0 0-4.538 4.537v8.578Zm25.854 0h9.076v-8.578a4.536 4.536 0 0 0-4.538-4.537 4.536 4.536 0 0 0-4.538 4.537v8.578Zm25.883 0h9.076v-8.578a4.536 4.536 0 0 0-4.538-4.537 4.536 4.536 0 0 0-4.538 4.537v8.578Zm25.882 0h9.077v-8.578a4.536 4.536 0 0 0-4.538-4.537 4.536 4.536 0 0 0-4.539 4.537v8.578Zm25.883 0h9.077v-8.607c0-2.472-2.037-4.508-4.51-4.508h-.028a4.536 4.536 0 0 0-4.539 4.537v8.578Zm25.854 0h9.077v-8.578a4.536 4.536 0 0 0-4.538-4.537 4.536 4.536 0 0 0-4.539 4.537v8.578Zm9.077 122.231h-9.077v9.993a4.536 4.536 0 0 0 4.539 4.537 4.536 4.536 0 0 0 4.538-4.537v-9.993Zm-25.854 0h-9.077v9.993a4.536 4.536 0 0 0 4.539 4.537 4.536 4.536 0 0 0 4.538-4.537v-9.993Zm-25.883 0h-9.077v9.993a4.536 4.536 0 0 0 4.539 4.537 4.536 4.536 0 0 0 4.538-4.537v-9.993Zm-25.883 0h-9.076v9.993a4.536 4.536 0 0 0 4.538 4.537 4.536 4.536 0 0 0 4.538-4.537v-9.993Zm-25.883 0h-9.076v9.993a4.536 4.536 0 0 0 4.538 4.537 4.536 4.536 0 0 0 4.538-4.537v-9.993Zm-25.854 0h-9.076v10.022a4.536 4.536 0 0 0 4.538 4.537 4.536 4.536 0 0 0 4.538-4.537v-10.022Zm-15.4-115.241v108.251h151.051V26.396H53.133ZM.001 193.659h32.232v12.834h-6.085v-7.659H10.091v14.511h13.504v5.144H10.091v15.378h16.057v-7.659h6.085v12.805H0v-5.147h4.275v-35.031H0l.001-5.176Zm61.288 12.325c0-1.755-.317-3.072-.95-3.949-.633-.877-1.336-1.546-2.107-2.004a8.757 8.757 0 0 0-2.493-1.078 9.98 9.98 0 0 0-2.73-.388c-1.505 0-2.821.18-3.948.538-1.128.34-2.068.808-2.82 1.407a5.976 5.976 0 0 0-1.661 2.093 5.84 5.84 0 0 0-.564 2.514c0 1.316.228 2.382.682 3.2a6.247 6.247 0 0 0 1.78 1.946 9.44 9.44 0 0 0 2.346 1.136c.87.279 1.701.559 2.492.838l5.996 1.975c1.8.579 3.384 1.236 4.748 1.973 1.385.739 2.543 1.616 3.473 2.634a10.01 10.01 0 0 1 2.107 3.47c.495 1.316.742 2.842.742 4.577 0 1.875-.386 3.61-1.157 5.206a12.432 12.432 0 0 1-3.176 4.158c-1.365 1.177-2.998 2.104-4.897 2.783-1.879.658-3.947.987-6.203.987-2.315 0-4.295-.27-5.937-.808-1.641-.518-3.026-1.217-4.153-2.094-1.109-.898-1.999-1.915-2.673-3.051a16.717 16.717 0 0 1-1.572-3.501h-2.256v-5.147h7.479c0 2.215.228 3.781.683 4.698a6.644 6.644 0 0 0 1.958 2.304c.831.599 1.821 1.057 2.969 1.376 1.147.299 2.414.449 3.799.449 1.345 0 2.552-.16 3.62-.48 1.089-.318 2.009-.777 2.761-1.375a6.088 6.088 0 0 0 1.751-2.214c.416-.877.624-1.865.624-2.961 0-1.217-.258-2.244-.772-3.082a7.271 7.271 0 0 0-1.929-2.184 11.182 11.182 0 0 0-2.613-1.466 36.769 36.769 0 0 0-2.701-.987l-6.5-1.855a19.436 19.436 0 0 1-3.917-1.674 11.967 11.967 0 0 1-3.027-2.485c-.831-.977-1.474-2.114-1.929-3.411-.455-1.316-.683-2.831-.683-4.547 0-1.735.337-3.359 1.009-4.876.673-1.515 1.663-2.842 2.968-3.978 1.306-1.137 2.899-2.025 4.778-2.664 1.9-.658 4.067-.987 6.5-.987 1.604 0 3.078.19 4.423.569 1.365.379 2.591.918 3.68 1.615a12.026 12.026 0 0 1 2.908 2.484 14.331 14.331 0 0 1 2.137 3.17h2.226v5.147l-7.271-.001ZM74.2 193.659h18.194c2.018 0 3.867.269 5.549.807 1.702.519 3.166 1.297 4.393 2.334 1.247 1.017 2.206 2.293 2.879 3.829.692 1.536 1.038 3.302 1.038 5.296a11.19 11.19 0 0 1-1.009 4.697 11.67 11.67 0 0 1-2.848 3.83c-1.227 1.095-2.702 1.963-4.423 2.601-1.702.639-3.602.958-5.699.958h-7.983v15.855h4.511v5.147H74.2v-5.147h4.273v-35.031H74.2v-5.176Zm10.09 5.175v14.272h8.104c1.127 0 2.156-.15 3.085-.45.951-.318 1.762-.777 2.435-1.375a5.965 5.965 0 0 0 1.602-2.244c.397-.897.594-1.935.594-3.111 0-2.234-.673-3.969-2.018-5.206-1.346-1.257-3.493-1.885-6.441-1.885l-7.361-.001Zm59.27-5.175h14.603v5.145h-4.273v35.063h4.274v5.146H143.56v-5.147h4.513v-16.303h-26.03v16.305h4.511v5.145h-14.602v-5.147h4.274v-35.061h-4.274v-5.146h14.602v5.146h-4.511v13.732h26.03v-13.733h-4.513v-5.145Zm21.43 29.856c.02-2.452.406-4.686 1.157-6.7.772-2.015 1.84-3.741 3.205-5.177a13.861 13.861 0 0 1 4.868-3.349c1.879-.778 3.947-1.167 6.203-1.167 2.276 0 4.353.389 6.232 1.166 1.9.778 3.523 1.885 4.868 3.321 1.345 1.416 2.394 3.132 3.147 5.146.751 2.014 1.127 4.247 1.127 6.701 0 2.413-.376 4.637-1.127 6.671-.753 2.015-1.802 3.75-3.147 5.205-1.345 1.457-2.968 2.594-4.868 3.411-1.879.797-3.957 1.197-6.232 1.197-2.315 0-4.412-.4-6.291-1.197-1.881-.798-3.493-1.915-4.839-3.349-1.345-1.458-2.394-3.193-3.146-5.207-.752-2.015-1.138-4.238-1.157-6.672Zm5.846 0c0 1.776.247 3.381.743 4.817.513 1.437 1.206 2.663 2.077 3.68a9.863 9.863 0 0 0 3.057 2.334 8.761 8.761 0 0 0 3.71.807c1.365 0 2.632-.269 3.799-.807a8.974 8.974 0 0 0 3.087-2.304c.871-1.017 1.554-2.243 2.048-3.68.494-1.437.742-3.052.742-4.847 0-1.874-.248-3.54-.742-4.995-.495-1.456-1.178-2.674-2.048-3.651a8.245 8.245 0 0 0-3.058-2.214c-1.186-.498-2.463-.747-3.828-.747a9.358 9.358 0 0 0-3.71.747 8.932 8.932 0 0 0-3.057 2.214c-.871.977-1.564 2.195-2.077 3.651-.496 1.455-.743 3.121-.743 4.995Zm30.897-15.497h9.794v3.62h.06a23.188 23.188 0 0 1 2.107-1.615 16.272 16.272 0 0 1 2.344-1.346 14.13 14.13 0 0 1 2.523-.898c.89-.219 1.811-.329 2.76-.329 2.217 0 4.126.419 5.729 1.256 1.603.818 2.84 2.105 3.71 3.86a32.3 32.3 0 0 1 2.374-1.945 16.995 16.995 0 0 1 2.583-1.645 15.94 15.94 0 0 1 2.849-1.107 11.314 11.314 0 0 1 3.086-.419c1.662 0 3.155.23 4.481.689 1.326.458 2.454 1.156 3.384 2.093.93.938 1.632 2.145 2.107 3.62.495 1.456.743 3.182.743 5.176v14.838h4.274v5.147h-14.365v-5.147h4.332v-14.148c0-2.375-.593-4.17-1.781-5.386-1.186-1.237-2.898-1.854-5.134-1.854-1.326 0-2.681.318-4.066.956-1.385.639-2.571 1.446-3.561 2.424v18.01h4.245v5.145h-14.337v-5.147h4.333v-14.148c0-2.375-.604-4.17-1.811-5.386-1.187-1.237-2.898-1.854-5.134-1.854-1.287 0-2.582.309-3.888.927a19.432 19.432 0 0 0-3.71 2.304v18.157h4.333v5.147h-14.365v-5.147h4.275v-20.701h-4.275l.001-5.147Zm66.126 16.216c0 .877.06 1.684.179 2.422.139.718.326 1.407.563 2.065.732 1.995 1.9 3.501 3.502 4.518 1.623.998 3.454 1.496 5.491 1.496 1.603 0 3.156-.22 4.66-.659 1.524-.458 3.116-1.167 4.779-2.124l2.225 3.799c-2.018 1.396-4.046 2.433-6.084 3.112a19.994 19.994 0 0 1-6.352 1.018c-2.078 0-4.007-.35-5.787-1.048a12.457 12.457 0 0 1-4.571-3.112c-1.266-1.375-2.266-3.091-2.998-5.145-.712-2.054-1.068-4.447-1.068-7.18 0-2.214.307-4.298.92-6.253.614-1.974 1.525-3.689 2.731-5.146 1.227-1.476 2.74-2.642 4.541-3.5 1.8-.858 3.898-1.287 6.292-1.287 2.315 0 4.245.36 5.787 1.078 1.564.698 2.83 1.636 3.799 2.812a11.696 11.696 0 0 1 2.226 3.98 22.912 22.912 0 0 1 1.247 6.88c.04.777.059 1.535.059 2.273l-22.141.001Zm8.637-12.356c-1.286 0-2.414.189-3.384.568a6.54 6.54 0 0 0-2.433 1.586c-.673.678-1.217 1.515-1.632 2.513-.396.998-.693 2.114-.892 3.35h15.939a14.399 14.399 0 0 0-.564-3.2c-.277-.977-.713-1.825-1.306-2.543-.593-.718-1.355-1.276-2.285-1.675-.93-.4-2.078-.599-3.443-.599Z" style="fill-rule: evenodd; clip-rule: evenodd; stroke-linejoin: round;" class="fills" data-testid="svg-path"/></g></svg>