<svg width="185" xmlns="http://www.w3.org/2000/svg" height="279" fill="none"><g data-testid="home-assistant-wordmark-vertical-color-on-dark" style="fill: rgb(0, 0, 0);"><path d="M185 173.708c0 6.376-5.203 11.593-11.562 11.593H11.563C5.203 185.301 0 180.084 0 173.708v-69.557c0-6.376 3.677-15.278 8.179-19.792L84.321 8.016c4.494-4.505 11.856-4.505 16.35 0l76.15 76.35c4.494 4.506 8.179 13.417 8.179 19.793v69.549Z" style="fill: rgb(242, 244, 249);" class="fills" data-testid="svg-path"/><path d="M176.821 84.359 100.679 8.016c-4.494-4.505-11.856-4.505-16.35 0L8.179 84.359C3.685 88.865 0 97.775 0 104.151v69.557c0 6.376 5.203 11.593 11.563 11.593h71.124L51.368 153.9c-1.611.556-3.33.873-5.118.873-8.71 0-15.802-7.11-15.802-15.843 0-8.734 7.092-15.844 15.802-15.844s15.802 7.11 15.802 15.844c0 1.8-.316 3.524-.871 5.139l24.382 24.445V78.956c-5.242-2.581-8.865-7.975-8.865-14.212 0-8.733 7.092-15.844 15.802-15.844s15.802 7.111 15.802 15.844c0 6.237-3.623 11.631-8.864 14.212v62.81l24.25-24.314a15.89 15.89 0 0 1-.74-4.792c0-8.733 7.092-15.843 15.802-15.843s15.802 7.11 15.802 15.843c0 8.734-7.092 15.844-15.802 15.844-1.927 0-3.762-.363-5.465-.997l-33.847 33.936v23.866h74c6.359 0 11.562-5.217 11.562-11.593v-69.557c0-6.376-3.677-15.279-8.179-19.8Z" style="fill: rgb(25, 188, 243); fill-opacity: 1;" class="fills" data-testid="svg-path"/><path d="M3.145 200.942h5.507v13.583l14.288.044v-13.627h5.55v32.497h-5.55v-13.98l-14.288-.043v14.023H3.145v-32.497ZM44.604 210.878c3.354 0 6.086 1.082 8.195 3.239 2.109 2.158 3.163 4.934 3.163 8.323 0 3.388-1.054 6.145-3.163 8.303-2.109 2.158-4.841 3.24-8.195 3.24-3.355 0-6.13-1.082-8.239-3.24-2.109-2.158-3.164-4.928-3.164-8.303 0-3.376 1.055-6.183 3.164-8.335 2.109-2.152 4.859-3.227 8.239-3.227Zm0 18.369c1.794 0 3.249-.637 4.366-1.905 1.122-1.267 1.677-2.918 1.677-4.946 0-2.028-.561-3.672-1.677-4.921-1.123-1.255-2.578-1.88-4.366-1.88-1.789 0-3.318.625-4.447 1.88-1.128 1.255-1.689 2.893-1.689 4.921 0 2.028.561 3.679 1.689 4.946 1.129 1.268 2.609 1.905 4.447 1.905ZM93.419 219.459v13.98h-5.094v-13.17c0-1.521-.388-2.708-1.171-3.567-.784-.86-1.844-1.28-3.189-1.28-1.43 0-2.571.47-3.422 1.404-.851.933-1.277 2.244-1.277 3.926v12.693h-5.161v-13.169c0-1.521-.382-2.709-1.141-3.568-.758-.859-1.813-1.28-3.157-1.28-1.431 0-2.578.47-3.448 1.404-.869.933-1.301 2.244-1.301 3.926v12.693h-5.247v-21.955h4.877l.173 2.108c1.27-1.867 3.349-2.807 6.222-2.807 1.678 0 3.127.346 4.36 1.045 1.227.693 2.158 1.713 2.8 3.042.536-1.274 1.418-2.275 2.657-2.999 1.24-.723 2.708-1.088 4.41-1.088 2.485 0 4.458.767 5.92 2.306 1.461 1.534 2.189 3.661 2.189 6.356ZM118.863 224.393h-16.78c.173 1.651.795 2.912 1.862 3.784 1.067.872 2.43 1.305 4.076 1.305 2.677 0 4.545-1.113 5.618-3.345l4.379 1.737c-.827 1.929-2.122 3.432-3.891 4.52-1.77 1.088-3.805 1.632-6.106 1.632-3.237 0-5.864-1.063-7.88-3.184-2.017-2.121-3.022-4.909-3.022-8.359s1.017-6.251 3.046-8.415c2.029-2.158 4.687-3.24 7.968-3.24 3.28 0 5.815 1.064 7.782 3.197 1.967 2.133 2.948 4.934 2.948 8.415v1.953Zm-16.694-3.697h11.359c-.098-1.781-.641-3.141-1.615-4.075-.975-.933-2.288-1.403-3.935-1.403-1.646 0-2.96.476-3.99 1.422-1.023.952-1.634 2.3-1.819 4.056ZM20.683 270.387H8.35l-2.664 7.562H0l11.704-32.497h5.68l11.729 32.497h-5.809l-2.621-7.562Zm-1.603-4.674-4.533-12.996-4.576 12.996h9.109ZM39.405 274.301c1.085 0 1.943-.216 2.571-.643.629-.427.944-1.063.944-1.904 0-1.175-.789-1.954-2.362-2.35l-3.015-.804c-4.151-1.131-6.222-3.27-6.222-6.411 0-2.016.727-3.66 2.189-4.934 1.461-1.274 3.422-1.91 5.895-1.91 2.214 0 4.064.507 5.562 1.52 1.499 1.014 2.411 2.406 2.744 4.174l-4.705 1.107c-.098-.798-.468-1.429-1.097-1.892-.629-.464-1.406-.693-2.331-.693s-1.696.235-2.276.705c-.579.47-.869 1.082-.869 1.836 0 .606.216 1.113.647 1.521.432.408 1.104.73 2.017.977l2.972.742c1.979.538 3.49 1.348 4.532 2.436 1.043 1.088 1.561 2.43 1.561 4.019 0 2.059-.771 3.697-2.319 4.915s-3.675 1.824-6.395 1.824c-2.516 0-4.532-.556-6.049-1.663-1.517-1.107-2.411-2.603-2.689-4.489l4.792-.847c.086.872.474 1.546 1.159 2.034.684.489 1.603.73 2.744.73ZM59.293 274.301c1.085 0 1.942-.216 2.571-.643.629-.427.944-1.063.944-1.904 0-1.175-.79-1.954-2.362-2.35l-3.016-.804c-4.15-1.131-6.222-3.27-6.222-6.411 0-2.016.728-3.66 2.189-4.934 1.462-1.274 3.423-1.91 5.896-1.91 2.213 0 4.063.507 5.562 1.52 1.498 1.014 2.411 2.406 2.744 4.174l-4.705 1.107c-.099-.798-.469-1.429-1.098-1.892-.629-.464-1.406-.693-2.331-.693s-1.696.235-2.275.705c-.58.47-.87 1.082-.87 1.836 0 .606.216 1.113.648 1.521.431.408 1.104.73 2.016.977l2.973.742c1.979.538 3.49 1.348 4.532 2.436 1.042 1.088 1.56 2.43 1.56 4.019 0 2.059-.771 3.697-2.319 4.915-1.547 1.218-3.675 1.824-6.394 1.824-2.516 0-4.533-.556-6.05-1.663-1.517-1.107-2.411-2.603-2.688-4.489l4.791-.847c.086.872.475 1.546 1.159 2.034.685.489 1.604.73 2.745.73ZM71.379 248.395c0-.94.321-1.731.962-2.368.642-.637 1.425-.958 2.35-.958s1.689.327 2.331.977c.641.649.962 1.434.962 2.349 0 .915-.321 1.7-.962 2.356-.642.661-1.419.989-2.331.989-.913 0-1.69-.328-2.344-.989-.653-.662-.974-1.447-.968-2.356ZM77.318 256v21.955H72.07V256h5.248ZM90.015 274.301c1.085 0 1.942-.216 2.571-.643.629-.427.944-1.063.944-1.904 0-1.175-.79-1.954-2.362-2.35l-3.016-.804c-4.15-1.131-6.222-3.27-6.222-6.411 0-2.016.728-3.66 2.189-4.934 1.462-1.274 3.423-1.91 5.896-1.91 2.214 0 4.064.507 5.562 1.52 1.499 1.014 2.411 2.406 2.744 4.174l-4.705 1.107c-.099-.798-.469-1.429-1.098-1.892-.628-.464-1.405-.693-2.33-.693-.926 0-1.696.235-2.276.705-.58.47-.869 1.082-.869 1.836 0 .606.215 1.113.647 1.521.432.408 1.104.73 2.017.977l2.972.742c1.979.538 3.49 1.348 4.532 2.436 1.042 1.088 1.56 2.43 1.56 4.019 0 2.059-.77 3.697-2.318 4.915s-3.676 1.824-6.395 1.824c-2.516 0-4.533-.556-6.05-1.663-1.516-1.107-2.411-2.603-2.688-4.489l4.791-.847c.087.872.475 1.546 1.16 2.034.684.489 1.603.73 2.744.73ZM114.441 277.955c-1.505.334-2.775.501-3.817.501-2.214 0-3.935-.606-5.168-1.824s-1.856-3.03-1.856-5.435v-10.739h-3.361V256h3.361v-6.844h5.205V256h5.05v4.458h-5.05v9.806c0 2.374.919 3.567 2.75 3.567.592 0 1.332-.154 2.214-.457l.672 4.581ZM132.01 277.955c-.173-.711-.296-1.546-.37-2.498-.635.94-1.536 1.694-2.701 2.251-1.166.556-2.51.834-4.046.834-2.398 0-4.322-.643-5.765-1.922-1.443-1.28-2.171-3.018-2.171-5.206 0-2.189.709-3.821 2.134-5.033 1.424-1.212 3.373-1.818 5.84-1.818h6.567v-.847c0-1.379-.401-2.405-1.203-3.085-.801-.68-1.923-1.02-3.373-1.02-2.559 0-4.39 1.069-5.507 3.215l-3.817-2.238c1.85-3.494 5.051-5.237 9.602-5.237 2.762 0 5.02.711 6.783 2.133 1.776 1.434 2.664 3.747 2.664 6.931v8.736c0 2.479.13 4.081.389 4.804h-5.026Zm-.457-9.763h-5.395c-1.227 0-2.183.285-2.862.847-.678.563-1.017 1.342-1.017 2.325 0 .983.345 1.812 1.042 2.35.697.538 1.684.803 2.972.803 1.548 0 2.812-.488 3.793-1.465.98-.977 1.474-2.43 1.474-4.359l-.007-.501ZM161.875 264.415v13.54h-5.223v-12.409c0-2.09-.493-3.512-1.474-4.285-.937-.766-2.035-1.15-3.293-1.15-1.517 0-2.781.489-3.793 1.46-1.011.97-1.516 2.355-1.516 4.148v12.236h-5.248V256h4.921l.172 2.368c.623-.928 1.523-1.663 2.707-2.207 1.184-.544 2.48-.816 3.879-.816 2.831 0 5.02.785 6.556 2.355 1.535 1.571 2.306 3.809 2.312 6.715ZM178.624 277.955c-1.505.334-2.775.501-3.817.501-2.214 0-3.935-.606-5.168-1.824-1.234-1.218-1.856-3.03-1.856-5.435v-10.739h-3.361V256h3.361v-6.844h5.204V256h5.051v4.458h-5.051v9.806c0 2.374.919 3.567 2.751 3.567.592 0 1.332-.154 2.214-.457l.672 4.581Z" style="fill: rgb(35, 113, 150); fill-opacity: 1;" class="fills" data-testid="svg-path"/></g></svg>