<svg width="196" xmlns="http://www.w3.org/2000/svg" height="152" id="screenshot-0e9516de-119f-8057-8003-da9b18d18076" fill="none" version="1.1"><style>@font-face{font-family:&apos;Roboto&apos;;font-style:normal;font-weight:700;font-display:block;src:url(https://design.penpot.app/internal/gfonts/font/roboto/v30/KFOlCnqEu92Fr1MmWUlfCRc4EsA.woff2) format(&apos;woff2&apos;);unicode-range:U+0460-052F, U+1C80-1C88, U+20B4, U+2DE0-2DFF, U+A640-A69F, U+FE2E-FE2F}@font-face{font-family:&apos;Roboto&apos;;font-style:normal;font-weight:700;font-display:block;src:url(https://design.penpot.app/internal/gfonts/font/roboto/v30/KFOlCnqEu92Fr1MmWUlfABc4EsA.woff2) format(&apos;woff2&apos;);unicode-range:U+0301, U+0400-045F, U+0490-0491, U+04B0-04B1, U+2116}@font-face{font-family:&apos;Roboto&apos;;font-style:normal;font-weight:700;font-display:block;src:url(https://design.penpot.app/internal/gfonts/font/roboto/v30/KFOlCnqEu92Fr1MmWUlfCBc4EsA.woff2) format(&apos;woff2&apos;);unicode-range:U+1F00-1FFF}@font-face{font-family:&apos;Roboto&apos;;font-style:normal;font-weight:700;font-display:block;src:url(https://design.penpot.app/internal/gfonts/font/roboto/v30/KFOlCnqEu92Fr1MmWUlfBxc4EsA.woff2) format(&apos;woff2&apos;);unicode-range:U+0370-0377, U+037A-037F, U+0384-038A, U+038C, U+038E-03A1, U+03A3-03FF}@font-face{font-family:&apos;Roboto&apos;;font-style:normal;font-weight:700;font-display:block;src:url(https://design.penpot.app/internal/gfonts/font/roboto/v30/KFOlCnqEu92Fr1MmWUlfCxc4EsA.woff2) format(&apos;woff2&apos;);unicode-range:U+0102-0103, U+0110-0111, U+0128-0129, U+0168-0169, U+01A0-01A1, U+01AF-01B0, U+0300-0301, U+0303-0304, U+0308-0309, U+0323, U+0329, U+1EA0-1EF9, U+20AB}@font-face{font-family:&apos;Roboto&apos;;font-style:normal;font-weight:700;font-display:block;src:url(https://design.penpot.app/internal/gfonts/font/roboto/v30/KFOlCnqEu92Fr1MmWUlfChc4EsA.woff2) format(&apos;woff2&apos;);unicode-range:U+0100-02AF, U+0304, U+0308, U+0329, U+1E00-1E9F, U+1EF2-1EFF, U+2020, U+20A0-20AB, U+20AD-20C0, U+2113, U+2C60-2C7F, U+A720-A7FF}@font-face{font-family:&apos;Roboto&apos;;font-style:normal;font-weight:700;font-display:block;src:url(https://design.penpot.app/internal/gfonts/font/roboto/v30/KFOlCnqEu92Fr1MmWUlfBBc4.woff2) format(&apos;woff2&apos;);unicode-range:U+0000-00FF, U+0131, U+0152-0153, U+02BB-02BC, U+02C6, U+02DA, U+02DC, U+0304, U+0308, U+0329, U+2000-206F, U+2074, U+20AC, U+2122, U+2191, U+2193, U+2212, U+2215, U+FEFF, U+FFFD}</style><g id="shape-0e9516de-119f-8057-8003-da9b18d18076" data-testid="Group"><g xmlns:xlink="http://www.w3.org/1999/xlink" xml:space="preserve" id="shape-0e9516de-119f-8057-8003-da973ded35a1" data-testid="new_assist" style="fill: rgb(0, 0, 0);"><g id="shape-0e9516de-119f-8057-8003-da973deea78c" data-testid="svg-path"><path d="M53.2 152c-4.172 0-7.6-3.428-7.6-7.6v-22.8H15.2c-8.337 0-15.2-6.863-15.2-15.2V15.2C0 6.764 6.84 0 15.2 0h121.6c8.337 0 15.2 6.863 15.2 15.2v91.2c0 8.337-6.863 15.2-15.2 15.2H90.44l-28.12 28.196C60.8 151.24 58.9 152 57 152h-3.8Z" style="fill-rule: nonzero; clip-rule: evenodd; stroke-linejoin: round; stroke-miterlimit: 2; fill: rgb(255, 255, 255);" class="fills" id="fills-0e9516de-119f-8057-8003-da973deea78c"/></g><g id="shape-0e9516de-119f-8057-8003-da973deec2f1" data-testid="svg-path"><path d="M53.2 152c-4.172 0-7.6-3.428-7.6-7.6v-22.8H15.2c-8.337 0-15.2-6.863-15.2-15.2V15.2C0 6.764 6.84 0 15.2 0h121.6c8.337 0 15.2 6.863 15.2 15.2v91.2c0 8.337-6.863 15.2-15.2 15.2H90.44l-28.12 28.196C60.8 151.24 58.9 152 57 152h-3.8Zm-8.52-64.668 23.902 23.902h12.685V93.062l25.794-25.794c1.315.486 2.729.752 4.211.752 6.657 0 12.053-5.396 12.053-12.038 0-6.643-5.396-12.039-12.053-12.039-6.65 0-12.054 5.396-12.054 12.039 0 1.246.19 2.447.547 3.579L81.267 78.052v-47.72c4.005-1.954 6.764-6.065 6.764-10.815 0-6.643-5.404-12.039-12.054-12.039s-12.053 5.396-12.053 12.039c0 4.735 2.743 8.839 6.733 10.807v67.974L52.182 79.823c.41-1.216.638-2.523.638-3.876 0-6.65-5.404-12.039-12.054-12.039s-12.053 5.389-12.053 12.039c0 6.642 5.403 12.038 12.053 12.038 1.368 0 2.691-.228 3.914-.653Z" style="fill-rule: nonzero; clip-rule: evenodd; stroke-linejoin: round; stroke-miterlimit: 2; fill: rgb(25, 188, 243); fill-opacity: 1;" class="fills" id="fills-0e9516de-119f-8057-8003-da973deec2f1"/></g></g><g id="shape-0e9516de-119f-8057-8003-da9a7a8bd70a" data-testid="Board"><g class="fills" id="fills-0e9516de-119f-8057-8003-da9a7a8bd70a"><rect width="102" height="23" class="frame-background" x="94" style="fill: rgb(249, 251, 255); fill-opacity: 0.9;" ry="6" rx="6" y="129"/></g><g class="frame-children"><g class="text-container" id="shape-0e9516de-119f-8057-8003-da9a66757118" data-testid="How can I help?"><defs><pattern patternUnits="userSpaceOnUse" x="94" y="129" width="77.971" height="12.75" id="fill-0-render-6-0"><rect width="77.971" height="12.75" style="fill: rgb(35, 113, 150); fill-opacity: 1;"/></pattern></defs><text x="106.012" y="146.49" dominant-baseline="ideographic" textLength="77.971" lengthAdjust="spacingAndGlyphs" style="text-transform: none; font-family: Roboto; letter-spacing: normal; font-style: normal; font-weight: 700; white-space: pre; font-size: 11px; text-decoration: none solid rgb(35, 113, 150); direction: ltr; fill: rgb(35, 113, 150); fill-opacity: 1;" class="fills" id="fills-0e9516de-119f-8057-8003-da9a66757118">How can I help?</text></g></g><g id="strokes-0e9516de-119f-8057-8003-da9a7a8bd70a" class="strokes"><g class="stroke-shape"><rect width="102" height="23" class="frame-background" x="94" style="fill: none; stroke-width: 1; stroke: rgb(35, 113, 150); stroke-opacity: 0.420065;" ry="6" rx="6" y="129"/></g></g></g></g></svg>