<svg width="638" xmlns="http://www.w3.org/2000/svg" height="475" fill="none"><g data-testid="remote_access" xmlns:xlink="http://www.w3.org/1999/xlink" style="fill: rgb(0, 0, 0);"><g style="opacity: 0.1;"><path d="M550.259 63.037a18.064 18.064 0 0 0-10.482 1.144 15.441 15.441 0 0 1-12.588-.031 17.659 17.659 0 0 0-14.8.287 9.133 9.133 0 0 1-4.263 1.069c-6 0-10.994-6.045-12.032-14.022a11.615 11.615 0 0 0 3.001-3.239c3.518-5.67 8.969-9.309 15.088-9.309s11.5 3.595 15 9.209a11.583 11.583 0 0 0 10.001 5.477h.156c4.738 0 8.875 3.826 10.919 9.415Z" style="fill: rgb(3, 169, 244);" class="fills" data-testid="svg-path"/></g><g style="opacity: 0.1;"><path d="m568.51 37.998-9.701 6.159 5.888-10.716a9.615 9.615 0 0 0-5.869-2.094h-.156a11.501 11.501 0 0 1-2.013-.144l-3.275 2.082 1.413-2.564a11.668 11.668 0 0 1-5.75-4.376l-5.888 3.751 3.75-6.758c-3.444-4.132-8.082-6.671-13.182-6.671-6.119 0-11.569 3.645-15.088 9.316a11.25 11.25 0 0 1-10 5.376h-.332c-6.756 0-12.231 7.665-12.231 17.111 0 9.447 5.431 17.105 12.213 17.105a9.19 9.19 0 0 0 4.262-1.063 17.635 17.635 0 0 1 14.801-.293 15.441 15.441 0 0 0 12.588.031 17.676 17.676 0 0 1 14.675.281 9.152 9.152 0 0 0 4.213 1.044c6.757 0 12.232-7.658 12.232-17.111a21.754 21.754 0 0 0-2.55-10.466Z" style="fill: rgb(3, 169, 244);" class="fills" data-testid="svg-path"/></g><g data-testid="svg-g" style="opacity: 0.1; fill: rgb(0, 0, 0);"><path d="M80.403 410.475v3.951c0 8.125 6.585 14.711 14.707 14.711s14.707-6.586 14.707-14.711v-3.92c0-8.124-6.585-14.71-14.707-14.71s-14.707 6.586-14.707 14.679ZM109.817 347.707v-3.926c0-8.125-6.585-14.711-14.707-14.711s-14.707 6.586-14.707 14.711v3.92c-.004 1.44.206 2.873.625 4.251a14.7 14.7 0 0 0 16.201 10.222c7.183-1.062 12.515-7.21 12.588-14.467Z" style="fill: rgb(63, 61, 86);" class="fills" data-testid="svg-path"/><path d="M80.403 377.128v3.926c0 8.124 6.585 14.711 14.707 14.711s14.707-6.587 14.707-14.711v-3.926c0-8.124-6.585-14.711-14.707-14.711s-14.707 6.587-14.707 14.711ZM95.11 429.105c-8.11.024-14.679 6.593-14.707 14.705v3.92c0 8.124 6.585 14.71 14.707 14.71s14.707-6.586 14.707-14.71v-3.92c-.024-8.114-6.596-14.684-14.707-14.705Z" style="fill: rgb(63, 61, 86);" class="fills" data-testid="svg-path"/><path d="M109.817 344.162v3.545a14.7 14.7 0 0 1-28.751 4.251ZM109.817 377.541v3.544a14.7 14.7 0 0 1-28.751 4.252ZM109.817 410.85v3.576a14.7 14.7 0 0 1-28.751 4.251ZM109.817 444.191v3.545a14.7 14.7 0 0 1-28.751 4.251Z" class="fills" data-testid="svg-path" style="opacity: 0.1;"/><path d="m140.524 381.292-1.175.906a5.558 5.558 0 0 1-7.913-7.633 5.356 5.356 0 0 1 1.125-1.169l1.175-.907a5.557 5.557 0 0 1 7.795 1.007 5.56 5.56 0 0 1-1.007 7.796Z" style="fill: rgb(63, 61, 86);" class="fills" data-testid="svg-path"/><path d="m123.761 380.198-1.169.906a5.56 5.56 0 0 0 1.211 9.648 5.556 5.556 0 0 0 5.577-.852l1.169-.9a5.559 5.559 0 0 0-6.788-8.802Z" style="fill: rgb(63, 61, 86);" class="fills" data-testid="svg-path"/><path d="m113.792 387.894-1.175.9a5.557 5.557 0 0 0 1.211 9.648 5.557 5.557 0 0 0 5.577-.852l1.175-.9a5.56 5.56 0 0 0 1.006-7.796 5.548 5.548 0 0 0-7.794-1Z" style="fill: rgb(63, 61, 86);" class="fills" data-testid="svg-path"/><path d="m103.817 395.59-1.169.9a5.557 5.557 0 1 0 6.788 8.802l1.168-.906a5.56 5.56 0 0 0-1.21-9.648 5.554 5.554 0 0 0-5.577.852Z" style="fill: rgb(63, 61, 86);" class="fills" data-testid="svg-path"/><path d="m140.412 381.392-1.063.819a5.555 5.555 0 0 1-7.249-.402 5.56 5.56 0 0 1-.664-7.232ZM130.436 389.088l-1.056.812a5.556 5.556 0 0 1-7.888-7.627ZM120.467 396.777l-1.062.819a5.558 5.558 0 0 1-7.913-7.627Z" class="fills" data-testid="svg-path" style="opacity: 0.1;"/><path d="M135.312 198.645c9.206 0 16.669 7.465 16.669 16.674 0 9.208-7.463 16.673-16.669 16.673 9.078.176 16.346 7.588 16.346 16.671 0 9.082-7.268 16.494-16.346 16.67 9.078.176 16.346 7.588 16.346 16.671 0 9.082-7.268 16.494-16.346 16.67 9.206 0 16.669 7.465 16.669 16.674 0 9.208-7.463 16.673-16.669 16.673H54.915c-9.207 0-16.67-7.465-16.67-16.673 0-9.209 7.463-16.674 16.67-16.674a16.675 16.675 0 1 1 0-33.341 16.675 16.675 0 1 1 0-33.341c-9.207 0-16.67-7.465-16.67-16.673 0-9.209 7.463-16.674 16.67-16.674a16.675 16.675 0 1 1 0-33.341 16.675 16.675 0 1 1 0-33.341h3.675c2.112-14.341 18.313-25.501 37.995-25.501s35.883 11.16 37.995 25.501h.732c9.078.176 16.346 7.588 16.346 16.671 0 9.082-7.268 16.494-16.346 16.67 9.078.176 16.346 7.588 16.346 16.671 0 9.082-7.268 16.494-16.346 16.67Z" style="fill: rgb(3, 169, 244);" class="fills" data-testid="svg-path"/><path d="M151.975 148.637c-.028 9.193-7.472 16.64-16.663 16.667H54.915l79.903-33.341h.494c9.193.028 16.639 7.478 16.663 16.674ZM38.739 181.978c.027 9.196 7.476 16.643 16.669 16.667h80.391l-79.903-33.341h-.488c-9.194.028-16.642 7.477-16.669 16.674ZM38.739 248.659c.027 9.198 7.475 16.647 16.669 16.674h80.391l-79.903-33.341h-.488c-9.193.024-16.642 7.471-16.669 16.667ZM38.739 315.348c.027 9.197 7.475 16.646 16.669 16.673h80.391l-79.903-33.347h-.488c-9.194.027-16.642 7.476-16.669 16.674Z" class="fills" data-testid="svg-path" style="opacity: 0.1;"/><path d="M151.975 215.319c-.024 9.196-7.47 16.646-16.663 16.673H54.915l79.903-33.347h.494c9.193.027 16.639 7.477 16.663 16.674ZM151.975 282.007c-.028 9.193-7.472 16.639-16.663 16.667H54.915l79.903-33.341h.494c9.193.028 16.639 7.477 16.663 16.674Z" class="fills" data-testid="svg-path" style="opacity: 0.1;"/><path d="m142.743 398.509-26.476-14.254a6.252 6.252 0 1 1 5.913-10.978 6.252 6.252 0 1 1 5.906-10.978l1.213.625c3.237-4.376 10.544-5.152 17.025-1.663 6.482 3.488 9.845 10.04 7.995 15.135l.243.132a6.252 6.252 0 0 1-5.887 11.015 6.252 6.252 0 1 1-5.932 10.966Z" style="fill: rgb(3, 169, 244);" class="fills" data-testid="svg-path"/><path d="M157.119 384.999a6.249 6.249 0 0 1-8.444 2.544l-26.47-14.254 32.22 3.189.162.087a6.253 6.253 0 0 1 2.532 8.434Z" class="fills" data-testid="svg-path" style="opacity: 0.1;"/><path d="M113.923 375.896a6.254 6.254 0 0 0 2.532 8.447l26.476 14.254-20.407-25.145-.157-.088a6.25 6.25 0 0 0-8.444 2.532Z" class="fills" data-testid="svg-path" style="opacity: 0.1;"/></g><g data-testid="svg-g" style="opacity: 0.1; fill: rgb(0, 0, 0);"><path d="M299.412 417.221v3.219c0 6.664-5.401 12.066-12.063 12.066-6.662 0-12.063-5.402-12.063-12.066v-3.219c0-6.664 5.401-12.066 12.063-12.066 6.662 0 12.063 5.402 12.063 12.066ZM275.286 365.731v-3.195c0-6.664 5.401-12.066 12.063-12.066 6.662 0 12.063 5.402 12.063 12.066v3.214a11.918 11.918 0 0 1-.519 3.488 12.057 12.057 0 0 1-13.313 8.473c-5.925-.876-10.309-5.97-10.294-11.98Z" style="fill: rgb(63, 61, 86);" class="fills" data-testid="svg-path"/><path d="M299.412 389.869v3.22c0 6.664-5.401 12.066-12.063 12.066-6.662 0-12.063-5.402-12.063-12.066v-3.22c0-6.664 5.401-12.066 12.063-12.066 6.662 0 12.063 5.402 12.063 12.066ZM287.349 432.506c6.656.021 12.046 5.415 12.063 12.073v3.213c0 6.664-5.401 12.066-12.063 12.066-6.662 0-12.063-5.402-12.063-12.066v-3.213c.017-6.658 5.407-12.052 12.063-12.073Z" style="fill: rgb(63, 61, 86);" class="fills" data-testid="svg-path"/><path d="M275.286 362.824v2.907a12.057 12.057 0 0 0 23.607 3.488ZM275.286 390.175v2.914a12.064 12.064 0 0 0 23.607 3.488ZM275.286 417.552v2.907a12.064 12.064 0 0 0 23.607 3.489ZM275.286 444.885v2.907a12.058 12.058 0 0 0 10.279 11.99 12.055 12.055 0 0 0 13.328-8.47Z" class="fills" data-testid="svg-path" style="opacity: 0.1;"/><path d="m250.097 393.295.963.738a4.558 4.558 0 0 0 5.569-7.215l-.963-.737a4.557 4.557 0 0 0-5.569 7.214Z" style="fill: rgb(63, 61, 86);" class="fills" data-testid="svg-path"/><path d="m263.848 392.382.962.744a4.56 4.56 0 0 1-5.569 7.221l-.962-.744a4.558 4.558 0 0 1 1.051-7.827 4.557 4.557 0 0 1 4.518.606Z" style="fill: rgb(63, 61, 86);" class="fills" data-testid="svg-path"/><path d="m272.023 398.697.963.744a4.56 4.56 0 0 1-5.569 7.22l-.963-.743a4.561 4.561 0 0 1-.825-6.396 4.557 4.557 0 0 1 6.394-.825Z" style="fill: rgb(63, 61, 86);" class="fills" data-testid="svg-path"/><path d="m280.205 405.011.962.744a4.56 4.56 0 0 1-5.569 7.221l-.975-.744a4.561 4.561 0 0 1-.825-6.396 4.572 4.572 0 0 1 6.407-.825Z" style="fill: rgb(63, 61, 86);" class="fills" data-testid="svg-path"/><path d="m250.185 393.364.875.669a4.558 4.558 0 0 0 6.488-6.252ZM258.373 399.678l.875.669a4.555 4.555 0 0 0 5.928-.338 4.56 4.56 0 0 0 .559-5.914ZM266.548 405.993l.869.668a4.555 4.555 0 0 0 5.94-.326 4.558 4.558 0 0 0 .554-5.925Z" class="fills" data-testid="svg-path" style="opacity: 0.1;"/><path d="M254.372 243.445a13.676 13.676 0 0 0-12.086 6.753 13.682 13.682 0 0 0 0 13.847 13.673 13.673 0 0 0 12.086 6.752 13.673 13.673 0 0 0-12.086 6.752 13.684 13.684 0 0 0 0 13.848 13.673 13.673 0 0 0 12.086 6.752c-7.552 0-13.675 6.124-13.675 13.679 0 7.554 6.123 13.679 13.675 13.679a13.673 13.673 0 0 0-12.086 6.752 13.682 13.682 0 0 0 0 13.847 13.673 13.673 0 0 0 12.086 6.752h65.953a13.676 13.676 0 0 0 12.087-20.599 13.676 13.676 0 0 0-12.087-6.752c7.553 0 13.676-6.125 13.676-13.679 0-7.555-6.123-13.679-13.676-13.679a13.676 13.676 0 0 0 12.087-6.752 13.684 13.684 0 0 0 0-13.848 13.676 13.676 0 0 0-12.087-6.752 13.676 13.676 0 0 0 12.087-20.599 13.68 13.68 0 0 0-12.087-6.753c7.553 0 13.676-6.124 13.676-13.678 0-7.555-6.123-13.679-13.676-13.679a13.677 13.677 0 0 0 12.087-6.753 13.676 13.676 0 0 0-12.087-20.599h-3.013c-1.731-11.766-15-20.919-31.17-20.919-16.169 0-29.438 9.153-31.17 20.919h-.625a13.673 13.673 0 0 0-12.086 6.752 13.682 13.682 0 0 0 0 13.847 13.674 13.674 0 0 0 12.086 6.753c-7.552 0-13.675 6.124-13.675 13.679 0 7.554 6.123 13.678 13.7 13.678Z" style="fill: rgb(3, 169, 244);" class="fills" data-testid="svg-path"/><path d="M240.697 202.409c.021 7.546 6.131 13.658 13.675 13.679h65.953l-65.553-27.352h-.4c-7.541.02-13.651 6.129-13.675 13.673ZM333.601 229.767c-.041 7.537-6.14 13.637-13.676 13.678h-65.928l65.559-27.357h.4c7.524.058 13.604 6.153 13.645 13.679ZM333.601 284.476c-.028 7.541-6.137 13.646-13.676 13.667h-65.928l65.559-27.352h.4c7.535.038 13.627 6.149 13.645 13.685ZM333.601 339.186c-.024 7.543-6.134 13.652-13.676 13.672h-65.928l65.559-27.351h.4c7.532.037 13.624 6.145 13.645 13.679Z" class="fills" data-testid="svg-path" style="opacity: 0.1;"/><path d="M240.697 257.118c.021 7.546 6.131 13.659 13.675 13.679h65.953l-65.553-27.352h-.4c-7.541.021-13.651 6.129-13.675 13.673ZM240.697 311.828c.041 7.537 6.14 13.638 13.675 13.679h65.953l-65.553-27.364h-.4c-7.538.041-13.637 6.145-13.675 13.685Z" class="fills" data-testid="svg-path" style="opacity: 0.1;"/><path d="m248.253 407.412 21.72-11.697a5.117 5.117 0 0 0 2.078-6.931 5.114 5.114 0 0 0-6.928-2.078 5.115 5.115 0 0 0-4.844-9.009l-.994.537c-2.656-3.569-8.656-4.226-13.975-1.362-5.319 2.863-8.069 8.233-6.557 12.416l-.194.106a5.115 5.115 0 0 0 4.844 9.009 5.117 5.117 0 0 0 4.85 9.009Z" style="fill: rgb(3, 169, 244);" class="fills" data-testid="svg-path"/><path d="M236.497 396.296a5.131 5.131 0 0 0 6.925 2.082l21.72-11.697-26.433 2.619-.131.069a5.133 5.133 0 0 0-2.081 6.927ZM271.917 388.856a5.128 5.128 0 0 1-2.075 6.927l-21.72 11.697 16.738-20.631.132-.075a5.131 5.131 0 0 1 6.925 2.082Z" class="fills" data-testid="svg-path" style="opacity: 0.1;"/></g><g data-testid="svg-g" style="opacity: 0.1; fill: rgb(0, 0, 0);"><path d="M192.833 436.001v.932a3.463 3.463 0 0 1-6.919 0v-.919a3.462 3.462 0 1 1 6.919-.013ZM185.914 421.241v-.926a3.462 3.462 0 0 1 6.919 0v.926c.001.339-.05.676-.15 1a3.456 3.456 0 0 1-6.769-1Z" style="fill: rgb(63, 61, 86);" class="fills" data-testid="svg-path"/><path d="M192.833 428.18v.919a3.463 3.463 0 0 1-6.919 0v-.919a3.463 3.463 0 1 1 6.919 0ZM189.376 440.377a3.47 3.47 0 0 1 3.457 3.464v.919a3.462 3.462 0 1 1-6.919 0v-.919a3.47 3.47 0 0 1 3.462-3.464Z" style="fill: rgb(63, 61, 86);" class="fills" data-testid="svg-path"/><path d="M185.914 420.409v.832a3.455 3.455 0 0 0 6.769 1ZM185.914 428.249v.831a3.455 3.455 0 0 0 6.769.976ZM185.914 436.089v.844a3.457 3.457 0 0 0 6.769 1ZM185.914 443.929v.831a3.457 3.457 0 0 0 6.769 1Z" class="fills" data-testid="svg-path" style="opacity: 0.1;"/><path d="m178.695 429.137.275.219a1.306 1.306 0 0 0 1.875-1.795 1.275 1.275 0 0 0-.263-.281l-.275-.213a1.306 1.306 0 0 0-1.834.235 1.318 1.318 0 0 0 .222 1.835Z" style="fill: rgb(63, 61, 86);" class="fills" data-testid="svg-path"/><path d="m182.638 428.88.275.213a1.305 1.305 0 0 1-.281 2.27c-.441.177-.944.1-1.312-.201l-.282-.212a1.308 1.308 0 0 1 1.6-2.07Z" style="fill: rgb(63, 61, 86);" class="fills" data-testid="svg-path"/><path d="m184.982 430.681.275.212a1.32 1.32 0 0 1 .238 1.839 1.307 1.307 0 0 1-1.832.231l-.275-.213a1.306 1.306 0 0 1 1.594-2.069ZM187.326 432.5l.275.213a1.307 1.307 0 1 1-1.594 2.069l-.275-.212a1.308 1.308 0 0 1 1.594-2.07Z" style="fill: rgb(63, 61, 86);" class="fills" data-testid="svg-path"/><path d="m178.72 429.162.25.194a1.306 1.306 0 0 0 1.875-1.795ZM181.07 430.969l.25.193a1.305 1.305 0 0 0 1.875-1.794ZM183.413 432.782l.25.187c.57.441 1.39.338 1.832-.231.34-.466.34-1.098 0-1.563Z" class="fills" data-testid="svg-path" style="opacity: 0.1;"/><path d="M179.92 386.187a3.92 3.92 0 0 0-3.919 3.92 3.92 3.92 0 0 0 3.919 3.92 3.926 3.926 0 0 0 0 7.846 3.919 3.919 0 1 0 0 7.839 3.92 3.92 0 0 0-3.919 3.92 3.92 3.92 0 0 0 3.919 3.92h18.907a3.919 3.919 0 0 0 3.918-3.92 3.919 3.919 0 0 0-3.918-3.92 3.919 3.919 0 0 0 0-7.839 3.926 3.926 0 0 0 0-7.846 3.919 3.919 0 0 0 3.918-3.92 3.919 3.919 0 0 0-3.918-3.92 3.919 3.919 0 0 0 3.918-3.92 3.919 3.919 0 0 0-3.918-3.92 3.919 3.919 0 0 0 3.918-3.92 3.919 3.919 0 0 0-3.918-3.92h-.863c-.5-3.369-4.306-5.995-8.938-5.995-4.631 0-8.438 2.626-8.931 5.995h-.175a3.92 3.92 0 0 0-3.919 3.92 3.92 3.92 0 0 0 3.919 3.92 3.92 3.92 0 0 0-3.919 3.92 3.92 3.92 0 0 0 3.919 3.92Z" style="fill: rgb(3, 169, 244);" class="fills" data-testid="svg-path"/><path d="M176.001 374.415a3.932 3.932 0 0 0 3.919 3.92h18.907l-18.789-7.84h-.118a3.932 3.932 0 0 0-3.919 3.92ZM202.633 382.267a3.932 3.932 0 0 1-3.919 3.92h-18.907l18.788-7.84h.119a3.932 3.932 0 0 1 3.919 3.92ZM202.633 397.953a3.94 3.94 0 0 1-3.919 3.92h-18.907l18.788-7.846h.119a3.938 3.938 0 0 1 3.919 3.926ZM202.633 413.632a3.932 3.932 0 0 1-3.919 3.92h-18.907l18.788-7.84h.119a3.932 3.932 0 0 1 3.919 3.92Z" class="fills" data-testid="svg-path" style="opacity: 0.1;"/><path d="M176.001 390.107a3.932 3.932 0 0 0 3.919 3.92h18.907l-18.789-7.84h-.118a3.932 3.932 0 0 0-3.919 3.92ZM176.001 405.792a3.931 3.931 0 0 0 3.919 3.92h18.907l-18.789-7.839h-.118a3.93 3.93 0 0 0-3.919 3.919Z" class="fills" data-testid="svg-path" style="opacity: 0.1;"/><path d="m178.169 433.182 6.251-3.358a3.26 3.26 0 0 1-.794-4.563 1.46 1.46 0 0 0-1.988-.626l-.281.15c-.762-1.019-2.5-1.212-4.006-.387-1.507.825-2.313 2.357-1.875 3.557h-.057a3.264 3.264 0 0 1 .794 4.564 1.469 1.469 0 0 0 1.956.663Z" style="fill: rgb(3, 169, 244);" class="fills" data-testid="svg-path"/><path d="M174.794 430.006a1.47 1.47 0 0 0 1.988.625l6.25-3.351-7.575.744h-.038a1.472 1.472 0 0 0-.625 1.982Z" class="fills" data-testid="svg-path" style="opacity: 0.1;"/><path d="M184.951 427.868c.38.713.115 1.6-.594 1.988l-6.25 3.351 4.794-5.915h.037a1.475 1.475 0 0 1 2.013.576Z" class="fills" data-testid="svg-path" style="opacity: 0.1;"/></g><g data-testid="svg-g" style="opacity: 0.1; fill: rgb(0, 0, 0);"><path d="M366.246 431.375v1.407a5.258 5.258 0 0 1-10.507 0v-1.407a5.257 5.257 0 0 1 10.507 0ZM355.739 408.956v-1.407a5.258 5.258 0 0 1 7.934-4.704 5.26 5.26 0 0 1 2.573 4.704v1.401c0 .515-.078 1.027-.232 1.519a5.25 5.25 0 0 1-10.275-1.513Z" style="fill: rgb(63, 61, 86);" class="fills" data-testid="svg-path"/><path d="M366.246 419.465v1.401a5.255 5.255 0 1 1-10.507 0v-1.401a5.257 5.257 0 0 1 10.507 0ZM360.989 438.033a5.276 5.276 0 0 1 5.257 5.258v1.4a5.258 5.258 0 0 1-10.507 0v-1.4a5.27 5.27 0 0 1 5.25-5.258Z" style="fill: rgb(63, 61, 86);" class="fills" data-testid="svg-path"/><path d="M355.739 407.693v1.25a5.25 5.25 0 0 0 10.275 1.52ZM355.739 419.603v1.25a5.25 5.25 0 0 0 10.275 1.519ZM355.739 431.512v1.251a5.25 5.25 0 0 0 10.275 1.513ZM355.739 443.422v1.25a5.25 5.25 0 0 0 10.275 1.52Z" class="fills" data-testid="svg-path" style="opacity: 0.1;"/><path d="m344.77 420.959.419.319a1.98 1.98 0 0 0 2.825-2.726 2.296 2.296 0 0 0-.4-.418l-.419-.319a1.987 1.987 0 0 0-3.345 1.237 2.036 2.036 0 0 0 .92 1.907Z" style="fill: rgb(63, 61, 86);" class="fills" data-testid="svg-path"/><path d="m350.757 420.559.419.325a1.989 1.989 0 0 1-2.425 3.126l-.419-.325a1.988 1.988 0 1 1 2.425-3.126Z" style="fill: rgb(63, 61, 86);" class="fills" data-testid="svg-path"/><path d="m354.32 423.31.419.325a1.988 1.988 0 0 1-2.425 3.126l-.419-.325a1.99 1.99 0 0 1 .368-3.548 1.986 1.986 0 0 1 2.057.422Z" style="fill: rgb(63, 61, 86);" class="fills" data-testid="svg-path"/><path d="m357.883 426.061.419.325a1.982 1.982 0 0 1-2.426 3.126l-.418-.319a1.99 1.99 0 1 1 2.425-3.132Z" style="fill: rgb(63, 61, 86);" class="fills" data-testid="svg-path"/><path d="m344.807 420.991.382.287a1.98 1.98 0 0 0 2.825-2.726ZM348.376 423.735l.381.294a1.982 1.982 0 0 0 2.826-2.726ZM351.933 426.486l.381.294a1.98 1.98 0 0 0 2.825-2.726Z" class="fills" data-testid="svg-path" style="opacity: 0.1;"/><path d="M346.632 355.709a5.956 5.956 0 0 0-5.55 9.054 5.958 5.958 0 0 0 5.55 2.825 5.955 5.955 0 0 0-5.55 9.053 5.956 5.956 0 0 0 5.55 2.825 5.958 5.958 0 1 0 0 11.91 5.957 5.957 0 0 0-5.956 5.958 5.958 5.958 0 0 0 5.956 5.958h28.72a5.958 5.958 0 0 0 0-11.916 5.958 5.958 0 0 0 0-11.91 5.957 5.957 0 0 0 5.484-5.939 5.957 5.957 0 0 0-5.484-5.939 5.958 5.958 0 0 0 0-11.879 5.957 5.957 0 0 0 0-11.909 5.958 5.958 0 0 0 0-11.916h-1.312c-.757-5.121-6.544-9.109-13.576-9.109-7.031 0-12.819 3.988-13.575 9.109h-.257a5.957 5.957 0 0 0-5.956 5.958 5.958 5.958 0 0 0 5.956 5.958 5.954 5.954 0 0 0-5.319 2.92 5.956 5.956 0 0 0 5.319 8.989Z" style="fill: rgb(3, 169, 244);" class="fills" data-testid="svg-path"/><path d="M340.676 337.842a5.976 5.976 0 0 0 5.956 5.958h28.72l-28.545-11.898h-.175a5.976 5.976 0 0 0-5.956 5.94Z" class="fills" data-testid="svg-path" style="opacity: 0.1;"/><path d="M381.127 349.751a5.976 5.976 0 0 1-5.95 5.958h-28.751l28.576-11.928h.175a5.97 5.97 0 0 1 5.95 5.97ZM381.127 373.577a5.976 5.976 0 0 1-5.95 5.952h-28.751l28.545-11.879h.175a5.976 5.976 0 0 1 5.981 5.927ZM381.127 397.396a5.975 5.975 0 0 1-5.95 5.958h-28.751l28.545-11.916h.175a5.976 5.976 0 0 1 5.981 5.958ZM340.676 361.661a5.976 5.976 0 0 0 5.956 5.958h28.72l-28.545-11.879h-.175a5.97 5.97 0 0 0-5.956 5.921Z" class="fills" data-testid="svg-path" style="opacity: 0.1;"/><path d="M340.676 385.487a5.969 5.969 0 0 0 5.956 5.951h28.72l-28.545-11.909h-.175a5.975 5.975 0 0 0-5.956 5.958Z" class="fills" data-testid="svg-path" style="opacity: 0.1;"/><path d="m343.963 427.105 9.463-5.095a5.003 5.003 0 0 1-1.206-6.94 2.237 2.237 0 0 0-3.019-.9l-.431.231c-1.156-1.556-3.75-1.838-6.082-.625-2.331 1.213-3.518 3.582-2.856 5.408l-.087.044a5.002 5.002 0 0 1 1.206 6.939 2.226 2.226 0 0 0 3.012.938Z" style="fill: rgb(3, 169, 244);" class="fills" data-testid="svg-path"/><path d="M338.838 422.278a2.238 2.238 0 0 0 3.019.901l9.457-5.089-11.513 1.138-.056.031a2.231 2.231 0 0 0-.907 3.019ZM354.27 419.028a2.226 2.226 0 0 1-.906 3.013l-9.457 5.095 7.288-8.959.063-.031a2.225 2.225 0 0 1 3.012.882Z" class="fills" data-testid="svg-path" style="opacity: 0.1;"/></g><g data-testid="svg-g" style="opacity: 0.1; fill: rgb(0, 0, 0);"><path d="M408.291 436.001v.932a3.463 3.463 0 0 0 6.919 0v-.919a3.463 3.463 0 1 0-6.919-.013ZM415.21 421.241v-.926a3.462 3.462 0 0 0-6.919 0v.926c-.001.339.05.676.15 1a3.455 3.455 0 0 0 6.769-1Z" style="fill: rgb(63, 61, 86);" class="fills" data-testid="svg-path"/><path d="M408.291 428.18v.919a3.464 3.464 0 0 0 6.919 0v-.919a3.464 3.464 0 0 0-5.233-3.122 3.464 3.464 0 0 0-1.686 3.122ZM411.747 440.377a3.47 3.47 0 0 0-3.456 3.464v.919a3.464 3.464 0 0 0 5.233 3.122 3.464 3.464 0 0 0 1.686-3.122v-.919a3.47 3.47 0 0 0-3.463-3.464Z" style="fill: rgb(63, 61, 86);" class="fills" data-testid="svg-path"/><path d="M415.21 420.409v.832a3.456 3.456 0 0 1-6.769 1ZM415.21 428.249v.831a3.457 3.457 0 0 1-6.769.976ZM415.21 436.089v.844a3.457 3.457 0 0 1-6.769 1ZM415.21 443.929v.831a3.457 3.457 0 0 1-6.769 1Z" class="fills" data-testid="svg-path" style="opacity: 0.1;"/><path d="m422.429 429.137-.275.219a1.307 1.307 0 0 1-1.875-1.795 1.27 1.27 0 0 1 .262-.281l.275-.213a1.308 1.308 0 0 1 1.835.235 1.318 1.318 0 0 1-.222 1.835Z" style="fill: rgb(63, 61, 86);" class="fills" data-testid="svg-path"/><path d="m418.485 428.88-.275.213a1.308 1.308 0 0 0 1.594 2.069l.281-.212a1.309 1.309 0 0 0-1.6-2.07Z" style="fill: rgb(63, 61, 86);" class="fills" data-testid="svg-path"/><path d="m416.141 430.681-.275.212a1.32 1.32 0 0 0-.237 1.839 1.306 1.306 0 0 0 1.831.231l.275-.213a1.305 1.305 0 0 0-1.594-2.069Z" style="fill: rgb(63, 61, 86);" class="fills" data-testid="svg-path"/><path d="m413.797 432.5-.275.213a1.306 1.306 0 0 0 1.594 2.069l.275-.212a1.307 1.307 0 0 0-1.594-2.07Z" style="fill: rgb(63, 61, 86);" class="fills" data-testid="svg-path"/><path d="m422.404 429.162-.25.194a1.307 1.307 0 0 1-1.875-1.795ZM420.054 430.969l-.25.193a1.306 1.306 0 0 1-1.875-1.794ZM417.71 432.782l-.25.187a1.306 1.306 0 0 1-1.831-.231 1.325 1.325 0 0 1 0-1.563Z" class="fills" data-testid="svg-path" style="opacity: 0.1;"/><path d="M421.204 386.187a3.92 3.92 0 0 1 0 7.84 3.926 3.926 0 0 1 0 7.846 3.92 3.92 0 0 1 0 7.839 3.92 3.92 0 0 1 0 7.84h-18.907a3.92 3.92 0 0 1 0-7.84 3.919 3.919 0 0 1 0-7.839 3.926 3.926 0 0 1 0-7.846 3.92 3.92 0 0 1 0-7.84 3.919 3.919 0 0 1-3.394-5.88 3.919 3.919 0 0 1 3.394-1.96 3.92 3.92 0 0 1 0-7.84h.863c.5-3.369 4.306-5.995 8.937-5.995 4.632 0 8.438 2.626 8.932 5.995h.175a3.92 3.92 0 0 1 0 7.84 3.92 3.92 0 0 1 0 7.84Z" style="fill: rgb(3, 169, 244);" class="fills" data-testid="svg-path"/><path d="M425.123 374.415a3.932 3.932 0 0 1-3.919 3.92h-18.907l18.788-7.84h.119a3.932 3.932 0 0 1 3.919 3.92ZM398.491 382.267a3.931 3.931 0 0 0 3.919 3.92h18.907l-18.789-7.84h-.118a3.931 3.931 0 0 0-3.919 3.92ZM398.491 397.953a3.938 3.938 0 0 0 3.919 3.92h18.907l-18.789-7.846h-.118a3.937 3.937 0 0 0-3.919 3.926ZM398.491 413.632a3.931 3.931 0 0 0 3.919 3.92h18.907l-18.789-7.84h-.118a3.931 3.931 0 0 0-3.919 3.92Z" class="fills" data-testid="svg-path" style="opacity: 0.1;"/><path d="M425.123 390.107a3.932 3.932 0 0 1-3.919 3.92h-18.907l18.788-7.84h.119a3.932 3.932 0 0 1 3.919 3.92ZM425.123 405.792a3.931 3.931 0 0 1-3.919 3.92h-18.907l18.788-7.839h.119a3.93 3.93 0 0 1 3.919 3.919Z" class="fills" data-testid="svg-path" style="opacity: 0.1;"/><path d="m422.954 433.182-6.25-3.358a3.26 3.26 0 0 0 .794-4.563 1.462 1.462 0 0 1 1.987-.626l.281.15c.763-1.019 2.501-1.212 4.007-.387 1.506.825 2.312 2.357 1.875 3.557h.056a3.264 3.264 0 0 0-.794 4.564 1.468 1.468 0 0 1-1.956.663Z" style="fill: rgb(3, 169, 244);" class="fills" data-testid="svg-path"/><path d="M426.329 430.006a1.47 1.47 0 0 1-1.987.625l-6.219-3.351 7.575.744h.037c.709.385.974 1.27.594 1.982Z" class="fills" data-testid="svg-path" style="opacity: 0.1;"/><path d="M416.173 427.868c-.38.713-.116 1.6.593 1.988l6.251 3.351-4.794-5.915h-.038a1.475 1.475 0 0 0-2.012.576Z" class="fills" data-testid="svg-path" style="opacity: 0.1;"/></g><g data-testid="svg-g" style="opacity: 0.1; fill: rgb(0, 0, 0);"><path d="M536.096 412.845v3.219c0 6.664 5.401 12.066 12.063 12.066 6.662 0 12.063-5.402 12.063-12.066v-3.219c0-6.664-5.401-12.066-12.063-12.066-6.662 0-12.063 5.402-12.063 12.066ZM560.222 361.355v-3.195c0-6.664-5.401-12.066-12.063-12.066-6.662 0-12.063 5.402-12.063 12.066v3.213a11.924 11.924 0 0 0 .519 3.489 12.055 12.055 0 0 0 23.607-3.507Z" style="fill: rgb(63, 61, 86);" class="fills" data-testid="svg-path"/><path d="M536.096 385.493v3.22c0 6.663 5.401 12.066 12.063 12.066 6.662 0 12.063-5.403 12.063-12.066v-3.22c0-6.664-5.401-12.066-12.063-12.066-6.662 0-12.063 5.402-12.063 12.066ZM548.159 428.13c-6.656.021-12.046 5.415-12.063 12.072v3.214c0 6.664 5.401 12.066 12.063 12.066 6.662 0 12.063-5.402 12.063-12.066v-3.214c-.017-6.657-5.407-12.051-12.063-12.072Z" style="fill: rgb(63, 61, 86);" class="fills" data-testid="svg-path"/><path d="M560.222 358.448v2.907a12.057 12.057 0 0 1-23.607 3.488ZM560.222 385.799v2.914a12.062 12.062 0 0 1-23.607 3.488ZM560.222 413.176v2.907a12.063 12.063 0 0 1-23.607 3.488ZM560.222 440.509v2.907a12.057 12.057 0 0 1-23.607 3.52Z" class="fills" data-testid="svg-path" style="opacity: 0.1;"/><path d="m585.41 388.919-.962.738a4.557 4.557 0 0 1-5.569-7.215l.962-.738a4.559 4.559 0 0 1 6.394.825 4.553 4.553 0 0 1-.825 6.39Z" style="fill: rgb(63, 61, 86);" class="fills" data-testid="svg-path"/><path d="m571.66 388.006-.963.744a4.562 4.562 0 0 0-.825 6.396 4.558 4.558 0 0 0 6.394.825l.963-.744a4.561 4.561 0 0 0 .825-6.396 4.558 4.558 0 0 0-6.394-.825Z" style="fill: rgb(63, 61, 86);" class="fills" data-testid="svg-path"/><path d="m563.485 394.32-.963.726a4.56 4.56 0 0 0 5.569 7.22l.963-.744a4.561 4.561 0 0 0 .825-6.395 4.538 4.538 0 0 0-6.394-.807Z" style="fill: rgb(63, 61, 86);" class="fills" data-testid="svg-path"/><path d="m555.303 400.635-.963.744a4.561 4.561 0 0 0-.825 6.395 4.558 4.558 0 0 0 6.394.826l.963-.744a4.561 4.561 0 0 0 .825-6.396 4.558 4.558 0 0 0-6.394-.825Z" style="fill: rgb(63, 61, 86);" class="fills" data-testid="svg-path"/><path d="m585.323 388.988-.875.669a4.557 4.557 0 0 1-6.488-6.252ZM577.135 395.302l-.875.669a4.558 4.558 0 0 1-6.488-6.252ZM568.96 401.616l-.869.669a4.556 4.556 0 0 1-6.494-6.252Z" class="fills" data-testid="svg-path" style="opacity: 0.1;"/><path d="M581.135 239.069a13.674 13.674 0 0 1 12.087 6.752 13.684 13.684 0 0 1 0 13.848 13.674 13.674 0 0 1-12.087 6.752 13.674 13.674 0 0 1 12.087 6.752 13.682 13.682 0 0 1 0 13.847 13.675 13.675 0 0 1-12.087 6.753c7.553 0 13.676 6.124 13.676 13.678 0 7.555-6.123 13.679-13.676 13.679a13.675 13.675 0 0 1 12.087 6.753 13.682 13.682 0 0 1 0 13.847 13.674 13.674 0 0 1-12.087 6.752h-65.952a13.674 13.674 0 0 1-12.087-6.752 13.682 13.682 0 0 1 0-13.847 13.675 13.675 0 0 1 12.087-6.753c-7.553 0-13.676-6.124-13.676-13.679 0-7.554 6.123-13.678 13.676-13.678a13.675 13.675 0 0 1-12.087-6.753 13.682 13.682 0 0 1 0-13.847 13.674 13.674 0 0 1 12.087-6.752 13.674 13.674 0 0 1-12.087-6.752 13.684 13.684 0 0 1 0-13.848 13.674 13.674 0 0 1 12.087-6.752c-7.553 0-13.676-6.124-13.676-13.679 0-7.554 6.123-13.679 13.676-13.679a13.674 13.674 0 0 1-12.087-6.752 13.682 13.682 0 0 1 0-13.847 13.674 13.674 0 0 1 12.087-6.752h3.012c1.732-11.766 15.001-20.919 31.17-20.919 16.17 0 29.439 9.153 31.17 20.919h.625a13.674 13.674 0 0 1 12.087 6.752 13.682 13.682 0 0 1 0 13.847 13.674 13.674 0 0 1-12.087 6.752c7.553 0 13.676 6.125 13.676 13.679 0 7.555-6.123 13.679-13.701 13.679Z" style="fill: rgb(3, 169, 244);" class="fills" data-testid="svg-path"/><path d="M594.811 198.032c-.021 7.546-6.131 13.659-13.676 13.679h-65.952l65.552-27.351h.4c7.542.02 13.652 6.129 13.676 13.672Z" class="fills" data-testid="svg-path" style="opacity: 0.1;"/><path d="M501.907 225.39c.041 7.538 6.14 13.638 13.676 13.679h65.959l-65.559-27.358h-.4c-7.536.041-13.635 6.142-13.676 13.679ZM501.907 280.1c.028 7.541 6.136 13.646 13.676 13.666h65.959l-65.559-27.345h-.4c-7.545.02-13.655 6.133-13.676 13.679ZM501.907 334.809c.024 7.544 6.134 13.653 13.676 13.673h65.959l-65.559-27.352h-.4c-7.545.021-13.655 6.133-13.676 13.679ZM594.811 252.742c-.021 7.546-6.131 13.658-13.676 13.679h-65.952l65.552-27.352h.4c7.542.021 13.652 6.129 13.676 13.673ZM594.811 307.451c-.041 7.538-6.14 13.638-13.676 13.679h-65.952l65.552-27.364h.4c7.538.041 13.638 6.145 13.676 13.685Z" class="fills" data-testid="svg-path" style="opacity: 0.1;"/><path d="m587.254 403.035-21.719-11.697a5.117 5.117 0 0 1 4.85-9.009 5.115 5.115 0 0 1 4.844-9.008l.994.537c2.656-3.57 8.656-4.226 13.975-1.363 5.319 2.864 8.069 8.234 6.557 12.416l.193.107a5.114 5.114 0 0 1-4.844 9.009 5.116 5.116 0 0 1-4.85 9.008Z" style="fill: rgb(3, 169, 244);" class="fills" data-testid="svg-path"/><path d="M599.011 391.92a5.131 5.131 0 0 1-6.925 2.082l-21.72-11.698 26.432 2.62.132.069a5.134 5.134 0 0 1 2.081 6.927ZM563.591 384.48a5.127 5.127 0 0 0 2.075 6.927l21.72 11.697-16.739-20.631-.131-.075a5.131 5.131 0 0 0-6.925 2.082Z" class="fills" data-testid="svg-path" style="opacity: 0.1;"/></g><path d="M254.891 250.304a.626.626 0 0 1-.887 0l-.344-.307c-2.781-2.557-4.375-4.213-4.375-6.283 0-1.688 1.062-2.994 2.744-2.994a3.197 3.197 0 0 1 2.431 1.144 3.197 3.197 0 0 1 2.431-1.144c1.675 0 2.744 1.306 2.744 2.994 0 2.07-1.606 3.751-4.375 6.283Z" style="fill: rgb(230, 33, 83);" class="fills" data-testid="svg-path"/><ellipse cx="319" cy="462.378" rx="319" ry="12.622" style="fill: rgb(63, 61, 86);" class="fills" data-testid="svg-ellipse"/><ellipse cx="319" cy="462.378" rx="319" ry="12.622" class="fills" data-testid="svg-ellipse" style="opacity: 0.1;"/><ellipse cx="319" cy="456.063" rx="319" ry="12.622" style="fill: rgb(63, 61, 86);" class="fills" data-testid="svg-ellipse"/><g data-testid="svg-path"><defs><linearGradient x1="567" y1="810.38" x2="567" y2="372.4" id="a" gradientUnits="userSpaceOnUse" gradientTransform="matrix(.62502 0 0 .62518 -56.015 -43.831)"><stop offset="0" stop-color="gray" stop-opacity=".25"/><stop offset=".54" stop-color="gray" stop-opacity=".12"/><stop offset="1" stop-color="gray" stop-opacity=".1"/></linearGradient></defs><path d="M333.132 258.068a663.627 663.627 0 0 0-4.438-10.534c-1.437-3.332-2.944-6.727-5.425-9.378a9.77 9.77 0 0 0-3.244-2.394 13.834 13.834 0 0 0-4.138-.819 33.02 33.02 0 0 0-6.525-.181 32.674 32.674 0 0 1-2.744-.963 22.737 22.737 0 0 0 16.932-21.075v-.981c.052-12.521-10.052-22.714-22.569-22.77a22.302 22.302 0 0 0-11.876 3.395 21.033 21.033 0 0 0-4.763-.544 21.295 21.295 0 0 0-19.094 12.066c-4.925 4.439-8.125 11.547-8.125 19.562v1.007c.418 12.347 8.406 22.319 18.482 23.263a10.942 10.942 0 0 0-2.926 1.957c-3.087 2.982-3.593 7.696-3.918 11.997l-.244 3.201-5.269 1.875a.987.987 0 0 0-.231 1.726l5.106 3.645c0 .306 0 .625.038.919.037.293.062.681.1 1.025a7.138 7.138 0 0 0-1.951 2.819c-.625 1.632-.543 3.42-.468 5.158l.187 4.451c.144 3.333.294 6.715 1.356 9.872.669 1.982 3.563 6.733 5.657 6.758-1.931 8.753-2.444 27.202-2.444 27.202-.237.237.425.463 1.65.625 1.156 8.79 4.882 33.428 11.519 44.244a92.874 92.874 0 0 1 2.5 10.747s1.876 23.4 4.376 30.359c2.131 5.914 3.812 20.524 4.269 24.757a2.4 2.4 0 0 0-1.763 1.8c-1.25 3.795-9.375 9.484-9.375 9.484s-4.657 2.351-7.026 4.502c-2.556 2.313-2.5 4.376 8.907 3.088 21.938-2.501 25.701-9.484 25.701-9.484s-.356-1.175-.875-2.707c-.844-2.501-2.113-5.995-2.888-6.777-.312-.319-.625.194-1.018.994a137.114 137.114 0 0 1-1.494-30.659s.625-10.747-2.5-18.336c0 0-1.25-6.959 0-12.016 1.25-5.058-5.001-29.721-5.001-29.721l-3.7-18.193c.49.619.832 1.342 1 2.113.029.121.061.246.094.375.031.169.069.338.1.525a.966.966 0 0 0 .256.494c2.45 10.178 9.151 38.374 9.151 42.512 0 5.064 6.25 17.712 6.25 17.712s2.5 20.868 6.875 29.09c3.332 6.251 3.413 15.416 3.257 19.455 0 0-.744 5.208-2.001 6.471-1.012 1.025-2.031 3.294-2.375 4.126-.087.188-.131.3-.131.3s-1.875 3.795-.625 4.426c0 0 7.5 3.164 15.044 1.876 0 0 2.501-3.164 2.501-4.426a22.671 22.671 0 0 0-.275-2.251c-.463-2.988-1.332-7.709-1.338-7.759.525-2.031-1.519-7.702-1.519-7.702l-.625-17.705c1.875-20.237-4.375-35.416-4.375-35.416s-3.125-11.379-2.5-14.542c.625-3.164-1.25-36.679-1.25-36.679l-.181-.482c-.119-.731-.2-2.551.181-7.108.625-7.59-1.875-23.401-2.5-24.032-.325-.325-.625-2.863-.888-5.233.144-1.319.569-5.183 1.157-10.003a177.603 177.603 0 0 0 18.481-1.625 1.731 1.731 0 0 0 1.919-1.92c.688-9.49-2.819-18.742-6.431-27.558Zm-12.538 20.069c.625-4.539 1.35-8.934 2.037-12.191l.113.294a92.008 92.008 0 0 1 3.019 10.002 35.343 35.343 0 0 1-5.169 1.895Z" fill="url(#a)" style="fill: url(&quot;#a&quot;);" class="fills"/></g><path d="M271.811 329.339s3.75 33.76 11.875 46.889a91.75 91.75 0 0 1 2.5 10.628s1.875 23.131 4.375 30.008c2.5 6.877 4.376 25.633 4.376 25.633s8.75 10.003 11.875 1.875a132.119 132.119 0 0 1-1.875-32.509s.625-10.628-2.5-18.13c0 0-1.25-6.877 0-11.879 1.25-5.001-5-29.383-5-29.383l-5.001-24.382Z" style="fill: rgb(190, 111, 114);" class="fills" data-testid="svg-path"/><path d="M311.187 450.624s-3.75 6.877-25.626 9.378c-11.344 1.294-11.425-.769-8.875-3.057 2.362-2.126 7-4.445 7-4.445s8.125-5.627 9.375-9.378c1.251-3.751 5.626-.625 5.626-.625 6.25 9.378 7.5-2.501 8.75-1.251.775.776 2.038 4.214 2.881 6.702.513 1.488.869 2.676.869 2.676Z" style="fill: rgb(255, 111, 97);" class="fills" data-testid="svg-path"/><path d="M311.187 450.624s-3.75 6.877-25.626 9.378c-11.344 1.294-11.425-.769-8.875-3.057 1.787 1.138 5.388 1.644 12.625-1.319 10.413-4.264 17.957-6.727 21.007-7.678.513 1.488.869 2.676.869 2.676ZM304.937 411.863s.625-10.628-2.5-18.13c0 0-1.25-6.877 0-11.879 1.25-5.001-5-29.383-5-29.383l-5.001-24.382-4.318.262 4.943 24.12s6.251 24.382 5.001 29.383c-1.25 5.002 0 11.879 0 11.879 3.125 7.502 2.5 18.13 2.5 18.13a132.07 132.07 0 0 0 1.875 32.509 5.424 5.424 0 0 1-1.813 2.589c2.332 1.056 4.807 1 6.188-2.589a132.119 132.119 0 0 1-1.875-32.509Z" class="fills" data-testid="svg-path" style="opacity: 0.1;"/><path d="M300.874 192.112a22.374 22.374 0 0 0-11.813 3.357 21.218 21.218 0 0 0-23.813 11.397c-4.913 4.376-8.125 11.416-8.125 19.337 0 13.298 8.956 24.069 20 24.069 8.013 0 14.92-5.664 18.126-13.847a22.495 22.495 0 0 0 22.962-7.422 22.508 22.508 0 0 0 3.041-23.944 22.548 22.548 0 0 0-20.378-12.947Z" style="fill: rgb(63, 61, 86);" class="fills" data-testid="svg-path"/><path d="m319.313 332.465 1.875 5.001s1.875 33.135 1.25 36.261c-.625 3.126 2.5 14.379 2.5 14.379s6.25 15.004 4.375 35.01l.625 17.505s2.5 6.877 1.25 8.128c-1.25 1.25-10.625-1.251-10.625-1.251s1.25-13.129-3.126-21.256c-4.375-8.127-6.875-28.758-6.875-28.758s-6.25-12.504-6.25-17.505c0-5.002-10-45.638-10-45.638Z" style="fill: rgb(190, 111, 114);" class="fills" data-testid="svg-path"/><path d="M270.561 331.84s.625-22.507 3.125-29.384c2.5-6.877 2.812-9.94 2.812-9.94s37.846 6.839 40.971 4.339c0 0 .625 8.752 1.25 9.377.625.626 3.125 16.255 2.5 23.757-.625 7.502 0 7.502 0 7.502s-25.626 3.752-26.251 0c-.625-3.751-2.5-3.751-2.5-3.751s-23.157-.65-21.907-1.9Z" style="fill: rgb(63, 61, 86);" class="fills" data-testid="svg-path"/><g data-testid="svg-g" style="opacity: 0.1; fill: rgb(0, 0, 0);"><path d="M291.186 331.84s-15.819-.425-20.582-1.251c-.031.813-.043 1.251-.043 1.251-1.25 1.25 21.875 1.875 21.875 1.875.316.034.616.157.863.357-.794-2.22-2.113-2.232-2.113-2.232ZM318.687 306.207c-.625-.625-1.25-9.377-1.25-9.377a2.449 2.449 0 0 1-1.068.381c.231 2.638.625 6.702 1.068 7.121.625.625 3.126 16.255 2.501 23.757-.625 7.502 0 7.502 0 7.502s-20.27 2.97-25.195.988c.075.275.137.562.194.887.625 3.752 26.251 0 26.251 0s-.625 0 0-7.502-1.875-23.131-2.501-23.757Z" class="fills" data-testid="svg-path"/><g data-testid="svg-path"><defs><pattern id="b" width="36.88" height="49.48" patternUnits="userSpaceOnUse" patternTransform="matrix(.62502 0 0 .62518 -56.015 -43.831)"><rect width="36.88" height="49.48" fill="none"/><path d="M4.33 13.19c4.5 0 4.51-7 0-7s-4.52 7 0 7Z"/><path d="M4.51 17.16c4.51 0 4.52-7 0-7s-4.51 7 0 7Z"/><path d="M4.51 20.94c4.51 0 4.52-7 0-7s-4.51 7 0 7Z"/><path d="M3.38 24.72c4.51 0 4.51-7 0-7s-4.51 7 0 7Z"/><path d="m1.09 28.29.2.38a3.52 3.52 0 0 0 4.78 1.25 3.58 3.58 0 0 0 1.26-4.79l-.19-.37a3.52 3.52 0 0 0-4.79-1.26 3.59 3.59 0 0 0-1.26 4.79Z"/><path d="m1.49 30.1.18.57a3.73 3.73 0 0 0 1.61 2.09 3.59 3.59 0 0 0 2.7.35 3.54 3.54 0 0 0 2.44-4.31l-.18-.56a3.68 3.68 0 0 0-1.61-2.1 3.61 3.61 0 0 0-2.69-.35 3.56 3.56 0 0 0-2.45 4.31Z"/><path d="M1.58 33.88v.38a3.54 3.54 0 0 0 3.5 3.5 3.56 3.56 0 0 0 3.5-3.5v-.38a3.54 3.54 0 0 0-3.5-3.5 3.57 3.57 0 0 0-3.5 3.5Z"/><path d="M4.89 42.3c4.51 0 4.51-7 0-7s-4.51 7 0 7Z"/><path d="M1.77 42v.19a3.54 3.54 0 0 0 3.5 3.5 3.56 3.56 0 0 0 3.5-3.5V42a3.54 3.54 0 0 0-3.5-3.5 3.56 3.56 0 0 0-3.5 3.5Z"/><path d="M6 49.29c4.5 0 4.51-7 0-7s-4.52 7 0 7ZM10 14.14c4.5 0 4.51-7 0-7s-4.52 7 0 7Z"/><path d="M6.59 20.94c4.51 0 4.52-7 0-7s-4.51 7 0 7Z"/><path d="M8.48 27c4.51 0 4.51-7 0-7s-4.51 7 0 7Z"/><path d="M8.48 29.26c4.51 0 4.51-7 0-7s-4.51 7 0 7ZM14.91 33.79c4.5 0 4.51-7 0-7s-4.51 7 0 7Z"/><path d="M9.81 38.52c4.5 0 4.51-7 0-7s-4.52 7 0 7Z"/><path d="M10.56 45.13c4.51 0 4.51-7 0-7s-4.51 7 0 7Z"/><path d="M10.56 49.48c4.51 0 4.51-7 0-7s-4.51 7 0 7ZM12.83 18.12c2.57 0 2.58-4 0-4s-2.58 4 0 4Z"/><path d="M13 20.39c2.57 0 2.58-4 0-4s-2.58 4 0 4Z"/><path d="M13.1 21v.19a2 2 0 0 0 4 0V21a2 2 0 0 0-4 0Z"/><path d="M15.1 25.87c2.57 0 2.58-4 0-4s-2.58 4 0 4ZM16.61 11.07a1 1 0 0 0 0-2 1 1 0 0 0 0 2ZM21.71 16.55a1 1 0 0 0 0-2 1 1 0 0 0 0 2Z"/><path d="M16.85 8.94v-.38a1 1 0 0 0-2 0v.38a1 1 0 0 0 2 0ZM16.48 4.78v-.19a1 1 0 0 0-2 0v.19a1 1 0 0 0 2 0ZM15.48 2a1 1 0 0 0 0-2 1 1 0 0 0 0 2ZM10.56 2a1 1 0 0 0 0-2 1 1 0 0 0 0 2ZM10.37 4.65a1 1 0 0 0 0-2 1 1 0 0 0 0 2ZM7.35 6.16a1 1 0 0 0 0-2 1 1 0 0 0 0 2ZM11.88 7.1h.38a1 1 0 0 0 0-2h-.38a1 1 0 0 0 0 2ZM13.28 11l.57 1.32a1 1 0 0 0 1.37.36 1 1 0 0 0 .36-1.37L15 10a1 1 0 0 0-1.37-.36 1 1 0 0 0-.35 1.36ZM18.44 19.33v.19a1 1 0 0 0 2 0v-.19a1 1 0 0 0-2 0ZM20.68 24.93l.19.38c.57 1.15 2.3.14 1.72-1l-.19-.38c-.57-1.15-2.3-.14-1.72 1ZM22.13 29.38a2.48 2.48 0 0 0-.84 1.86 1 1 0 0 0 2 0 .56.56 0 0 1 .25-.44 1 1 0 0 0 0-1.42 1 1 0 0 0-1.41 0ZM20.32 33.41l-.54 1.71c-.38 1.23 1.55 1.76 1.93.53l.54-1.71c.38-1.23-1.55-1.76-1.93-.53ZM19.44 37h-.19a1 1 0 0 0 0 2h.19a1 1 0 0 0 0-2ZM17.64 41.5l-.19.38c-.58 1.15 1.15 2.16 1.72 1l.19-.38c.58-1.15-1.15-2.16-1.72-1ZM15.8 47.87v.56a1 1 0 0 0 2 0v-.56a1 1 0 0 0-2 0ZM14.34 49.43a1 1 0 0 0 0-2 1 1 0 0 0 0 2ZM14.34 41.31a1 1 0 0 0 0-2 1 1 0 0 0 0 2ZM17.13 36.47a2 2 0 0 0 1-1.64 1 1 0 0 0-2 0c0-.13.19-.2 0-.08-1.15.58-.14 2.3 1 1.72ZM17.37 31.29a1 1 0 0 0 0-2 1 1 0 0 0 0 2ZM18.12 28.46a1 1 0 0 0 0-2 1 1 0 0 0 0 2ZM19 24.94l.19-.38c.58-1.15-1.15-2.16-1.72-1l-.19.38c-.58 1.15 1.15 2.16 1.72 1ZM17.93 16a1 1 0 0 0 0-2 1 1 0 0 0 0 2ZM24.64 16.05l.57.94a1 1 0 0 0 1.72-1l-.56-.99a1 1 0 0 0-1.73 1ZM34.88 29.72v.19a1 1 0 0 0 2 0v-.19a1 1 0 0 0-2 0ZM24 39.23a1 1 0 0 0 0-2 1 1 0 0 0 0 2Z"/><path d="M22.85 29a1 1 0 0 0 0-2 1 1 0 0 0 0 2ZM18.24 21.9l.57-.56c.93-.89-.48-2.3-1.41-1.41l-.58.56c-.93.89.49 2.3 1.42 1.41Z"/></pattern></defs><path d="M291.186 331.84s-15.819-.425-20.582-1.251c-.031.813-.043 1.251-.043 1.251-1.25 1.25 21.875 1.875 21.875 1.875.316.034.616.157.863.357-.794-2.22-2.113-2.232-2.113-2.232Z" fill="url(#b)" style="fill: url(&quot;#b&quot;);" class="fills"/></g><g data-testid="svg-path"><defs><pattern id="c" width="36.88" height="49.48" patternUnits="userSpaceOnUse" patternTransform="matrix(.62502 0 0 .62518 -56.015 -43.831)"><rect width="36.88" height="49.48" fill="none"/><path d="M4.33 13.19c4.5 0 4.51-7 0-7s-4.52 7 0 7Z"/><path d="M4.51 17.16c4.51 0 4.52-7 0-7s-4.51 7 0 7Z"/><path d="M4.51 20.94c4.51 0 4.52-7 0-7s-4.51 7 0 7Z"/><path d="M3.38 24.72c4.51 0 4.51-7 0-7s-4.51 7 0 7Z"/><path d="m1.09 28.29.2.38a3.52 3.52 0 0 0 4.78 1.25 3.58 3.58 0 0 0 1.26-4.79l-.19-.37a3.52 3.52 0 0 0-4.79-1.26 3.59 3.59 0 0 0-1.26 4.79Z"/><path d="m1.49 30.1.18.57a3.73 3.73 0 0 0 1.61 2.09 3.59 3.59 0 0 0 2.7.35 3.54 3.54 0 0 0 2.44-4.31l-.18-.56a3.68 3.68 0 0 0-1.61-2.1 3.61 3.61 0 0 0-2.69-.35 3.56 3.56 0 0 0-2.45 4.31Z"/><path d="M1.58 33.88v.38a3.54 3.54 0 0 0 3.5 3.5 3.56 3.56 0 0 0 3.5-3.5v-.38a3.54 3.54 0 0 0-3.5-3.5 3.57 3.57 0 0 0-3.5 3.5Z"/><path d="M4.89 42.3c4.51 0 4.51-7 0-7s-4.51 7 0 7Z"/><path d="M1.77 42v.19a3.54 3.54 0 0 0 3.5 3.5 3.56 3.56 0 0 0 3.5-3.5V42a3.54 3.54 0 0 0-3.5-3.5 3.56 3.56 0 0 0-3.5 3.5Z"/><path d="M6 49.29c4.5 0 4.51-7 0-7s-4.52 7 0 7ZM10 14.14c4.5 0 4.51-7 0-7s-4.52 7 0 7Z"/><path d="M6.59 20.94c4.51 0 4.52-7 0-7s-4.51 7 0 7Z"/><path d="M8.48 27c4.51 0 4.51-7 0-7s-4.51 7 0 7Z"/><path d="M8.48 29.26c4.51 0 4.51-7 0-7s-4.51 7 0 7ZM14.91 33.79c4.5 0 4.51-7 0-7s-4.51 7 0 7Z"/><path d="M9.81 38.52c4.5 0 4.51-7 0-7s-4.52 7 0 7Z"/><path d="M10.56 45.13c4.51 0 4.51-7 0-7s-4.51 7 0 7Z"/><path d="M10.56 49.48c4.51 0 4.51-7 0-7s-4.51 7 0 7ZM12.83 18.12c2.57 0 2.58-4 0-4s-2.58 4 0 4Z"/><path d="M13 20.39c2.57 0 2.58-4 0-4s-2.58 4 0 4Z"/><path d="M13.1 21v.19a2 2 0 0 0 4 0V21a2 2 0 0 0-4 0Z"/><path d="M15.1 25.87c2.57 0 2.58-4 0-4s-2.58 4 0 4ZM16.61 11.07a1 1 0 0 0 0-2 1 1 0 0 0 0 2ZM21.71 16.55a1 1 0 0 0 0-2 1 1 0 0 0 0 2Z"/><path d="M16.85 8.94v-.38a1 1 0 0 0-2 0v.38a1 1 0 0 0 2 0ZM16.48 4.78v-.19a1 1 0 0 0-2 0v.19a1 1 0 0 0 2 0ZM15.48 2a1 1 0 0 0 0-2 1 1 0 0 0 0 2ZM10.56 2a1 1 0 0 0 0-2 1 1 0 0 0 0 2ZM10.37 4.65a1 1 0 0 0 0-2 1 1 0 0 0 0 2ZM7.35 6.16a1 1 0 0 0 0-2 1 1 0 0 0 0 2ZM11.88 7.1h.38a1 1 0 0 0 0-2h-.38a1 1 0 0 0 0 2ZM13.28 11l.57 1.32a1 1 0 0 0 1.37.36 1 1 0 0 0 .36-1.37L15 10a1 1 0 0 0-1.37-.36 1 1 0 0 0-.35 1.36ZM18.44 19.33v.19a1 1 0 0 0 2 0v-.19a1 1 0 0 0-2 0ZM20.68 24.93l.19.38c.57 1.15 2.3.14 1.72-1l-.19-.38c-.57-1.15-2.3-.14-1.72 1ZM22.13 29.38a2.48 2.48 0 0 0-.84 1.86 1 1 0 0 0 2 0 .56.56 0 0 1 .25-.44 1 1 0 0 0 0-1.42 1 1 0 0 0-1.41 0ZM20.32 33.41l-.54 1.71c-.38 1.23 1.55 1.76 1.93.53l.54-1.71c.38-1.23-1.55-1.76-1.93-.53ZM19.44 37h-.19a1 1 0 0 0 0 2h.19a1 1 0 0 0 0-2ZM17.64 41.5l-.19.38c-.58 1.15 1.15 2.16 1.72 1l.19-.38c.58-1.15-1.15-2.16-1.72-1ZM15.8 47.87v.56a1 1 0 0 0 2 0v-.56a1 1 0 0 0-2 0ZM14.34 49.43a1 1 0 0 0 0-2 1 1 0 0 0 0 2ZM14.34 41.31a1 1 0 0 0 0-2 1 1 0 0 0 0 2ZM17.13 36.47a2 2 0 0 0 1-1.64 1 1 0 0 0-2 0c0-.13.19-.2 0-.08-1.15.58-.14 2.3 1 1.72ZM17.37 31.29a1 1 0 0 0 0-2 1 1 0 0 0 0 2ZM18.12 28.46a1 1 0 0 0 0-2 1 1 0 0 0 0 2ZM19 24.94l.19-.38c.58-1.15-1.15-2.16-1.72-1l-.19.38c-.58 1.15 1.15 2.16 1.72 1ZM17.93 16a1 1 0 0 0 0-2 1 1 0 0 0 0 2ZM24.64 16.05l.57.94a1 1 0 0 0 1.72-1l-.56-.99a1 1 0 0 0-1.73 1ZM34.88 29.72v.19a1 1 0 0 0 2 0v-.19a1 1 0 0 0-2 0ZM24 39.23a1 1 0 0 0 0-2 1 1 0 0 0 0 2Z"/><path d="M22.85 29a1 1 0 0 0 0-2 1 1 0 0 0 0 2ZM18.24 21.9l.57-.56c.93-.89-.48-2.3-1.41-1.41l-.58.56c-.93.89.49 2.3 1.42 1.41Z"/></pattern></defs><path d="M318.687 306.207c-.625-.625-1.25-9.377-1.25-9.377a2.449 2.449 0 0 1-1.068.381c.231 2.638.625 6.702 1.068 7.121.625.625 3.126 16.255 2.501 23.757-.625 7.502 0 7.502 0 7.502s-20.27 2.97-25.195.988c.075.275.137.562.194.887.625 3.752 26.251 0 26.251 0s-.625 0 0-7.502-1.875-23.131-2.501-23.757Z" fill="url(#c)" style="fill: url(&quot;#c&quot;);" class="fills"/></g></g><path d="M298.093 231.492a8.417 8.417 0 0 0 2.388 3.126 5.465 5.465 0 0 0 2.25.963c-1.407.806-2.926 1.413-4.332 2.225-2.3 1.319-4.256 3.126-6.406 4.695-2.15 1.57-4.644 2.839-7.294 2.826a8.958 8.958 0 0 0 1.018-8.877c-.45-1.013-1.106-1.995-1.125-3.126 0-1.788 1.588-3.126 3.069-4.133 1.204-.812 2.423-1.6 3.657-2.363.975-.625 2.437-1.875 3.662-1.832 1.369.05 1.369 1.132 1.619 2.245a18.405 18.405 0 0 0 1.494 4.251Z" style="fill: rgb(190, 111, 114);" class="fills" data-testid="svg-path"/><path d="M298.093 231.492a8.417 8.417 0 0 0 2.388 3.126 5.465 5.465 0 0 0 2.25.963c-1.407.806-2.926 1.413-4.332 2.225-2.3 1.319-4.256 3.126-6.406 4.695-2.15 1.57-4.644 2.839-7.294 2.826a8.958 8.958 0 0 0 1.018-8.877c-.45-1.013-1.106-1.995-1.125-3.126 0-1.788 1.588-3.126 3.069-4.133 1.204-.812 2.423-1.6 3.657-2.363.975-.625 2.437-1.875 3.662-1.832 1.369.05 1.369 1.132 1.619 2.245a18.405 18.405 0 0 0 1.494 4.251Z" class="fills" data-testid="svg-path" style="opacity: 0.1;"/><ellipse cx="312.75" cy="254.011" rx="14.376" ry="14.379" style="fill: rgb(190, 111, 114);" class="fills" data-testid="svg-circle"/><path d="M333.063 458.126c0 1.251-2.5 4.377-2.5 4.377-7.5 1.25-15.001-1.876-15.001-1.876-1.25-.625.625-4.376.625-4.376s.044-.113.132-.3c.343-.819 1.356-3.064 2.368-4.076 1.251-1.251 1.994-6.396 1.994-6.396 3.875-6.396 10.769 2.751 10.769 2.751s.876 4.701 1.338 7.671c.13.736.221 1.479.275 2.225Z" style="fill: rgb(255, 111, 97);" class="fills" data-testid="svg-path"/><path d="M333.063 458.126c0 1.251-2.5 4.377-2.5 4.377-7.5 1.25-15.001-1.876-15.001-1.876-1.25-.625.625-4.376.625-4.376s.044-.113.132-.3c2.875 1.25 8.4 3.238 13.619 2.801l2.85-2.851c.13.736.221 1.479.275 2.225Z" class="fills" data-testid="svg-path" style="opacity: 0.1;"/><ellipse cx="283.999" cy="224.002" rx="14.063" ry="14.067" style="fill: rgb(190, 111, 114);" class="fills" data-testid="svg-circle"/><path d="M272.648 252.117c-3.075 2.944-3.581 7.608-3.906 11.878l-.469 6.214a33.123 33.123 0 0 0-.131 5.039c.081 1.051.262 2.089.362 3.126.119 1.251.125 2.501.132 3.751l.056 9.197c0 1.875.05 3.888 1.012 5.52.963 1.632 3.182 2.682 4.807 1.713 1.062-.625 1.556-1.875 1.981-3.044 1.375-3.789 2.763-7.634 3.125-11.648.131-1.381.144-2.769.269-4.151.125-1.381.362-2.826.575-4.232.888-5.858 1.288-11.772 1.681-17.674.119-1.751 1.694-8.634-.593-9.378-1.119-.375-3.432.775-4.488 1.163a12.56 12.56 0 0 0-4.413 2.526Z" style="fill: rgb(190, 111, 114);" class="fills" data-testid="svg-path"/><path d="M272.648 252.117c-3.075 2.944-3.581 7.608-3.906 11.878l-.469 6.214a33.123 33.123 0 0 0-.131 5.039c.081 1.051.262 2.089.362 3.126.119 1.251.125 2.501.132 3.751l.056 9.197c0 1.875.05 3.888 1.012 5.52.963 1.632 3.182 2.682 4.807 1.713 1.062-.625 1.556-1.875 1.981-3.044 1.375-3.789 2.763-7.634 3.125-11.648.131-1.381.144-2.769.269-4.151.125-1.381.362-2.826.575-4.232.888-5.858 1.288-11.772 1.681-17.674.119-1.751 1.694-8.634-.593-9.378-1.119-.375-3.432.775-4.488 1.163a12.56 12.56 0 0 0-4.413 2.526Z" class="fills" data-testid="svg-path" style="opacity: 0.1;"/><path d="M301.812 233.061s-10.626 8.128-16.876 10.003c0 0-3.706 4.233-4.375 5.245-.669 1.013-1.875 12.26-3.125 14.761-1.25 2.501-4.375 8.127 0 13.754 0 0 1.25 5.627.625 7.502-.625 1.876-2.894 8.753-.819 9.071 2.075.319 8.319 4.683 13.944 3.433 5.626-1.251 26.564 4.689 26.564 4.689s3.438-32.197 5.938-37.824l-5.626-1.875s-15.625-9.378-6.25-23.757c0 0-8.75-1.876-10-5.002Z" style="fill: rgb(255, 111, 97);" class="fills" data-testid="svg-path"/><path d="m263.017 270.716 12.906 9.14a.97.97 0 0 0 1.138 0l3.487-2.619a.958.958 0 0 0 .063-1.495l-9.932-8.858a.978.978 0 0 0-.968-.188l-6.463 2.313a.978.978 0 0 0-.629.784.977.977 0 0 0 .398.923Z" style="fill: rgb(63, 61, 86);" class="fills" data-testid="svg-path"/><path d="M267.354 298.274c-1.062-3.126-1.212-6.465-1.35-9.759l-.187-4.376c-.075-1.713-.138-3.489.462-5.096.863-2.3 3.019-3.945 5.357-4.695a18.553 18.553 0 0 1 7.306-.525 1.68 1.68 0 0 1 .925.263c.25.232.428.532.513.862.531 1.488 1.05 3.201.293 4.595a4.739 4.739 0 0 1-1.468 1.501c-1.732 1.25-3.75 2.075-5.394 3.426a1.544 1.544 0 0 0-.669 1.925c.206.877.486 1.734.837 2.564.143.415.388.787.713 1.081.306.244.706.35 1.013.588.687.55 2.106 1.288 2.043 2.163-.237 3.238-2.15 6.739-2.906 9.89-1.469 6.14-6.569-1.725-7.488-4.407Z" style="fill: rgb(190, 111, 114);" class="fills" data-testid="svg-path"/><g data-testid="svg-g" style="opacity: 0.1; fill: rgb(0, 0, 0);"><path d="M287.436 296.83a3.287 3.287 0 0 1-.344.056c1.356.244 2.746.225 4.094-.056l.388-.063a15.093 15.093 0 0 0-4.138.063ZM320.25 262.757c-2.238 5.046-5.544 32.353-6.144 37.78 2.213.575 3.644.982 3.644.982s3.438-32.197 5.938-37.824Z" class="fills" data-testid="svg-path"/></g><path d="M313.237 254.449c.044 1.281 1.094 2.263 2.057 3.126a27.029 27.029 0 0 1 3.631 3.694 26.126 26.126 0 0 1 3.619 7.227 90.251 90.251 0 0 1 3.013 9.903c-8.038 3.689-17.001 3.514-25.501 5.952a20.409 20.409 0 0 0-9.613 5.627c-2.5 2.794-4.013 6.633-3.513 10.365.015.22.079.434.188.625.286.311.697.474 1.118.444a9.482 9.482 0 0 0 5.838-2 27.298 27.298 0 0 0 4.463-4.377 7.254 7.254 0 0 1 3.194-2.344c4.606-1.407 9.512-1.319 14.331-1.407 7.132-.137 14.249-.7 21.314-1.688a2.307 2.307 0 0 0 1.55-.625c.241-.372.367-.807.362-1.25.7-9.378-2.781-18.556-6.387-27.258a722.256 722.256 0 0 0-4.419-10.416c-1.432-3.294-2.938-6.652-5.407-9.259a9.764 9.764 0 0 0-3.237-2.369 14.181 14.181 0 0 0-4.126-.806 31.58 31.58 0 0 0-6.994-.132c-.256 1.251-.712 2.363-.668 3.62.131 4.295 2.006 8.315 3.85 12.197.293.563.969.582 1.337 1.151Z" style="fill: rgb(190, 111, 114);" class="fills" data-testid="svg-path"/><g data-testid="svg-path" style="opacity: 0.1;"><path d="M287.786 262.507a11.634 11.634 0 0 0-1.6 6.083c.006.849.141 1.692.4 2.501.775 2.263 2.819 3.926 5.075 4.72" fill="none" style="fill: none;" class="fills"/><g fill="none" stroke-miterlimit="10" class="strokes"><path d="M287.786 262.507a11.634 11.634 0 0 0-1.6 6.083c.006.849.141 1.692.4 2.501.775 2.263 2.819 3.926 5.075 4.72" style="fill: none; stroke-width: 1; stroke: rgb(0, 0, 0); stroke-opacity: 1;" class="stroke-shape"/></g></g><path d="M295.874 210.242a7.626 7.626 0 0 0-2.312.369c-2.082-3.126-6.976-5.37-12.688-5.37-7.595 0-13.751 3.92-13.751 8.752 0 4.833 6.156 8.753 13.751 8.753a19.37 19.37 0 0 0 8.25-1.745 7.5 7.5 0 0 0 14.172-4.38 7.5 7.5 0 0 0-7.422-6.379Z" style="fill: rgb(63, 61, 86);" class="fills" data-testid="svg-path"/><path d="M296.499 223.371a7.499 7.499 0 0 1-6.75-4.245 19.369 19.369 0 0 1-8.25 1.744c-7.595 0-13.751-3.913-13.751-8.752.001-.289.024-.578.069-.863a5.87 5.87 0 0 0-.694 2.738c0 4.839 6.156 8.753 13.751 8.753a19.37 19.37 0 0 0 8.25-1.745 7.499 7.499 0 0 0 14.113-1.875 7.5 7.5 0 0 1-6.738 4.245Z" class="fills" data-testid="svg-path" style="opacity: 0.1;"/><path d="M265.248 210.617a21.217 21.217 0 0 1 23.845-11.378 22.498 22.498 0 0 1 34.232 17.274c.05-.626.081-1.251.081-1.876a22.505 22.505 0 0 0-11.538-19.648 22.493 22.493 0 0 0-22.775.499 21.217 21.217 0 0 0-23.845 11.378c-4.913 4.376-8.125 11.416-8.125 19.337 0 .625 0 1.25.068 1.876.457-7.165 3.507-13.442 8.057-17.462Z" class="fills" data-testid="svg-path" style="opacity: 0.1;"/><path d="M259.891 222.796a.625.625 0 0 1-.887 0l-.344-.307c-2.781-2.557-4.375-4.213-4.375-6.283 0-1.688 1.063-2.994 2.744-2.994a3.197 3.197 0 0 1 2.431 1.144 3.2 3.2 0 0 1 2.432-1.144c1.675 0 2.743 1.306 2.743 2.994 0 2.07-1.606 3.751-4.375 6.283ZM236.497 204.709a1.187 1.187 0 0 1-1.588 0l-.625-.55c-5-4.57-7.856-7.54-7.856-11.253 0-3.02 1.906-5.352 4.906-5.352 1.688 0 3.289.746 4.375 2.038a5.728 5.728 0 0 1 4.375-2.038c3.001 0 4.907 2.332 4.907 5.352 0 3.695-2.875 6.664-7.857 11.253ZM269.098 151a1.874 1.874 0 0 1-2.556 0l-.982-.888c-8.031-7.371-12.669-12.16-12.669-18.13 0-4.87 3.082-8.634 7.913-8.634a9.238 9.238 0 0 1 7.019 3.295 9.224 9.224 0 0 1 7.013-3.295c4.837 0 7.913 3.751 7.913 8.634 0 5.958-4.638 10.747-12.67 18.13Z" style="fill: rgb(230, 33, 83);" class="fills" data-testid="svg-path"/><path d="M434.942 387.612v5.002c0 10.358 8.395 18.755 18.751 18.755 10.356 0 18.751-8.397 18.751-18.755v-5.002c0-10.358-8.395-18.755-18.751-18.755-10.356 0-18.751 8.397-18.751 18.755ZM472.444 307.589v-5.001c0-10.359-8.395-18.756-18.751-18.756-10.356 0-18.751 8.397-18.751 18.756v5.001c-.001 1.837.27 3.664.806 5.42 2.695 8.893 11.494 14.471 20.684 13.114 9.19-1.358 16.001-9.242 16.012-18.534Z" style="fill: rgb(63, 61, 86);" class="fills" data-testid="svg-path"/><path d="M434.942 345.1v5.001c0 10.359 8.395 18.756 18.751 18.756 10.356 0 18.751-8.397 18.751-18.756V345.1c0-10.358-8.395-18.756-18.751-18.756-10.356 0-18.751 8.398-18.751 18.756ZM453.693 411.369c-10.343.031-18.72 8.41-18.751 18.756v5.001c0 10.358 8.395 18.755 18.751 18.755 10.356 0 18.751-8.397 18.751-18.755v-5.001c-.031-10.346-8.408-18.725-18.751-18.756Z" style="fill: rgb(63, 61, 86);" class="fills" data-testid="svg-path"/><path d="M472.444 303.069v4.52c-.011 9.292-6.822 17.176-16.012 18.534-9.19 1.357-17.989-4.221-20.684-13.114ZM472.444 345.581v4.52c-.011 9.293-6.822 17.177-16.012 18.534-9.19 1.358-17.989-4.221-20.684-13.113ZM472.444 388.094v4.52c-.011 9.292-6.822 17.176-16.012 18.533-9.19 1.358-17.989-4.22-20.684-13.113ZM472.444 430.606v4.52c-.011 9.292-6.822 17.176-16.012 18.534-9.19 1.357-17.989-4.221-20.684-13.114Z" class="fills" data-testid="svg-path" style="opacity: 0.1;"/><path d="m511.589 350.42-1.494 1.157a7.081 7.081 0 0 1-10.088-9.734 6.99 6.99 0 0 1 1.431-1.488l1.5-1.157a7.095 7.095 0 0 1 9.951 1.301c2.389 3.107 1.807 7.563-1.3 9.921Z" style="fill: rgb(63, 61, 86);" class="fills" data-testid="svg-path"/><path d="m490.219 349.007-1.494 1.157a7.091 7.091 0 0 0-1.135 9.828 7.087 7.087 0 0 0 9.792 1.394l1.494-1.157a7.09 7.09 0 0 0-8.657-11.222ZM477.506 358.823l-1.494 1.15a7.102 7.102 0 0 0-1.297 9.956 7.098 7.098 0 0 0 9.954 1.297l1.494-1.15a7.1 7.1 0 0 0 1.297-9.956 7.097 7.097 0 0 0-9.954-1.297Z" style="fill: rgb(63, 61, 86);" class="fills" data-testid="svg-path"/><path d="m464.793 368.632-1.494 1.156a7.087 7.087 0 0 0-1.284 9.938 7.083 7.083 0 0 0 9.935 1.284l1.5-1.156a7.1 7.1 0 0 0 1.297-9.956 7.063 7.063 0 0 0-9.954-1.266Z" style="fill: rgb(63, 61, 86);" class="fills" data-testid="svg-path"/><path d="m511.445 350.533-1.35 1.044a7.081 7.081 0 0 1-10.088-9.734ZM498.732 360.342l-1.35 1.044a7.08 7.08 0 0 1-9.244-.506 7.086 7.086 0 0 1-.844-9.222ZM486.019 370.151l-1.35 1.044a7.081 7.081 0 0 1-10.094-9.728Z" class="fills" data-testid="svg-path" style="opacity: 0.1;"/><path d="M504.945 117.534c11.736 0 21.251 9.517 21.251 21.256 0 11.74-9.515 21.256-21.251 21.256 11.736 0 21.251 9.517 21.251 21.256 0 11.74-9.515 21.257-21.251 21.257 11.736 0 21.251 9.516 21.251 21.256 0 11.739-9.515 21.256-21.251 21.256 11.736 0 21.251 9.517 21.251 21.256 0 11.74-9.515 21.256-21.251 21.256H402.441c-11.737 0-21.251-9.516-21.251-21.256 0-11.739 9.514-21.256 21.251-21.256-11.737 0-21.251-9.517-21.251-21.256 0-11.74 9.514-21.256 21.251-21.256-11.737 0-21.251-9.517-21.251-21.257 0-11.739 9.514-21.256 21.251-21.256-11.737 0-21.251-9.516-21.251-21.256 0-11.739 9.514-21.256 21.251-21.256-11.737 0-21.251-9.517-21.251-21.256 0-11.74 9.514-21.256 21.251-21.256-11.737 0-21.251-9.517-21.251-21.256 0-11.74 9.514-21.257 21.251-21.257h4.687C409.822 14.223 430.479 0 455.574 0s45.752 14.223 48.446 32.509h.931c11.737 0 21.251 9.517 21.251 21.257 0 11.739-9.514 21.256-21.251 21.256 11.737 0 21.251 9.516 21.251 21.256 0 11.739-9.514 21.256-21.257 21.256Z" style="fill: rgb(3, 169, 244);" class="fills" data-testid="svg-path"/><path d="M526.196 53.766c-.035 11.725-9.529 21.221-21.251 21.256H402.441L504.32 32.509h.625c11.722.035 21.216 9.531 21.251 21.257ZM381.815 96.278c.034 11.725 9.529 21.222 21.251 21.256H505.57L403.691 75.022h-.625c-11.722.034-21.217 9.531-21.251 21.256ZM381.815 181.302c.034 11.726 9.529 21.222 21.251 21.257H505.57l-101.879-42.513h-.625c-11.722.035-21.217 9.531-21.251 21.256ZM381.815 266.327c.034 11.725 9.529 21.222 21.251 21.256H505.57l-101.879-42.512h-.625c-11.722.034-21.217 9.531-21.251 21.256Z" class="fills" data-testid="svg-path" style="opacity: 0.1;"/><path d="M526.196 138.79c-.035 11.725-9.529 21.222-21.251 21.256H402.441l101.879-42.512h.625c11.722.034 21.216 9.531 21.251 21.256ZM526.196 223.815c-.035 11.725-9.529 21.222-21.251 21.256H402.441l101.879-42.512h.625c11.722.034 21.216 9.531 21.251 21.256Z" class="fills" data-testid="svg-path" style="opacity: 0.1;"/><path d="M514.451 372.358 480.7 354.184a7.947 7.947 0 0 1-2.996-10.615 7.944 7.944 0 0 1 10.496-3.383 7.952 7.952 0 0 1-.531-13.9 7.95 7.95 0 0 1 8.069-.098l1.538.825c4.131-5.539 13.45-6.564 21.719-2.113 8.269 4.452 12.545 12.798 10.188 19.293l.306.169a7.949 7.949 0 0 1-7.531 13.998 7.954 7.954 0 0 1 3.049 10.672c-2.045 3.796-6.74 5.271-10.556 3.326Z" style="fill: rgb(3, 169, 244);" class="fills" data-testid="svg-path"/><path d="M532.758 355.128a7.968 7.968 0 0 1-10.763 3.232l-33.751-18.174 41.083 4.064.206.112a7.971 7.971 0 0 1 3.225 10.766ZM477.675 343.524a7.978 7.978 0 0 0 3.206 10.772l33.752 18.174-25.989-32.065-.206-.113a7.974 7.974 0 0 0-10.763 3.232Z" class="fills" data-testid="svg-path" style="opacity: 0.1;"/><path d="m119.53 455.063-69.834.069c-7.879-.164-14.181-6.6-14.181-14.483 0-7.882 6.302-14.318 14.181-14.482-7.88-.155-14.189-6.584-14.197-14.467-.009-7.883 6.286-14.325 14.165-14.498h3.194c1.819-12.459 15.888-22.162 32.983-22.181 17.094-.019 31.182 9.659 33.026 22.113h.625c7.879.163 14.181 6.599 14.181 14.482 0 7.883-6.302 14.319-14.181 14.482a14.484 14.484 0 0 1 12.815 21.798 14.477 14.477 0 0 1-12.777 7.167Z" style="fill: rgb(3, 169, 244);" class="fills" data-testid="svg-path"/><path d="M133.993 411.625c-.014 7.99-6.476 14.467-14.463 14.498l-69.834.069 69.377-29.033h.425c7.988.013 14.464 6.477 14.495 14.466Z" class="fills" data-testid="svg-path" style="opacity: 0.1;"/><path d="M35.626 440.684c.031 7.989 6.508 14.453 14.495 14.467l69.834-.088-69.441-28.896h-.425c-7.994.031-14.459 6.52-14.463 14.517Z" class="fills" data-testid="svg-path" style="opacity: 0.1;"/><g style="opacity: 0.1;"><path d="M332.751 99.598a12.691 12.691 0 0 0-7.338.8 10.793 10.793 0 0 1-8.813 0 12.374 12.374 0 0 0-10.363.2 6.434 6.434 0 0 1-2.981.75c-4.201 0-7.694-4.232-8.419-9.822a8.094 8.094 0 0 0 2.1-2.263c2.462-3.97 6.25-6.514 10.556-6.514 4.307 0 8.057 2.501 10.519 6.446a8.128 8.128 0 0 0 6.976 3.832h.112c3.313-.019 6.207 2.663 7.651 6.571Z" style="fill: rgb(3, 169, 244);" class="fills" data-testid="svg-path"/></g><g style="opacity: 0.1;"><path d="m345.514 82.074-6.788 4.307 4.119-7.502a6.68 6.68 0 0 0-4.107-1.469h-.106a7.519 7.519 0 0 1-1.406-.1l-2.307 1.457.988-1.795a8.207 8.207 0 0 1-4.025-3.057l-4.132 2.62 2.6-4.733c-2.406-2.888-5.625-4.664-9.225-4.664-4.281 0-8.125 2.545-10.563 6.515a7.908 7.908 0 0 1-6.981 3.751h-.207c-4.725 0-8.562 5.364-8.562 11.978 0 6.615 3.837 11.979 8.562 11.979a6.358 6.358 0 0 0 2.982-.751 12.373 12.373 0 0 1 10.363-.2c1.394.623 2.904.947 4.431.951a10.81 10.81 0 0 0 4.375-.932 12.368 12.368 0 0 1 10.269.2 6.415 6.415 0 0 0 2.951.732c4.731 0 8.562-5.364 8.562-11.979a15.221 15.221 0 0 0-1.793-7.308Z" style="fill: rgb(3, 169, 244);" class="fills" data-testid="svg-path"/></g><g style="opacity: 0.1;"><path d="M146.256 68.964a12.692 12.692 0 0 1 7.338.8 10.769 10.769 0 0 0 8.806 0 12.374 12.374 0 0 1 10.344.187 6.448 6.448 0 0 0 2.982.751c4.2 0 7.7-4.233 8.425-9.822a7.994 7.994 0 0 1-2.1-2.263c-2.463-3.97-6.282-6.514-10.563-6.514-4.281 0-8.05 2.5-10.513 6.445a8.121 8.121 0 0 1-6.981 3.826h-.107c-3.325 0-6.225 2.682-7.631 6.59Z" style="fill: rgb(3, 169, 244);" class="fills" data-testid="svg-path"/></g><g style="opacity: 0.1;"><path d="m133.455 51.44 6.788 4.307-4.125-7.502a6.698 6.698 0 0 1 4.106-1.469h.113c.471.011.941-.023 1.406-.1l2.3 1.457-.987-1.795a8.215 8.215 0 0 0 4.031-3.057l4.119 2.614-2.6-4.702c2.412-2.888 5.656-4.664 9.231-4.664 4.282 0 8.126 2.545 10.563 6.515a7.901 7.901 0 0 0 6.982 3.751h.225c4.731 0 8.563 5.364 8.563 11.978 0 6.615-3.832 11.979-8.563 11.979a6.404 6.404 0 0 1-2.981-.75 12.37 12.37 0 0 0-10.363-.201c-1.393.623-2.9.947-4.426.951a10.761 10.761 0 0 1-4.375-.932 12.382 12.382 0 0 0-10.275.2 6.384 6.384 0 0 1-2.95.732c-4.725 0-8.563-5.364-8.563-11.979a15.233 15.233 0 0 1 1.781-7.333Z" style="fill: rgb(3, 169, 244);" class="fills" data-testid="svg-path"/></g></g></svg>