<svg width="215" xmlns="http://www.w3.org/2000/svg" height="215" fill="none"><g data-testid="Group"><g data-testid="text-to-speech" style="fill: rgb(0, 0, 0);"><path d="M64.5 53.75c11.874 0 21.5 9.626 21.5 21.5V129c0 11.874-9.626 21.5-21.5 21.5S43 140.874 43 129V75.25c0-11.874 9.626-21.5 21.5-21.5ZM129 129c0 31.928-23.22 58.48-53.75 63.64V215h-21.5v-22.36C23.22 187.48 0 160.928 0 129h21.5c0 23.748 19.252 43 43 43s43-19.252 43-43H129Zm79.657-49.343-45.58 45.688L173.935 86H129c-11.874 0-21.5-9.626-21.5-21.5v-43C107.5 9.626 117.126 0 129 0h64.5C205.374 0 215 9.626 215 21.5v43c0 5.913-2.365 11.288-6.343 15.157Z" style="fill: rgb(25, 188, 243); fill-opacity: 1;" class="fills" data-testid="svg-path"/></g><g data-testid="Group"><ellipse cx="134.124" cy="42" rx="11.124" ry="11" style="fill: rgb(255, 255, 255); fill-opacity: 1;" class="fills" data-testid="Ellipse"/><ellipse cx="161.624" cy="42" rx="11.124" ry="11" style="fill: rgb(255, 255, 255); fill-opacity: 1;" class="fills" data-testid="Ellipse"/><ellipse cx="189.124" cy="42" rx="11.124" ry="11" style="fill: rgb(255, 255, 255); fill-opacity: 1;" class="fills" data-testid="Ellipse"/></g></g></svg>